<?xml version="1.0" encoding="UTF-8" standalone="no"?>
<svg
   xmlns:dc="http://purl.org/dc/elements/1.1/"
   xmlns:cc="http://creativecommons.org/ns#"
   xmlns:rdf="http://www.w3.org/1999/02/22-rdf-syntax-ns#"
   xmlns:svg="http://www.w3.org/2000/svg"
   xmlns="http://www.w3.org/2000/svg"
   xmlns:sodipodi="http://sodipodi.sourceforge.net/DTD/sodipodi-0.dtd"
   xmlns:inkscape="http://www.inkscape.org/namespaces/inkscape"
   version="1.0"
   width="8.2126665mm"
   height="34.671001mm"
   id="svg3336"
   inkscape:version="0.92.1 r15371"
   viewBox="0 0 8.2126665 34.671001"
   sodipodi:docname="BarraLuna.svg">
  <metadata
     id="metadata3350">
    <rdf:RDF>
      <cc:Work
         rdf:about="">
        <dc:format>image/svg+xml</dc:format>
        <dc:type
           rdf:resource="http://purl.org/dc/dcmitype/StillImage" />
        <dc:title></dc:title>
      </cc:Work>
    </rdf:RDF>
  </metadata>
  <sodipodi:namedview
     pagecolor="#ffffff"
     bordercolor="#666666"
     borderopacity="1"
     objecttolerance="10"
     gridtolerance="10"
     guidetolerance="10"
     inkscape:pageopacity="0"
     inkscape:pageshadow="2"
     inkscape:window-width="1920"
     inkscape:window-height="1017"
     id="namedview3348"
     inkscape:document-units="mm"
     showgrid="false"
     inkscape:zoom="4.8924765"
     inkscape:cx="21.85593"
     inkscape:cy="56.378238"
     inkscape:window-x="-8"
     inkscape:window-y="-8"
     inkscape:window-maximized="1"
     inkscape:current-layer="svg3336" />
  <defs
     id="defs3338">
    <clipPath
       clipPathUnits="userSpaceOnUse"
       id="clipEmfPath1">
      <path
         d="m -0.3125,123.125 c 2.1875,-0.937 4.375,-1.875 6.25,-3.125 2.1875,-1.562 4.375,-3.437 6.25,-5.312 C 24.375,102.5 29.6875,82.5 29.375,62.1875 29.0625,41.25 22.8125,20.625 11.5625,8.4375 c -1.875,-1.875 -3.75,-3.75 -5.9375,-5 -1.875,-1.25 -3.75,-2.5 -5.9375,-3.125 0,0 6.5625,31.25 6.5625,62.5 0,30.3125 -6.5625,60.3125 -6.5625,60.3125 z"
         id="path3341"
         inkscape:connector-curvature="0" />
    </clipPath>
    <pattern
       id="EMFhbasepattern"
       patternUnits="userSpaceOnUse"
       width="6"
       height="6"
       x="0"
       y="0" />
  </defs>
  <path
     style="fill:none;stroke:none"
     clip-path="url(#clipEmfPath1)"
     d=""
     id="path3344"
     inkscape:connector-curvature="0" />
  <path
     style="fill:#80a1c8;fill-opacity:1;fill-rule:evenodd;stroke:none;stroke-width:1.5569669px;stroke-linecap:butt;stroke-linejoin:miter;stroke-miterlimit:4;stroke-dasharray:none;stroke-opacity:1"
     d="M 0.04502328,0.26570254 C 0.03875868,-1.8829402 8.2686347,4.9358951 8.2239577,17.419603 8.1731117,31.627256 -0.03272502,36.609939 0.09910288,34.465335 0.40708868,29.454957 1.5285826,26.673304 1.5285826,17.365524 1.5285826,8.8333879 0.06520558,7.1878956 0.04502328,0.26570254 Z"
     id="path3341-5"
     inkscape:connector-curvature="0"
     sodipodi:nodetypes="sssss" />
</svg>
