<?xml version="1.0" encoding="UTF-8" standalone="no"?>
<svg
   xmlns:dc="http://purl.org/dc/elements/1.1/"
   xmlns:cc="http://creativecommons.org/ns#"
   xmlns:rdf="http://www.w3.org/1999/02/22-rdf-syntax-ns#"
   xmlns:svg="http://www.w3.org/2000/svg"
   xmlns="http://www.w3.org/2000/svg"
   xmlns:sodipodi="http://sodipodi.sourceforge.net/DTD/sodipodi-0.dtd"
   xmlns:inkscape="http://www.inkscape.org/namespaces/inkscape"
   version="1.0"
   width="27.525135mm"
   height="20.379267mm"
   id="svg2"
   inkscape:version="0.91 r13725"
   viewBox="0 0 27.525135 20.379267"
   sodipodi:docname="Centralita.svg">
  <metadata
     id="metadata43">
    <rdf:RDF>
      <cc:Work
         rdf:about="">
        <dc:format>image/svg+xml</dc:format>
        <dc:type
           rdf:resource="http://purl.org/dc/dcmitype/StillImage" />
        <dc:title></dc:title>
      </cc:Work>
    </rdf:RDF>
  </metadata>
  <sodipodi:namedview
     pagecolor="#ffffff"
     bordercolor="#666666"
     borderopacity="1"
     objecttolerance="10"
     gridtolerance="10"
     guidetolerance="10"
     inkscape:pageopacity="0"
     inkscape:pageshadow="2"
     inkscape:window-width="640"
     inkscape:window-height="480"
     id="namedview41"
     inkscape:document-units="mm"
     showgrid="false"
     inkscape:zoom="3.2682454"
     inkscape:cx="48.765003"
     inkscape:cy="36.105"
     inkscape:window-x="0"
     inkscape:window-y="0"
     inkscape:window-maximized="0"
     inkscape:current-layer="svg2" />
  <defs
     id="defs4">
    <pattern
       id="EMFhbasepattern"
       patternUnits="userSpaceOnUse"
       width="6"
       height="6"
       x="0"
       y="0" />
  </defs>
  <path
     style="fill:#ffffff;fill-opacity:1;fill-rule:evenodd;stroke:none"
     d="m 27.075694,10.759722 -8.995833,-10.23055533 -0.176389,-0.0881944 -0.08819,-0.0881944 -0.08819,-0.0881944 -0.176389,0 -0.176388,-0.0881944 -0.0882,-0.08819445 -0.176389,0 -0.176389,0 L 10.142361,0.70555556 9.8777778,0.52916667 9.6131944,0.44097222 9.4368056,0.35277778 9.2604167,0.26458333 9.0840278,0.17638889 8.9958333,0.08819444 l -0.088194,0 0,0 L 8.73125,0 8.6430556,0 8.4666667,0 8.3784722,0 5.0270833,0.26458333 l -0.2645833,0 -0.1763889,0 -0.1763889,0.0881944 -0.1763889,0.0881944 -0.088194,0.0881944 -0.088195,0.17638889 -0.2645833,0.17638888 -0.1763889,0.26458336 -2.2930555,0.1763889 -0.2645834,0 L 0.79375,1.4111111 0.61736111,1.5875 0.44097222,1.7638889 0.26458333,1.9402778 0.17638889,2.1166667 0.08819444,2.38125 l 0,0.2645833 0,2.9986111 0,0.2645834 L 0.17638889,6.1736111 0.35277778,6.35 0.52916667,6.5263889 0.79375,6.8791667 l 0.5291667,3.1750003 0,0.264583 0.1763889,0.176389 0.088194,0.176389 0.1763889,0.176389 8.2020833,6.879166 0.1763888,0.08819 0.0882,0.08819 0.08819,0.08819 0.176389,0 0.176389,0 0.08819,0.08819 0.176389,0 0.08819,-0.08819 14.728472,-2.645834 0.176389,-0.08819 0.264583,-0.08819 0.176389,-0.08819 0.176389,-0.176389 0.08819,-0.176389 0.08819,-0.176389 0.08819,-0.264583 0,-0.176389 0,-0.176389 0.264583,-0.176389 0.176389,-0.264583 0.176389,-0.264583 0,-0.352778 0,-1.234722 0,-0.176389 -0.08819,-0.264584 -0.0882,-0.176388 -0.176389,-0.264584 0,0 z"
     id="path7"
     inkscape:connector-curvature="0" />
  <path
     style="fill:#ffbfbf;fill-opacity:1;fill-rule:evenodd;stroke:none"
     d="m 25.488194,12.876389 0,1.234722 -14.463888,2.38125 -8.3784727,-6.6145832 -0.6173611,-3.6159722 8.9958338,9.1722224 14.463888,-2.557639 0,0 z"
     id="path9"
     inkscape:connector-curvature="0" />
  <path
     style="fill:#b60000;fill-opacity:1;fill-rule:evenodd;stroke:none"
     d="m 1.4111111,5.6444444 0,-2.9986111 15.6986109,-1.2347222 8.995834,10.2305559 0,1.234722 -15.08125,2.38125 -9.6131949,-9.6131946 0,0 z"
     id="path11"
     inkscape:connector-curvature="0" />
  <path
     style="fill:#ffffff;fill-opacity:1;fill-rule:evenodd;stroke:none"
     d="m 26.105556,11.641667 -14.816667,2.38125 -9.8777779,-11.3770837 0,2.9986111 9.6131949,9.6131946 15.08125,-2.38125 0,-1.234722 0,0 z"
     id="path13"
     inkscape:connector-curvature="0" />
  <path
     style="fill:#000000;fill-opacity:1;fill-rule:evenodd;stroke:none"
     d="M 17.021528,0.97013889 1.3229167,2.2048611 1.2347222,2.2930556 1.0583333,2.38125 l -0.0881944,0.088194 0,0.1763889 0,2.9986111 0,0.088195 0,0.088194 0.0881944,0.088194 0,0 9.7013887,9.7013892 0.0882,0.08819 0.08819,0 0.08819,0 0.08819,0 15.08125,-2.38125 0.176389,-0.08819 0.08819,-0.0882 0.08819,-0.08819 0,-0.176389 0,-1.234722 0,-0.0882 0,0 -0.08819,-0.08819 0,-0.08819 -9.084027,-10.2305552 0,-0.088195 -0.0882,-0.0881944 -0.08819,0 -0.176389,0 0,0 z m -0.08819,0.88194441 0.08819,0.1763889 0.352778,0.3527778 0.440972,0.5291667 0.529166,0.6173611 0.705556,0.79375 0.705556,0.79375 0.79375,0.8819444 0.79375,0.8819445 0.79375,0.9701389 0.79375,0.79375 0.705555,0.8819444 0.617361,0.705556 0.617361,0.617361 0.352778,0.529166 0.352778,0.264584 0.08819,0.176389 0,0.176388 0,0.0882 0,0.176389 0,0.264583 -0.264583,0 -0.529167,0.08819 -0.79375,0.176388 -0.881944,0.176389 -1.058333,0.0882 -1.234723,0.176389 -1.234722,0.264583 -1.322917,0.176389 -1.322916,0.264583 -1.234722,0.176389 -1.234723,0.176389 -1.058333,0.176389 -0.881944,0.176389 -0.705556,0.08819 -0.529167,0.0882 -0.176389,0 -0.176388,-0.176389 -0.264584,-0.264584 -0.529166,-0.529166 -0.6173616,-0.617361 -0.7055555,-0.617361 -0.7055556,-0.79375 -0.8819444,-0.881945 -0.79375,-0.79375 -0.8819445,-0.8819443 -0.79375,-0.79375 -0.79375,-0.79375 L 3.3513889,6.9673611 2.7340278,6.4381944 2.2930556,5.9090278 2.0284722,5.6444444 1.8520833,5.4680556 l 0,-0.4409723 0,-0.7055555 0,-0.7055556 0,-0.6173611 0.2645834,0 0.5291666,0 0.79375,-0.088194 L 4.4979167,2.8222222 5.55625,2.7340278 6.7909722,2.6458333 8.1138889,2.5576389 9.525,2.4694444 10.847917,2.38125 l 1.322916,-0.088194 1.234723,-0.1763889 1.058333,-0.088195 0.970139,0 0.705555,-0.088194 0.529167,0 0.264583,-0.088194 0,0 z"
     id="path15"
     inkscape:connector-curvature="0" />
  <path
     style="fill:#000000;fill-opacity:1;fill-rule:evenodd;stroke:none"
     d="m 1.5875,6.35 0.6173611,3.6159722 0,0 0,0.088195 0.088195,0.08819 0,0.0882 8.2020834,6.879166 0.176389,0 0.08819,0 0.0882,0.08819 0.08819,0 14.640278,-2.645834 0.176389,-0.08819 0.08819,-0.0882 0.08819,-0.176388 0,-0.0882 0,-1.234722 -0.881945,0 0,0.08819 0,0.176389 0,0.352778 0,0.264583 -0.176389,0 -0.529166,0.08819 -0.79375,0.176389 -0.881945,0.176389 -1.058333,0.176388 -1.146528,0.176389 -1.234722,0.264584 -1.322917,0.176389 -1.322916,0.264583 -1.146528,0.176389 -1.146528,0.264583 -1.058333,0.176389 -0.881945,0.176389 -0.705555,0.08819 -0.440973,0.0882 -0.264583,0 -0.08819,-0.0882 L 10.495139,15.963194 10.142361,15.610417 9.6131944,15.169444 9.0840278,14.640278 8.3784722,14.111111 7.6729167,13.49375 6.9673611,12.964583 6.2618056,12.347222 5.55625,11.729861 4.8506944,11.200694 4.3215278,10.671528 3.7923611,10.31875 3.4395833,9.9659722 3.175,9.7013889 2.9986111,9.6131944 2.9104167,8.9958333 2.7340278,7.8493056 2.5576389,6.7027778 2.4694444,6.1736111 1.5875,6.35 l 0,0 z"
     id="path17"
     inkscape:connector-curvature="0" />
  <path
     style="fill:#000000;fill-opacity:1;fill-rule:evenodd;stroke:none"
     d="M 8.6430556,5.8208333 6.2618056,6.0854167 7.5847222,4.7625 l 1.0583334,1.0583333 0,0 z"
     id="path19"
     inkscape:connector-curvature="0" />
  <path
     style="fill:#ffffff;fill-opacity:1;fill-rule:evenodd;stroke:none"
     d="m 12.435417,5.4680556 5.820833,-0.5291667 3.615972,4.4097222 -5.55625,0.7055559 -3.880555,-4.5861114 0,0 z"
     id="path21"
     inkscape:connector-curvature="0" />
  <path
     style="fill:#ffbfbf;fill-opacity:1;fill-rule:evenodd;stroke:none"
     d="M 16.315972,10.142361 21.343056,9.4368056 17.991667,5.55625 l -5.203473,0.4409722 3.527778,4.1451388 0,0 0,0 z"
     id="path23"
     inkscape:connector-curvature="0" />
  <path
     style="fill:#ffffff;fill-opacity:1;fill-rule:evenodd;stroke:none"
     d="m 11.288889,3.2631944 5.115278,-0.4409722 1.058333,1.2347222 -4.850694,0.4409723 -1.322917,-1.2347223 0,0 z"
     id="path25"
     inkscape:connector-curvature="0" />
  <path
     style="fill:#ffbfbf;fill-opacity:1;fill-rule:evenodd;stroke:none"
     d="m 13.052778,4.5861111 3.96875,-0.3527778 -0.881945,-0.8819444 -4.145139,0.2645833 1.058334,0.9701389 0,0 z"
     id="path27"
     inkscape:connector-curvature="0" />
  <path
     style="fill:#000000;fill-opacity:1;fill-rule:evenodd;stroke:none"
     d="m 18.168056,4.7625 -5.732639,0.5291667 0.08819,0.4409722 0,0 0.176389,-0.088195 0.264583,0 0.352778,0 0.440972,-0.088194 0.440973,0 0.529166,-0.088194 0.529167,0 0.529167,0 0.440972,-0.088194 0.529166,0 0.440973,-0.088194 0.352777,0 0.264584,0 0.176389,-0.088195 0.08819,0 0.176389,0.1763889 0.352778,0.4409722 0.529166,0.6173611 0.529167,0.6173612 0.617361,0.6173611 0.529167,0.6173611 0.352778,0.5291666 0.264583,0.2645834 -0.08819,0.088194 -0.264584,0 -0.352778,0 -0.352777,0.088195 -0.440973,0.088194 -0.440972,0.088195 -0.440972,0 -0.440972,0.088194 -0.440972,0.088194 -0.440973,0 -0.352777,0.088195 -0.352778,0 -0.264584,0.088194 -0.264583,0 -0.08819,0.088195 -0.0882,0 0.0882,0.3527782 5.468055,-0.705556 0.08819,0 0.08819,-0.088194 0,0 0,-0.088195 0,0 0,-0.088194 0,-0.088195 0,0 -3.704167,-4.3215278 0,0 -0.08819,-0.088194 0,0 -0.08819,0 0,0 z"
     id="path29"
     inkscape:connector-curvature="0" />
  <path
     style="fill:#ffbfbf;fill-opacity:1;fill-rule:evenodd;stroke:none"
     d="m 12.347222,12.523611 3.96875,-0.705555 0.0882,-0.617362 -0.0882,-0.529166 0,-0.440972 0,-0.0882 L 15.698611,8.9958333 15.08125,7.9375 14.463889,6.8791667 13.846528,5.9972222 13.140972,5.2034722 12.523611,4.4979167 11.90625,3.8805556 11.288889,3.2631944 10.671528,2.8222222 10.142361,2.38125 9.7013889,2.0284722 9.2604167,1.7638889 8.9076389,1.4993056 8.6430556,1.4111111 8.4666667,1.3229167 l 0,0 -3.3513889,0.1763889 -0.088195,0 L 4.9388889,1.6756944 4.7625,1.8520833 4.4979167,2.0284722 4.3215278,2.2930556 4.0569444,2.5576389 3.8805556,2.9104167 l -0.088195,0.3527777 2.1166667,2.38125 0.088194,0 0.1763889,0.088195 0.1763889,0 0.1763889,-0.088195 0.8819444,-0.8819444 0.79375,0.6173611 0.6173611,0.6173611 0.6173612,0.6173611 0.4409722,0.6173611 0.3527782,0.5291667 0.176388,0.3527778 0.176389,0.2645833 0,0.088195 -0.352777,1.4111111 0,0.088194 0,0.1763888 0,0.264583 0.08819,0.264584 1.322917,1.499305 0.08819,0 0.0882,0.176389 0.264583,0.08819 0.264583,0.08819 0,0 z"
     id="path31"
     inkscape:connector-curvature="0" />
  <path
     style="fill:#ffffff;fill-opacity:1;fill-rule:evenodd;stroke:none"
     d="m 15.963194,9.4368056 -2.116666,0.2645833 -0.176389,0.088194 -0.264583,0 -0.176389,0 -0.176389,0 -0.176389,-0.088194 -0.08819,-0.088195 L 12.611806,9.525 12.523611,9.3486111 11.994444,8.3784722 11.465278,7.4965278 10.847917,6.6145833 10.31875,5.9090278 9.7013889,5.2034722 9.0840278,4.5861111 8.4666667,3.96875 7.8493056,3.5277778 7.3201389,3.0868056 6.7909722,2.6458333 6.35,2.38125 5.9090278,2.1166667 5.6444444,1.8520833 5.3798611,1.7638889 5.2034722,1.6756944 5.1152778,1.5875 8.6430556,1.3229167 l 0,0.088194 0.1763888,0.088194 0.2645834,0.1763888 0.3527778,0.1763889 0.4409722,0.2645834 0.4409722,0.4409722 0.529167,0.3527778 0.529166,0.5291666 0.617361,0.5291667 0.617362,0.6173611 0.617361,0.7055556 0.617361,0.7055555 0.617361,0.7055556 0.529167,0.8819444 0.529166,0.8819445 0.440972,0.9701389 0,0 z"
     id="path33"
     inkscape:connector-curvature="0" />
  <path
     style="fill:#000000;fill-opacity:1;fill-rule:evenodd;stroke:none"
     d="m 8.3784722,0.97013889 -3.3513889,0.26458331 0,0 -0.088194,0 0,0 -0.088195,0 L 4.7625,1.3229167 4.6743056,1.4111111 4.4979167,1.5875 4.2333333,1.8520833 4.0569444,2.1166667 3.7923611,2.4694444 3.6159722,2.8222222 l -0.088194,0.4409722 0,0.088194 0,0 0,0.088194 0.088194,0.088195 2.1166667,2.2930555 0.088194,0.088194 0.088194,0.088194 0.088194,0 0.1763889,0.088194 0.088195,0 0.1763888,0 0.1763889,-0.088194 0.088195,0 0,-0.088194 0.088194,0 0,0 0,0 0.088195,-0.088194 0.1763889,-0.1763889 0.1763888,-0.2645833 0.1763889,-0.1763889 0.7055556,0.4409722 0.5291667,0.5291667 0.4409722,0.5291667 0.3527778,0.5291666 0.3527777,0.4409723 0.1763889,0.3527777 0.1763888,0.2645834 0.0882,0.2645833 0,0.2645833 -0.176389,0.4409723 -0.088195,0.3527777 0,0.2645834 -0.088194,0 0,0.088194 0,0.088195 0,0.08819 0,0.176389 0.088194,0.176389 0,0.176389 0.1763888,0.176389 0,0 0,0 0,0 0,0 1.234722,1.499305 0.08819,0.08819 0,0.08819 0.176389,0.08819 0.08819,0.08819 0.176389,0 0.176389,0.08819 0.176389,0 0.176389,0 0.176389,0 0.440972,-0.08819 0.617361,-0.08819 0.79375,-0.176389 0.705555,-0.08819 0.617362,-0.08819 0.440972,-0.0882 0.176389,0 0.08819,-0.08819 0.0882,0 0.08819,-0.0882 0,-0.08819 0,-0.79375 -0.08819,-0.79375 -0.0882,-0.6173611 -0.08819,-0.2645833 0,0 0,-0.088195 0,0 0,0 L 15.875,8.2020833 15.257639,7.14375 14.552083,6.1736111 13.934722,5.2916667 13.317361,4.4979167 12.7,3.8805556 12.082639,3.2631944 11.465278,2.7340278 10.847917,2.2930556 10.31875,1.9402778 9.8777778,1.6756944 9.4368056,1.4111111 9.0840278,1.2347222 8.8194444,1.0583333 8.6430556,0.97013889 l -0.088195,0 -0.088194,0 0,0 0,0 -0.088195,0 0,0 z m 0,0.61736111 0.1763889,0.088194 0.1763889,0.088194 0.3527778,0.1763889 0.3527778,0.1763889 0.3527777,0.2645833 0.5291667,0.3527778 0.440972,0.3527778 0.529167,0.4409722 0.617361,0.4409722 0.529167,0.6173611 0.617361,0.6173611 0.529166,0.7055556 0.617362,0.79375 0.529166,0.8819444 0.617361,0.9701389 0.440973,1.0583333 0.08819,0.2645834 0.08819,0.5291662 0,0.529167 0.0882,0.617361 -0.264583,0.0882 -0.529167,0 -0.617361,0.08819 -0.617361,0.176389 -0.617361,0.08819 -0.529167,0.0882 -0.352778,0 -0.176389,0.08819 -0.176389,-0.08819 -0.176389,0 -0.08819,-0.0882 0,0 -0.08819,-0.08819 -0.0882,-0.176389 -0.264583,-0.264583 -0.176389,-0.264584 -0.176389,-0.264583 -0.264583,-0.176389 -0.0882,-0.176389 -0.08819,-0.08819 -0.0882,-0.0882 0,-0.08819 0,-0.08819 0,-0.0882 0,-0.08819 0,0 0,-0.088195 0,0 0.0882,-0.2645833 0.08819,-0.4409722 0.0882,-0.5291667 0.08819,-0.1763889 0,0 0,0 0,-0.088194 0,0 0,0 0,-0.088195 0,0 -0.08819,0 0,-0.1763889 L 10.671528,7.9375 10.406944,7.4965278 10.142361,7.0555556 9.6131944,6.4381944 9.0840278,5.8208333 8.3784722,5.1152778 l -0.79375,-0.6173611 -0.088194,-0.088195 -0.088195,0 -0.1763889,0.088195 -0.088194,0 L 7.0555556,4.6743056 6.7909722,4.9388889 6.5263889,5.2034722 6.35,5.3798611 l -0.088194,0 0,0 -0.088195,0 0,0 L 6.0854167,5.2916667 5.9090278,5.0270833 5.55625,4.7625 5.2034722,4.4097222 4.8506944,3.96875 4.5861111,3.6159722 4.3215278,3.3513889 4.1451389,3.2631944 4.2333333,2.9986111 4.4097222,2.7340278 4.5861111,2.5576389 4.6743056,2.38125 4.8506944,2.1166667 l 0.1763889,-0.088195 0.088195,-0.088194 0.088194,-0.088194 0.1763889,0 0.3527778,-0.088194 0.5291667,0 0.5291666,0 0.6173611,-0.088194 0.4409723,0 0.3527777,-0.088194 0.1763889,0 0,0 z"
     id="path35"
     inkscape:connector-curvature="0" />
  <path
     style="fill:#000000;fill-opacity:1;fill-rule:evenodd;stroke:none"
     d="m 16.404167,2.6458333 -5.115278,0.3527778 0.08819,0.4409722 0.176389,0 0.529167,0 0.79375,-0.088194 0.881944,-0.088194 0.881945,0 0.79375,-0.1763888 0.617361,0 0.264583,0 0.0882,0.088194 0.176389,0.1763889 0.264583,0.2645833 0.176389,0.2645834 -0.352778,0 -0.617361,0.088194 -0.705556,0.088194 -0.79375,0 -0.79375,0.088195 -0.617361,0.088194 -0.440972,0.088195 -0.176389,0 0.08819,0.3527778 4.850694,-0.3527778 0.08819,-0.088195 0.08819,0 0,-0.088194 0.08819,0 0,-0.088195 0,-0.088194 0,0 -0.08819,-0.088194 -1.058333,-1.1465278 -0.0882,-0.088194 0,0 -0.08819,0 0,0 0,0 z"
     id="path37"
     inkscape:connector-curvature="0" />
  <path
     style="fill:#000000;fill-opacity:1;fill-rule:evenodd;stroke:none"
     d="m 14.022917,12.259028 0.264583,0.529166 0.176389,0.705556 0.08819,0.617361 0,0.617361 -0.08819,0.970139 -0.176389,0.970139 -0.440972,0.881944 -0.440972,0.705556 -0.617362,0.617361 -0.705555,0.440972 -0.79375,0.264584 -0.79375,0.08819 -0.7937501,-0.08819 -0.79375,-0.264584 L 8.2020833,18.873611 7.6729167,18.25625 7.14375,17.550694 6.7027778,16.66875 6.5263889,15.698611 l -0.088194,-0.970139 0,-0.440972 0.088194,-0.440972 0.088194,-0.352778 0.088195,-0.440972 -0.6173611,-0.264584 -0.1763889,0.529167 -0.088194,0.440972 0,0.440973 0,0.529166 0.088194,1.146528 0.2645833,1.058333 0.4409722,0.881945 0.5291667,0.881944 0.7055556,0.705556 0.79375,0.529166 0.8819444,0.264584 0.970139,0.176389 0.970139,-0.176389 0.881944,-0.264584 0.79375,-0.529166 0.705556,-0.705556 0.529166,-0.881944 0.440973,-0.881945 0.264583,-1.058333 0.08819,-1.146528 0,-0.705555 -0.176388,-0.705556 -0.176389,-0.705555 -0.264584,-0.617362 -0.529166,0.264584 0,0 z"
     id="path39"
     inkscape:connector-curvature="0" />
</svg>
