<?xml version="1.0" encoding="UTF-8" standalone="no"?>
<svg
   xmlns:dc="http://purl.org/dc/elements/1.1/"
   xmlns:cc="http://creativecommons.org/ns#"
   xmlns:rdf="http://www.w3.org/1999/02/22-rdf-syntax-ns#"
   xmlns:svg="http://www.w3.org/2000/svg"
   xmlns="http://www.w3.org/2000/svg"
   xmlns:sodipodi="http://sodipodi.sourceforge.net/DTD/sodipodi-0.dtd"
   xmlns:inkscape="http://www.inkscape.org/namespaces/inkscape"
   version="1.0"
   width="17.204266mm"
   height="23.029333mm"
   id="svg2"
   inkscape:version="0.91 r13725"
   viewBox="0 0 17.204266 23.029333"
   sodipodi:docname="MesaCuadrada2Vert_p.svg">
  <metadata
     id="metadata33">
    <rdf:RDF>
      <cc:Work
         rdf:about="">
        <dc:format>image/svg+xml</dc:format>
        <dc:type
           rdf:resource="http://purl.org/dc/dcmitype/StillImage" />
        <dc:title></dc:title>
      </cc:Work>
    </rdf:RDF>
  </metadata>
  <sodipodi:namedview
     pagecolor="#ffffff"
     bordercolor="#666666"
     borderopacity="1"
     objecttolerance="10"
     gridtolerance="10"
     guidetolerance="10"
     inkscape:pageopacity="0"
     inkscape:pageshadow="2"
     inkscape:window-width="640"
     inkscape:window-height="480"
     id="namedview31"
     inkscape:document-units="mm"
     showgrid="false"
     inkscape:zoom="2.8921569"
     inkscape:cx="30.479998"
     inkscape:cy="40.8"
     inkscape:window-x="0"
     inkscape:window-y="0"
     inkscape:window-maximized="0"
     inkscape:current-layer="svg2" />
  <defs
     id="defs4">
    <pattern
       id="EMFhbasepattern"
       patternUnits="userSpaceOnUse"
       width="6"
       height="6"
       x="0"
       y="0" />
  </defs>
  <path
     style="fill:#6d4c29;fill-opacity:1;fill-rule:evenodd;stroke:none"
     d="m 10.054167,19.931944 0.352777,0 0,-2.028472 -0.352777,0 0,2.028472 0,0 z"
     id="path7"
     inkscape:connector-curvature="0" />
  <path
     style="fill:#6d4c29;fill-opacity:1;fill-rule:evenodd;stroke:none"
     d="m 6.9673611,19.931944 0.3527778,0 0,-2.028472 -0.3527778,0 0,2.028472 0,0 z"
     id="path9"
     inkscape:connector-curvature="0" />
  <path
     style="fill:#6d4c29;fill-opacity:1;fill-rule:evenodd;stroke:none"
     d="m 8.2902778,20.108333 0,2.645834 0.5291666,0 0,-2.645834 -0.5291666,0 0,0 z"
     id="path11"
     inkscape:connector-curvature="0" />
  <path
     style="fill:#919191;fill-opacity:1;fill-rule:evenodd;stroke:#6d6d6d;stroke-width:0.35277778px;stroke-linecap:butt;stroke-linejoin:miter;stroke-miterlimit:4;stroke-dasharray:none;stroke-opacity:1"
     d="m 11.200694,20.196528 c 0,1.146528 -1.2347218,2.028472 -2.6458329,2.028472 -1.4993055,0 -2.6458333,-0.881944 -2.6458333,-2.028472 0,-1.852084 1.1465278,-1.675695 2.5576389,-1.675695 1.4993055,0 2.7340273,-0.176389 2.7340273,1.675695 z"
     id="path13"
     inkscape:connector-curvature="0" />
  <path
     style="fill:#919191;fill-opacity:1;fill-rule:evenodd;stroke:#6d6d6d;stroke-width:0.35277778px;stroke-linecap:butt;stroke-linejoin:miter;stroke-miterlimit:4;stroke-dasharray:none;stroke-opacity:1"
     d="m 11.288889,21.872222 c 0,0.352778 -1.234722,1.058334 -2.7340279,1.058334 -1.4111111,0 -2.6458333,-0.705556 -2.6458333,-1.146528 0.088194,-0.705556 1.1465278,0.264583 2.5576389,0.264583 1.4993055,0 2.7340273,-0.881944 2.8222223,-0.176389 z"
     id="path15"
     inkscape:connector-curvature="0" />
  <path
     style="fill:#6d4c29;fill-opacity:1;fill-rule:evenodd;stroke:none"
     d="m 7.14375,3.175 -0.4409722,0 0,2.0284722 0.4409722,0 0,-2.0284722 0,0 z"
     id="path17"
     inkscape:connector-curvature="0" />
  <path
     style="fill:#6d4c29;fill-opacity:1;fill-rule:evenodd;stroke:none"
     d="m 10.142361,3.175 -0.3527777,0 0,2.0284722 0.3527777,0 0,-2.0284722 0,0 z"
     id="path19"
     inkscape:connector-curvature="0" />
  <path
     style="fill:#6d4c29;fill-opacity:1;fill-rule:evenodd;stroke:none"
     d="m 8.8194444,2.9986111 0,-2.64583332 -0.4409722,0 0,2.64583332 0.4409722,0 0,0 z"
     id="path21"
     inkscape:connector-curvature="0" />
  <path
     style="fill:#919191;fill-opacity:1;fill-rule:evenodd;stroke:#6d6d6d;stroke-width:0.35277778px;stroke-linecap:butt;stroke-linejoin:miter;stroke-miterlimit:4;stroke-dasharray:none;stroke-opacity:1"
     d="m 5.9090278,2.9104167 c 0,-1.1465278 1.2347222,-2.02847226 2.6458333,-2.02847226 1.4993059,0 2.7340279,0.88194446 2.7340279,2.02847226 C 11.200694,4.7625 10.142361,4.5861111 8.6430556,4.5861111 7.14375,4.5861111 5.9090278,4.7625 5.9090278,2.9104167 Z"
     id="path23"
     inkscape:connector-curvature="0" />
  <path
     style="fill:#919191;fill-opacity:1;fill-rule:evenodd;stroke:#6d6d6d;stroke-width:0.35277778px;stroke-linecap:butt;stroke-linejoin:miter;stroke-miterlimit:4;stroke-dasharray:none;stroke-opacity:1"
     d="m 5.9090278,1.2347222 c 0,-0.35277776 1.1465278,-1.05833331 2.6458333,-1.05833331 1.4111111,0 2.6458329,0.70555555 2.6458329,1.14652781 0,0.7055555 -1.058333,-0.2645834 -2.5576384,-0.2645834 -1.4993056,0 -2.7340278,0.8819445 -2.7340278,0.1763889 z"
     id="path25"
     inkscape:connector-curvature="0" />
  <path
     style="fill:#7fa1c9;fill-opacity:1;fill-rule:evenodd;stroke:none"
     d="m 17.197917,17.550694 c 0,1.234723 -1.058334,2.293056 -2.293056,2.293056 -12.6999999,0 -12.6999999,0 -12.6999999,0 C 0.97013889,19.84375 0,18.785417 0,17.550694 0,5.55625 0,5.55625 0,5.55625 0,4.2333333 0.97013889,3.2631944 2.2048611,3.2631944 c 12.6999999,0 12.6999999,0 12.6999999,0 1.234722,0 2.293056,0.9701389 2.293056,2.2930556 z"
     id="path27"
     inkscape:connector-curvature="0" />
  <path
     style="fill:#7fb2ff;fill-opacity:1;fill-rule:evenodd;stroke:none"
     d="m 16.139583,16.66875 c 0,1.146528 -0.881944,2.116667 -2.028472,2.116667 -11.6416666,0 -11.6416666,0 -11.6416666,0 -1.1465277,0 -2.11666662,-0.970139 -2.11666662,-2.116667 0,-11.0243056 0,-11.0243056 0,-11.0243056 0,-1.1465277 0.97013892,-2.0284722 2.11666662,-2.0284722 11.6416666,0 11.6416666,0 11.6416666,0 1.146528,0 2.028472,0.8819445 2.028472,2.0284722 z"
     id="path29"
     inkscape:connector-curvature="0" />
</svg>
