<?xml version="1.0" encoding="UTF-8" standalone="no"?>
<svg
   xmlns:dc="http://purl.org/dc/elements/1.1/"
   xmlns:cc="http://creativecommons.org/ns#"
   xmlns:rdf="http://www.w3.org/1999/02/22-rdf-syntax-ns#"
   xmlns:svg="http://www.w3.org/2000/svg"
   xmlns="http://www.w3.org/2000/svg"
   xmlns:sodipodi="http://sodipodi.sourceforge.net/DTD/sodipodi-0.dtd"
   xmlns:inkscape="http://www.inkscape.org/namespaces/inkscape"
   version="1.0"
   width="23.2918mm"
   height="23.029333mm"
   id="svg2"
   inkscape:version="0.91 r13725"
   viewBox="0 0 23.2918 23.029333"
   sodipodi:docname="MesaC4_o.svg">
  <metadata
     id="metadata53">
    <rdf:RDF>
      <cc:Work
         rdf:about="">
        <dc:format>image/svg+xml</dc:format>
        <dc:type
           rdf:resource="http://purl.org/dc/dcmitype/StillImage" />
        <dc:title></dc:title>
      </cc:Work>
    </rdf:RDF>
  </metadata>
  <sodipodi:namedview
     pagecolor="#ffffff"
     bordercolor="#666666"
     borderopacity="1"
     objecttolerance="10"
     gridtolerance="10"
     guidetolerance="10"
     inkscape:pageopacity="0"
     inkscape:pageshadow="2"
     inkscape:window-width="640"
     inkscape:window-height="480"
     id="namedview51"
     inkscape:document-units="mm"
     showgrid="false"
     inkscape:zoom="2.8921569"
     inkscape:cx="41.264999"
     inkscape:cy="40.8"
     inkscape:window-x="0"
     inkscape:window-y="0"
     inkscape:window-maximized="0"
     inkscape:current-layer="svg2" />
  <defs
     id="defs4">
    <pattern
       id="EMFhbasepattern"
       patternUnits="userSpaceOnUse"
       width="6"
       height="6"
       x="0"
       y="0" />
  </defs>
  <path
     style="fill:#6d4d2a;fill-opacity:1;fill-rule:evenodd;stroke:none"
     d="m 20.020139,10.054167 0,-0.3527781 -2.028472,0 0,0.3527781 2.028472,0 0,0 z"
     id="path7"
     inkscape:connector-curvature="0" />
  <path
     style="fill:#6d4d2a;fill-opacity:1;fill-rule:evenodd;stroke:none"
     d="m 20.020139,13.140972 0,-0.352778 -2.028472,0 0,0.352778 2.028472,0 0,0 z"
     id="path9"
     inkscape:connector-curvature="0" />
  <path
     style="fill:#6d4d2a;fill-opacity:1;fill-rule:evenodd;stroke:none"
     d="m 20.196528,11.818056 2.645833,0 0,-0.529167 -2.645833,0 0,0.529167 0,0 z"
     id="path11"
     inkscape:connector-curvature="0" />
  <path
     style="fill:#919190;fill-opacity:1;fill-rule:evenodd;stroke:#6e6d6d;stroke-width:0.35277778px;stroke-linecap:butt;stroke-linejoin:miter;stroke-miterlimit:4;stroke-dasharray:none;stroke-opacity:1"
     d="m 20.284722,8.9076389 c 1.146528,0 2.028472,1.2347221 2.028472,2.6458331 0,1.499306 -0.881944,2.645834 -2.028472,2.645834 -1.763889,0 -1.675694,-1.058334 -1.675694,-2.557639 0,-1.499306 -0.176389,-2.7340281 1.675694,-2.7340281 z"
     id="path13"
     inkscape:connector-curvature="0" />
  <path
     style="fill:#919190;fill-opacity:1;fill-rule:evenodd;stroke:#6e6d6d;stroke-width:0.35277778px;stroke-linecap:butt;stroke-linejoin:miter;stroke-miterlimit:4;stroke-dasharray:none;stroke-opacity:1"
     d="m 21.960417,8.9076389 c 0.440972,0 1.058333,1.1465281 1.058333,2.6458331 0,1.411111 -0.705556,2.645834 -1.146528,2.645834 -0.705555,0 0.264584,-1.058334 0.264584,-2.557639 0,-1.499306 -0.881945,-2.7340281 -0.176389,-2.7340281 z"
     id="path15"
     inkscape:connector-curvature="0" />
  <path
     style="fill:#6d4d2a;fill-opacity:1;fill-rule:evenodd;stroke:none"
     d="m 3.2631944,13.052778 0,0.352778 2.0284723,0 0,-0.352778 -2.0284723,0 0,0 z"
     id="path17"
     inkscape:connector-curvature="0" />
  <path
     style="fill:#6d4d2a;fill-opacity:1;fill-rule:evenodd;stroke:none"
     d="m 3.2631944,9.9659722 0,0.3527778 2.0284723,0 0,-0.3527778 -2.0284723,0 0,0 z"
     id="path19"
     inkscape:connector-curvature="0" />
  <path
     style="fill:#6d4d2a;fill-opacity:1;fill-rule:evenodd;stroke:none"
     d="m 3.0868056,11.288889 -2.64583338,0 0,0.529167 2.64583338,0 0,-0.529167 0,0 z"
     id="path21"
     inkscape:connector-curvature="0" />
  <path
     style="fill:#919190;fill-opacity:1;fill-rule:evenodd;stroke:#6e6d6d;stroke-width:0.35277778px;stroke-linecap:butt;stroke-linejoin:miter;stroke-miterlimit:4;stroke-dasharray:none;stroke-opacity:1"
     d="m 2.9986111,14.199306 c -1.1465278,0 -2.02847221,-1.234723 -2.02847221,-2.645834 0,-1.499305 0.88194441,-2.6458331 2.02847221,-2.6458331 1.8520833,0 1.6756945,1.1465281 1.6756945,2.5576391 0,1.499305 0.1763888,2.734028 -1.6756945,2.734028 z"
     id="path23"
     inkscape:connector-curvature="0" />
  <path
     style="fill:#919190;fill-opacity:1;fill-rule:evenodd;stroke:#6e6d6d;stroke-width:0.35277778px;stroke-linecap:butt;stroke-linejoin:miter;stroke-miterlimit:4;stroke-dasharray:none;stroke-opacity:1"
     d="m 1.3229167,14.199306 c -0.35277781,0 -1.05833337,-1.146528 -1.05833337,-2.645834 0,-1.411111 0.70555556,-2.6458331 1.14652777,-2.6458331 0.7055556,0 -0.2645833,1.0583333 -0.2645833,2.5576391 0,1.499305 0.8819444,2.734028 0.1763889,2.734028 z"
     id="path25"
     inkscape:connector-curvature="0" />
  <path
     style="fill:#6d4d2a;fill-opacity:1;fill-rule:evenodd;stroke:none"
     d="m 13.140972,19.931944 0.352778,0 0,-2.028472 -0.352778,0 0,2.028472 0,0 z"
     id="path27"
     inkscape:connector-curvature="0" />
  <path
     style="fill:#6d4d2a;fill-opacity:1;fill-rule:evenodd;stroke:none"
     d="m 10.054167,19.931944 0.352777,0 0,-2.028472 -0.352777,0 0,2.028472 0,0 z"
     id="path29"
     inkscape:connector-curvature="0" />
  <path
     style="fill:#6d4d2a;fill-opacity:1;fill-rule:evenodd;stroke:none"
     d="m 11.377083,20.108333 0,2.645834 0.529167,0 0,-2.645834 -0.529167,0 0,0 z"
     id="path31"
     inkscape:connector-curvature="0" />
  <path
     style="fill:#919190;fill-opacity:1;fill-rule:evenodd;stroke:#6e6d6d;stroke-width:0.35277778px;stroke-linecap:butt;stroke-linejoin:miter;stroke-miterlimit:4;stroke-dasharray:none;stroke-opacity:1"
     d="m 14.2875,20.196528 c 0,1.146528 -1.234722,2.028472 -2.645833,2.028472 -1.499306,0 -2.6458337,-0.881944 -2.6458337,-2.028472 0,-1.852084 1.1465277,-1.675695 2.5576387,-1.675695 1.499306,0 2.734028,-0.176389 2.734028,1.675695 z"
     id="path33"
     inkscape:connector-curvature="0" />
  <path
     style="fill:#919190;fill-opacity:1;fill-rule:evenodd;stroke:#6e6d6d;stroke-width:0.35277778px;stroke-linecap:butt;stroke-linejoin:miter;stroke-miterlimit:4;stroke-dasharray:none;stroke-opacity:1"
     d="m 14.375694,21.872222 c 0,0.352778 -1.234722,1.058334 -2.734027,1.058334 -1.411111,0 -2.6458337,-0.705556 -2.6458337,-1.146528 0.088195,-0.705556 1.1465277,0.264583 2.5576387,0.264583 1.499306,0 2.734028,-0.881944 2.822222,-0.176389 z"
     id="path35"
     inkscape:connector-curvature="0" />
  <path
     style="fill:#6d4d2a;fill-opacity:1;fill-rule:evenodd;stroke:none"
     d="m 10.230556,3.175 -0.4409727,0 0,2.0284722 0.4409727,0 0,-2.0284722 0,0 z"
     id="path37"
     inkscape:connector-curvature="0" />
  <path
     style="fill:#6d4d2a;fill-opacity:1;fill-rule:evenodd;stroke:none"
     d="m 13.229167,3.175 -0.352778,0 0,2.0284722 0.352778,0 0,-2.0284722 0,0 z"
     id="path39"
     inkscape:connector-curvature="0" />
  <path
     style="fill:#6d4d2a;fill-opacity:1;fill-rule:evenodd;stroke:none"
     d="m 11.90625,2.9986111 0,-2.64583332 -0.440972,0 0,2.64583332 0.440972,0 0,0 z"
     id="path41"
     inkscape:connector-curvature="0" />
  <path
     style="fill:#919190;fill-opacity:1;fill-rule:evenodd;stroke:#6e6d6d;stroke-width:0.35277778px;stroke-linecap:butt;stroke-linejoin:miter;stroke-miterlimit:4;stroke-dasharray:none;stroke-opacity:1"
     d="m 8.9958333,2.9104167 c 0,-1.1465278 1.2347227,-2.02847226 2.6458337,-2.02847226 1.499305,0 2.734027,0.88194446 2.734027,2.02847226 -0.08819,1.8520833 -1.146527,1.6756944 -2.645833,1.6756944 -1.499305,0 -2.7340277,0.1763889 -2.7340277,-1.6756944 z"
     id="path43"
     inkscape:connector-curvature="0" />
  <path
     style="fill:#919190;fill-opacity:1;fill-rule:evenodd;stroke:#6e6d6d;stroke-width:0.35277778px;stroke-linecap:butt;stroke-linejoin:miter;stroke-miterlimit:4;stroke-dasharray:none;stroke-opacity:1"
     d="m 8.9958333,1.2347222 c 0,-0.35277776 1.1465277,-1.05833331 2.6458337,-1.05833331 1.411111,0 2.645833,0.70555555 2.645833,1.14652781 0,0.7055555 -1.058333,-0.2645834 -2.557639,-0.2645834 -1.499305,0 -2.7340277,0.8819445 -2.7340277,0.1763889 z"
     id="path45"
     inkscape:connector-curvature="0" />
  <path
     style="fill:#80a1c8;fill-opacity:1;fill-rule:evenodd;stroke:none"
     d="m 20.284722,17.550694 c 0,1.234723 -1.058333,2.293056 -2.293055,2.293056 -12.7000003,0 -12.7000003,0 -12.7000003,0 -1.2347223,0 -2.2048611,-1.058333 -2.2048611,-2.293056 0,-11.994444 0,-11.994444 0,-11.994444 0,-1.3229167 0.9701388,-2.2930556 2.2048611,-2.2930556 12.7000003,0 12.7000003,0 12.7000003,0 1.234722,0 2.293055,0.9701389 2.293055,2.2930556 z"
     id="path47"
     inkscape:connector-curvature="0" />
  <path
     style="fill:#e8afaf;fill-opacity:1;fill-rule:evenodd;stroke:none"
     d="m 19.226389,16.66875 c 0,1.146528 -0.881945,2.116667 -2.028472,2.116667 -11.641667,0 -11.641667,0 -11.641667,0 -1.1465278,0 -2.1166667,-0.970139 -2.1166667,-2.116667 0,-11.0243056 0,-11.0243056 0,-11.0243056 0,-1.1465277 0.9701389,-2.0284722 2.1166667,-2.0284722 11.641667,0 11.641667,0 11.641667,0 1.146527,0 2.028472,0.8819445 2.028472,2.0284722 z"
     id="path49"
     inkscape:connector-curvature="0" />
</svg>
