<?xml version="1.0" encoding="UTF-8" standalone="no"?>
<svg
   xmlns:dc="http://purl.org/dc/elements/1.1/"
   xmlns:cc="http://creativecommons.org/ns#"
   xmlns:rdf="http://www.w3.org/1999/02/22-rdf-syntax-ns#"
   xmlns:svg="http://www.w3.org/2000/svg"
   xmlns="http://www.w3.org/2000/svg"
   xmlns:sodipodi="http://sodipodi.sourceforge.net/DTD/sodipodi-0.dtd"
   xmlns:inkscape="http://www.inkscape.org/namespaces/inkscape"
   version="1.0"
   width="40.487598mm"
   height="22.495934mm"
   id="svg2"
   inkscape:version="0.91 r13725"
   viewBox="0 0 40.487598 22.495934"
   sodipodi:docname="MesaT6H_o.svg">
  <metadata
     id="metadata73">
    <rdf:RDF>
      <cc:Work
         rdf:about="">
        <dc:format>image/svg+xml</dc:format>
        <dc:type
           rdf:resource="http://purl.org/dc/dcmitype/StillImage" />
        <dc:title></dc:title>
      </cc:Work>
    </rdf:RDF>
  </metadata>
  <sodipodi:namedview
     pagecolor="#ffffff"
     bordercolor="#666666"
     borderopacity="1"
     objecttolerance="10"
     gridtolerance="10"
     guidetolerance="10"
     inkscape:pageopacity="0"
     inkscape:pageshadow="2"
     inkscape:window-width="640"
     inkscape:window-height="480"
     id="namedview71"
     inkscape:document-units="mm"
     showgrid="false"
     inkscape:zoom="2.432734"
     inkscape:cx="71.729997"
     inkscape:cy="39.855"
     inkscape:window-x="0"
     inkscape:window-y="0"
     inkscape:window-maximized="0"
     inkscape:current-layer="svg2" />
  <defs
     id="defs4">
    <pattern
       id="EMFhbasepattern"
       patternUnits="userSpaceOnUse"
       width="6"
       height="6"
       x="0"
       y="0" />
  </defs>
  <path
     style="fill:#6d4d2a;fill-opacity:1;fill-rule:evenodd;stroke:none"
     d="m 37.306391,9.8777778 0,-0.3527778 -2.028613,0 0,0.3527778 2.028613,0 0,0 z"
     id="path7"
     inkscape:connector-curvature="0" />
  <path
     style="fill:#6d4d2a;fill-opacity:1;fill-rule:evenodd;stroke:none"
     d="m 37.306391,12.964583 0,-0.352777 -2.028613,0 0,0.352777 2.028613,0 0,0 z"
     id="path9"
     inkscape:connector-curvature="0" />
  <path
     style="fill:#6d4d2a;fill-opacity:1;fill-rule:evenodd;stroke:none"
     d="m 37.482498,11.641667 2.645833,0 0,-0.529167 -2.645833,0 0,0.529167 0,0 z"
     id="path11"
     inkscape:connector-curvature="0" />
  <path
     style="fill:#919190;fill-opacity:1;fill-rule:evenodd;stroke:#6e6d6d;stroke-width:0.35277778px;stroke-linecap:butt;stroke-linejoin:miter;stroke-miterlimit:4;stroke-dasharray:none;stroke-opacity:1"
     d="m 37.570833,8.73125 c 1.146669,0 2.028331,1.2347222 2.028331,2.645833 0,1.499306 -0.881662,2.645834 -2.028331,2.645834 -1.763889,0 -1.675835,-1.146528 -1.675835,-2.557639 0,-1.4993058 -0.176389,-2.734028 1.675835,-2.734028 z"
     id="path13"
     inkscape:connector-curvature="0" />
  <path
     style="fill:#919190;fill-opacity:1;fill-rule:evenodd;stroke:#6e6d6d;stroke-width:0.35277778px;stroke-linecap:butt;stroke-linejoin:miter;stroke-miterlimit:4;stroke-dasharray:none;stroke-opacity:1"
     d="m 39.246387,8.73125 c 0.441113,0 1.058333,1.1465278 1.058333,2.645833 0,1.411111 -0.705556,2.645834 -1.146387,2.645834 -0.617502,0 0.352778,-1.058334 0.352778,-2.557639 0,-1.4993058 -0.97028,-2.734028 -0.264724,-2.734028 z"
     id="path15"
     inkscape:connector-curvature="0" />
  <path
     style="fill:#6d4d2a;fill-opacity:1;fill-rule:evenodd;stroke:none"
     d="m 3.175,12.788194 0,0.440973 2.0284722,0 0,-0.440973 -2.0284722,0 0,0 z"
     id="path17"
     inkscape:connector-curvature="0" />
  <path
     style="fill:#6d4d2a;fill-opacity:1;fill-rule:evenodd;stroke:none"
     d="m 3.175,9.7895833 0,0.3527777 2.0284722,0 0,-0.3527777 -2.0284722,0 0,0 z"
     id="path19"
     inkscape:connector-curvature="0" />
  <path
     style="fill:#6d4d2a;fill-opacity:1;fill-rule:evenodd;stroke:none"
     d="m 3.0868056,11.1125 -2.73402782,0 0,0.529167 2.73402782,0 0,-0.529167 0,0 z"
     id="path21"
     inkscape:connector-curvature="0" />
  <path
     style="fill:#919190;fill-opacity:1;fill-rule:evenodd;stroke:#6e6d6d;stroke-width:0.35277778px;stroke-linecap:butt;stroke-linejoin:miter;stroke-miterlimit:4;stroke-dasharray:none;stroke-opacity:1"
     d="m 2.9986111,14.022917 c -1.1465278,0 -2.11666666,-1.234723 -2.11666666,-2.645834 0,-1.4993052 0.97013886,-2.7340274 2.11666666,-2.645833 1.7638889,0 1.6756945,1.0583333 1.6756945,2.557639 0,1.499305 0.088194,2.734028 -1.6756945,2.734028 z"
     id="path23"
     inkscape:connector-curvature="0" />
  <path
     style="fill:#919190;fill-opacity:1;fill-rule:evenodd;stroke:#6e6d6d;stroke-width:0.35277778px;stroke-linecap:butt;stroke-linejoin:miter;stroke-miterlimit:4;stroke-dasharray:none;stroke-opacity:1"
     d="m 1.3229167,14.022917 c -0.44097226,0 -1.14652781,-1.146528 -1.14652781,-2.645834 0,-1.4111108 0.79375,-2.645833 1.14652781,-2.645833 0.7055555,0 -0.2645834,1.0583333 -0.2645834,2.557639 0,1.499305 0.9701389,2.734028 0.2645834,2.734028 z"
     id="path25"
     inkscape:connector-curvature="0" />
  <path
     style="fill:#6d4d2a;fill-opacity:1;fill-rule:evenodd;stroke:none"
     d="m 29.368609,19.314583 0.441113,0 0,-2.028472 -0.441113,0 0,2.028472 0,0 z"
     id="path27"
     inkscape:connector-curvature="0" />
  <path
     style="fill:#6d4d2a;fill-opacity:1;fill-rule:evenodd;stroke:none"
     d="m 26.370139,19.314583 0.352778,0 0,-2.028472 -0.352778,0 0,2.028472 0,0 z"
     id="path29"
     inkscape:connector-curvature="0" />
  <path
     style="fill:#6d4d2a;fill-opacity:1;fill-rule:evenodd;stroke:none"
     d="m 27.693056,19.490972 0,2.645834 0.440972,0 0,-2.645834 -0.440972,0 0,0 z"
     id="path31"
     inkscape:connector-curvature="0" />
  <path
     style="fill:#919190;fill-opacity:1;fill-rule:evenodd;stroke:#6e6d6d;stroke-width:0.35277778px;stroke-linecap:butt;stroke-linejoin:miter;stroke-miterlimit:4;stroke-dasharray:none;stroke-opacity:1"
     d="m 30.603331,19.579167 c 0,1.146527 -1.234722,2.028472 -2.733887,2.028472 -1.411111,0 -2.645833,-0.881945 -2.645833,-2.028472 0,-1.763889 1.146528,-1.675695 2.645833,-1.675695 1.499165,0 2.733887,-0.176389 2.733887,1.675695 z"
     id="path33"
     inkscape:connector-curvature="0" />
  <path
     style="fill:#919190;fill-opacity:1;fill-rule:evenodd;stroke:#6e6d6d;stroke-width:0.35277778px;stroke-linecap:butt;stroke-linejoin:miter;stroke-miterlimit:4;stroke-dasharray:none;stroke-opacity:1"
     d="m 30.603331,21.254861 c 0,0.440972 -1.146387,1.146528 -2.645692,1.146528 -1.411111,0 -2.645833,-0.79375 -2.645833,-1.234722 0,-0.617361 1.058333,0.352777 2.557638,0.352777 1.411112,0 2.733887,-0.970138 2.733887,-0.264583 z"
     id="path35"
     inkscape:connector-curvature="0" />
  <path
     style="fill:#6d4d2a;fill-opacity:1;fill-rule:evenodd;stroke:none"
     d="m 26.19375,3.2631944 -0.352778,0 0,2.0284723 0.352778,0 0,-2.0284723 0,0 z"
     id="path37"
     inkscape:connector-curvature="0" />
  <path
     style="fill:#6d4d2a;fill-opacity:1;fill-rule:evenodd;stroke:none"
     d="m 29.280556,3.2631944 -0.352778,0 0,2.0284723 0.352778,0 0,-2.0284723 0,0 z"
     id="path39"
     inkscape:connector-curvature="0" />
  <path
     style="fill:#6d4d2a;fill-opacity:1;fill-rule:evenodd;stroke:none"
     d="m 27.957639,3.0868056 0,-2.64583338 -0.529167,0 0,2.64583338 0.529167,0 0,0 z"
     id="path41"
     inkscape:connector-curvature="0" />
  <path
     style="fill:#919190;fill-opacity:1;fill-rule:evenodd;stroke:#6e6d6d;stroke-width:0.35277778px;stroke-linecap:butt;stroke-linejoin:miter;stroke-miterlimit:4;stroke-dasharray:none;stroke-opacity:1"
     d="m 25.047222,2.9986111 c 0,-1.1465278 1.234722,-2.02847221 2.645834,-2.02847221 1.499446,0 2.645833,0.88194441 2.645833,2.02847221 0,1.8520833 -1.146387,1.6756945 -2.557639,1.6756945 -1.499306,0 -2.734028,0.1763888 -2.734028,-1.6756945 z"
     id="path43"
     inkscape:connector-curvature="0" />
  <path
     style="fill:#919190;fill-opacity:1;fill-rule:evenodd;stroke:#6e6d6d;stroke-width:0.35277778px;stroke-linecap:butt;stroke-linejoin:miter;stroke-miterlimit:4;stroke-dasharray:none;stroke-opacity:1"
     d="m 24.959028,1.3229167 c 0,-0.35277781 1.234722,-1.05833337 2.734028,-1.05833337 1.411111,0 2.645833,0.70555556 2.645833,1.14652777 -0.08805,0.7055556 -1.146387,-0.2645833 -2.557639,-0.2645833 -1.499306,0 -2.734028,0.8819444 -2.822222,0.1763889 z"
     id="path45"
     inkscape:connector-curvature="0" />
  <path
     style="fill:#6d4d2a;fill-opacity:1;fill-rule:evenodd;stroke:none"
     d="m 15.786806,19.314583 0.440972,0 0,-2.028472 -0.440972,0 0,2.028472 0,0 z"
     id="path47"
     inkscape:connector-curvature="0" />
  <path
     style="fill:#6d4d2a;fill-opacity:1;fill-rule:evenodd;stroke:none"
     d="m 12.788194,19.314583 0.352778,0 0,-2.028472 -0.352778,0 0,2.028472 0,0 z"
     id="path49"
     inkscape:connector-curvature="0" />
  <path
     style="fill:#6d4d2a;fill-opacity:1;fill-rule:evenodd;stroke:none"
     d="m 14.022917,19.490972 0,2.645834 0.529166,0 0,-2.645834 -0.529166,0 0,0 z"
     id="path51"
     inkscape:connector-curvature="0" />
  <path
     style="fill:#919190;fill-opacity:1;fill-rule:evenodd;stroke:#6e6d6d;stroke-width:0.35277778px;stroke-linecap:butt;stroke-linejoin:miter;stroke-miterlimit:4;stroke-dasharray:none;stroke-opacity:1"
     d="m 16.933333,19.579167 c 0,1.146527 -1.146527,2.028472 -2.645833,2.028472 -1.411111,0 -2.645833,-0.881945 -2.645833,-2.028472 0,-1.763889 1.146527,-1.675695 2.645833,-1.675695 1.411111,0 2.645833,-0.176389 2.645833,1.675695 z"
     id="path53"
     inkscape:connector-curvature="0" />
  <path
     style="fill:#919190;fill-opacity:1;fill-rule:evenodd;stroke:#6e6d6d;stroke-width:0.35277778px;stroke-linecap:butt;stroke-linejoin:miter;stroke-miterlimit:4;stroke-dasharray:none;stroke-opacity:1"
     d="m 17.021528,21.254861 c 0,0.440972 -1.146528,1.146528 -2.645834,1.146528 -1.499305,0 -2.645833,-0.79375 -2.645833,-1.234722 0,-0.617361 1.058333,0.352777 2.557639,0.352777 1.411111,0 2.734028,-0.970138 2.734028,-0.264583 z"
     id="path55"
     inkscape:connector-curvature="0" />
  <path
     style="fill:#6d4d2a;fill-opacity:1;fill-rule:evenodd;stroke:none"
     d="m 12.611806,3.2631944 -0.352778,0 0,2.0284723 0.352778,0 0,-2.0284723 0,0 z"
     id="path57"
     inkscape:connector-curvature="0" />
  <path
     style="fill:#6d4d2a;fill-opacity:1;fill-rule:evenodd;stroke:none"
     d="m 15.698611,3.2631944 -0.440972,0 0,2.0284723 0.440972,0 0,-2.0284723 0,0 z"
     id="path59"
     inkscape:connector-curvature="0" />
  <path
     style="fill:#6d4d2a;fill-opacity:1;fill-rule:evenodd;stroke:none"
     d="m 14.375694,3.0868056 0,-2.64583338 -0.529166,0 0,2.64583338 0.529166,0 0,0 z"
     id="path61"
     inkscape:connector-curvature="0" />
  <path
     style="fill:#919190;fill-opacity:1;fill-rule:evenodd;stroke:#6e6d6d;stroke-width:0.35277778px;stroke-linecap:butt;stroke-linejoin:miter;stroke-miterlimit:4;stroke-dasharray:none;stroke-opacity:1"
     d="m 11.465278,2.9986111 c 0,-1.1465278 1.146528,-2.02847221 2.645833,-2.02847221 1.499306,0 2.645833,0.88194441 2.645833,2.02847221 0,1.8520833 -1.146527,1.6756945 -2.557638,1.6756945 -1.499306,0 -2.734028,0.1763888 -2.734028,-1.6756945 z"
     id="path63"
     inkscape:connector-curvature="0" />
  <path
     style="fill:#919190;fill-opacity:1;fill-rule:evenodd;stroke:#6e6d6d;stroke-width:0.35277778px;stroke-linecap:butt;stroke-linejoin:miter;stroke-miterlimit:4;stroke-dasharray:none;stroke-opacity:1"
     d="m 11.377083,1.3229167 c 0,-0.35277781 1.234723,-1.05833337 2.645834,-1.05833337 1.499305,0 2.645833,0.70555556 2.645833,1.14652777 0,0.7055556 -1.058333,-0.2645833 -2.469444,-0.2645833 -1.499306,0 -2.822223,0.8819444 -2.822223,0.1763889 z"
     id="path65"
     inkscape:connector-curvature="0" />
  <path
     style="fill:#80a1c8;fill-opacity:1;fill-rule:evenodd;stroke:none"
     d="m 37.218056,17.374306 c 0,1.234722 -0.969998,2.293055 -2.293056,2.293055 -29.4569444,0 -29.4569444,0 -29.4569444,0 -1.3229167,0 -2.2930556,-1.058333 -2.2930556,-2.293055 0,-11.818056 0,-11.818056 0,-11.818056 0,-1.2347222 0.9701389,-2.2930556 2.2930556,-2.2930556 29.4569444,0 29.4569444,0 29.4569444,0 1.323058,0 2.293056,1.0583334 2.293056,2.2930556 z"
     id="path67"
     inkscape:connector-curvature="0" />
  <path
     style="fill:#e8afaf;fill-opacity:1;fill-rule:evenodd;stroke:none"
     d="m 36.953331,17.021528 c 0,1.234722 -0.969998,2.116666 -2.20472,2.116666 -28.0458332,0 -28.0458332,0 -28.0458332,0 -1.2347222,0 -2.2048611,-0.881944 -2.2048611,-2.116666 0,-10.9361113 0,-10.9361113 0,-10.9361113 0,-1.1465278 0.9701389,-2.0284723 2.2048611,-2.0284723 28.0458332,0 28.0458332,0 28.0458332,0 1.234722,0 2.20472,0.8819445 2.20472,2.0284723 z"
     id="path69"
     inkscape:connector-curvature="0" />
</svg>
