<?xml version="1.0" encoding="UTF-8" standalone="no"?>
<svg
   xmlns:dc="http://purl.org/dc/elements/1.1/"
   xmlns:cc="http://creativecommons.org/ns#"
   xmlns:rdf="http://www.w3.org/1999/02/22-rdf-syntax-ns#"
   xmlns:svg="http://www.w3.org/2000/svg"
   xmlns="http://www.w3.org/2000/svg"
   xmlns:sodipodi="http://sodipodi.sourceforge.net/DTD/sodipodi-0.dtd"
   xmlns:inkscape="http://www.inkscape.org/namespaces/inkscape"
   version="1.0"
   width="39.437733mm"
   height="22.495934mm"
   id="svg2"
   inkscape:version="0.91 r13725"
   viewBox="0 0 39.437733 22.495934"
   sodipodi:docname="MesaO6H_p.svg">
  <metadata
     id="metadata73">
    <rdf:RDF>
      <cc:Work
         rdf:about="">
        <dc:format>image/svg+xml</dc:format>
        <dc:type
           rdf:resource="http://purl.org/dc/dcmitype/StillImage" />
        <dc:title></dc:title>
      </cc:Work>
    </rdf:RDF>
  </metadata>
  <sodipodi:namedview
     pagecolor="#ffffff"
     bordercolor="#666666"
     borderopacity="1"
     objecttolerance="10"
     gridtolerance="10"
     guidetolerance="10"
     inkscape:pageopacity="0"
     inkscape:pageshadow="2"
     inkscape:window-width="640"
     inkscape:window-height="480"
     id="namedview71"
     inkscape:document-units="mm"
     showgrid="false"
     inkscape:zoom="2.4974954"
     inkscape:cx="69.869999"
     inkscape:cy="39.855"
     inkscape:window-x="0"
     inkscape:window-y="0"
     inkscape:window-maximized="0"
     inkscape:current-layer="svg2" />
  <defs
     id="defs4">
    <pattern
       id="EMFhbasepattern"
       patternUnits="userSpaceOnUse"
       width="6"
       height="6"
       x="0"
       y="0" />
  </defs>
  <path
     style="fill:#6d4d2a;fill-opacity:1;fill-rule:evenodd;stroke:none"
     d="m 36.336111,9.8777778 0,-0.4409722 -2.028613,0 0,0.4409722 2.028613,0 0,0 z"
     id="path7"
     inkscape:connector-curvature="0" />
  <path
     style="fill:#6d4d2a;fill-opacity:1;fill-rule:evenodd;stroke:none"
     d="m 36.336111,12.876389 0,-0.352778 -2.028613,0 0,0.352778 2.028613,0 0,0 z"
     id="path9"
     inkscape:connector-curvature="0" />
  <path
     style="fill:#6d4d2a;fill-opacity:1;fill-rule:evenodd;stroke:none"
     d="m 36.5125,11.641667 2.645833,0 0,-0.529167 -2.645833,0 0,0.529167 0,0 z"
     id="path11"
     inkscape:connector-curvature="0" />
  <path
     style="fill:#919190;fill-opacity:1;fill-rule:evenodd;stroke:#6e6d6d;stroke-width:0.35277778px;stroke-linecap:butt;stroke-linejoin:miter;stroke-miterlimit:4;stroke-dasharray:none;stroke-opacity:1"
     d="m 36.600836,8.73125 c 1.146386,-0.088194 2.028331,1.1465278 2.028331,2.645833 0,1.411111 -0.881945,2.645834 -2.028331,2.645834 -1.852225,0 -1.675836,-1.146528 -1.675836,-2.645834 0,-1.4111108 -0.176389,-2.645833 1.675836,-2.645833 z"
     id="path13"
     inkscape:connector-curvature="0" />
  <path
     style="fill:#919190;fill-opacity:1;fill-rule:evenodd;stroke:#6e6d6d;stroke-width:0.35277778px;stroke-linecap:butt;stroke-linejoin:miter;stroke-miterlimit:4;stroke-dasharray:none;stroke-opacity:1"
     d="m 38.188053,8.6430556 c 0.441114,0 1.146669,1.1465277 1.146669,2.6458334 0,1.499305 -0.705555,2.645833 -1.146669,2.645833 -0.705555,0 0.264725,-1.058333 0.264725,-2.557639 0,-1.4111108 -0.881945,-2.7340274 -0.264725,-2.7340274 z"
     id="path15"
     inkscape:connector-curvature="0" />
  <path
     style="fill:#6d4d2a;fill-opacity:1;fill-rule:evenodd;stroke:none"
     d="m 3.2631944,12.788194 0,0.352778 2.0284723,0 0,-0.352778 -2.0284723,0 0,0 z"
     id="path17"
     inkscape:connector-curvature="0" />
  <path
     style="fill:#6d4d2a;fill-opacity:1;fill-rule:evenodd;stroke:none"
     d="m 3.2631944,9.7013889 0,0.4409721 2.0284723,0 0,-0.4409721 -2.0284723,0 0,0 z"
     id="path19"
     inkscape:connector-curvature="0" />
  <path
     style="fill:#6d4d2a;fill-opacity:1;fill-rule:evenodd;stroke:none"
     d="m 3.0868056,11.024306 -2.64583338,0 0,0.529166 2.64583338,0 0,-0.529166 0,0 z"
     id="path21"
     inkscape:connector-curvature="0" />
  <path
     style="fill:#919190;fill-opacity:1;fill-rule:evenodd;stroke:#6e6d6d;stroke-width:0.35277778px;stroke-linecap:butt;stroke-linejoin:miter;stroke-miterlimit:4;stroke-dasharray:none;stroke-opacity:1"
     d="m 2.9986111,13.934722 c -1.1465278,0 -2.02847221,-1.146528 -2.02847221,-2.645833 0,-1.4993057 0.88194441,-2.6458334 2.02847221,-2.6458334 1.8520833,0 1.6756945,1.1465277 1.6756945,2.5576384 0,1.499306 0.1763888,2.734028 -1.6756945,2.734028 z"
     id="path23"
     inkscape:connector-curvature="0" />
  <path
     style="fill:#919190;fill-opacity:1;fill-rule:evenodd;stroke:#6e6d6d;stroke-width:0.35277778px;stroke-linecap:butt;stroke-linejoin:miter;stroke-miterlimit:4;stroke-dasharray:none;stroke-opacity:1"
     d="m 1.4111111,14.022917 c -0.44097221,0 -1.14652777,-1.234723 -1.14652777,-2.645834 0,-1.4993052 0.70555556,-2.645833 1.14652777,-2.645833 0.7055556,0 -0.2645833,1.0583333 -0.2645833,2.469444 0,1.499306 0.8819444,2.822223 0.2645833,2.822223 z"
     id="path25"
     inkscape:connector-curvature="0" />
  <path
     style="fill:#6d4d2a;fill-opacity:1;fill-rule:evenodd;stroke:none"
     d="m 29.456944,19.314583 0.441114,0 0,-2.028472 -0.441114,0 0,2.028472 0,0 z"
     id="path27"
     inkscape:connector-curvature="0" />
  <path
     style="fill:#6d4d2a;fill-opacity:1;fill-rule:evenodd;stroke:none"
     d="m 26.370139,19.314583 0.440972,0 0,-2.028472 -0.440972,0 0,2.028472 0,0 z"
     id="path29"
     inkscape:connector-curvature="0" />
  <path
     style="fill:#6d4d2a;fill-opacity:1;fill-rule:evenodd;stroke:none"
     d="m 27.693056,19.490972 0,2.645834 0.529166,0 0,-2.645834 -0.529166,0 0,0 z"
     id="path31"
     inkscape:connector-curvature="0" />
  <path
     style="fill:#919190;fill-opacity:1;fill-rule:evenodd;stroke:#6e6d6d;stroke-width:0.35277778px;stroke-linecap:butt;stroke-linejoin:miter;stroke-miterlimit:4;stroke-dasharray:none;stroke-opacity:1"
     d="m 30.603331,19.579167 c 0,1.058333 -1.146387,2.028472 -2.645692,2.028472 -1.411111,0 -2.645833,-0.970139 -2.645833,-2.028472 0,-1.852084 1.146527,-1.763889 2.645833,-1.763889 1.41097,0 2.645692,-0.08819 2.645692,1.763889 z"
     id="path33"
     inkscape:connector-curvature="0" />
  <path
     style="fill:#919190;fill-opacity:1;fill-rule:evenodd;stroke:#6e6d6d;stroke-width:0.35277778px;stroke-linecap:butt;stroke-linejoin:miter;stroke-miterlimit:4;stroke-dasharray:none;stroke-opacity:1"
     d="m 30.691667,21.166667 c 0,0.440972 -1.234723,1.146527 -2.645834,1.146527 -1.499305,0 -2.645833,-0.79375 -2.645833,-1.146527 0,-0.705556 1.058333,0.264583 2.557639,0.264583 1.41097,0 2.734028,-0.970139 2.734028,-0.264583 z"
     id="path35"
     inkscape:connector-curvature="0" />
  <path
     style="fill:#6d4d2a;fill-opacity:1;fill-rule:evenodd;stroke:none"
     d="m 26.281944,3.175 -0.352777,0 0,2.0284722 0.352777,0 0,-2.0284722 0,0 z"
     id="path37"
     inkscape:connector-curvature="0" />
  <path
     style="fill:#6d4d2a;fill-opacity:1;fill-rule:evenodd;stroke:none"
     d="m 29.368609,3.175 -0.440831,0 0,2.0284722 0.440831,0 0,-2.0284722 0,0 z"
     id="path39"
     inkscape:connector-curvature="0" />
  <path
     style="fill:#6d4d2a;fill-opacity:1;fill-rule:evenodd;stroke:none"
     d="m 28.045833,2.9986111 0,-2.64583332 -0.529166,0 0,2.64583332 0.529166,0 0,0 z"
     id="path41"
     inkscape:connector-curvature="0" />
  <path
     style="fill:#919190;fill-opacity:1;fill-rule:evenodd;stroke:#6e6d6d;stroke-width:0.35277778px;stroke-linecap:butt;stroke-linejoin:miter;stroke-miterlimit:4;stroke-dasharray:none;stroke-opacity:1"
     d="m 25.135417,2.9104167 c 0,-1.0583334 1.146527,-2.02847226 2.645833,-2.02847226 1.499306,0 2.645692,0.97013886 2.645692,2.02847226 0,1.8520833 -1.146386,1.7638889 -2.645692,1.7638889 -1.411111,0 -2.645833,0.088194 -2.645833,-1.7638889 z"
     id="path43"
     inkscape:connector-curvature="0" />
  <path
     style="fill:#919190;fill-opacity:1;fill-rule:evenodd;stroke:#6e6d6d;stroke-width:0.35277778px;stroke-linecap:butt;stroke-linejoin:miter;stroke-miterlimit:4;stroke-dasharray:none;stroke-opacity:1"
     d="m 25.047222,1.3229167 c 0,-0.44097226 1.234722,-1.14652781 2.645834,-1.14652781 1.499446,0 2.645833,0.79375 2.645833,1.14652781 0,0.7055555 -1.058333,-0.2645834 -2.469445,-0.2645834 -1.499305,0 -2.822222,0.9701389 -2.822222,0.2645834 z"
     id="path45"
     inkscape:connector-curvature="0" />
  <path
     style="fill:#6d4d2a;fill-opacity:1;fill-rule:evenodd;stroke:none"
     d="m 15.875,19.314583 0.352778,0 0,-2.028472 -0.352778,0 0,2.028472 0,0 z"
     id="path47"
     inkscape:connector-curvature="0" />
  <path
     style="fill:#6d4d2a;fill-opacity:1;fill-rule:evenodd;stroke:none"
     d="m 12.788194,19.314583 0.440973,0 0,-2.028472 -0.440973,0 0,2.028472 0,0 z"
     id="path49"
     inkscape:connector-curvature="0" />
  <path
     style="fill:#6d4d2a;fill-opacity:1;fill-rule:evenodd;stroke:none"
     d="m 14.111111,19.490972 0,2.645834 0.529167,0 0,-2.645834 -0.529167,0 0,0 z"
     id="path51"
     inkscape:connector-curvature="0" />
  <path
     style="fill:#919190;fill-opacity:1;fill-rule:evenodd;stroke:#6e6d6d;stroke-width:0.35277778px;stroke-linecap:butt;stroke-linejoin:miter;stroke-miterlimit:4;stroke-dasharray:none;stroke-opacity:1"
     d="m 17.021528,19.579167 c 0,1.058333 -1.146528,2.028472 -2.645834,2.028472 -1.499305,0 -2.645833,-0.970139 -2.645833,-2.028472 0,-1.852084 1.146528,-1.763889 2.557639,-1.763889 1.499306,0 2.734028,-0.08819 2.734028,1.763889 z"
     id="path53"
     inkscape:connector-curvature="0" />
  <path
     style="fill:#919190;fill-opacity:1;fill-rule:evenodd;stroke:#6e6d6d;stroke-width:0.35277778px;stroke-linecap:butt;stroke-linejoin:miter;stroke-miterlimit:4;stroke-dasharray:none;stroke-opacity:1"
     d="m 17.109722,21.166667 c 0,0.440972 -1.234722,1.146527 -2.645833,1.146527 -1.499306,0 -2.645833,-0.79375 -2.645833,-1.146527 0,-0.705556 1.058333,0.264583 2.469444,0.264583 1.499306,0 2.822222,-0.970139 2.822222,-0.264583 z"
     id="path55"
     inkscape:connector-curvature="0" />
  <path
     style="fill:#6d4d2a;fill-opacity:1;fill-rule:evenodd;stroke:none"
     d="m 12.7,3.175 -0.440972,0 0,2.0284722 0.440972,0 0,-2.0284722 0,0 z"
     id="path57"
     inkscape:connector-curvature="0" />
  <path
     style="fill:#6d4d2a;fill-opacity:1;fill-rule:evenodd;stroke:none"
     d="m 15.786806,3.175 -0.440973,0 0,2.0284722 0.440973,0 0,-2.0284722 0,0 z"
     id="path59"
     inkscape:connector-curvature="0" />
  <path
     style="fill:#6d4d2a;fill-opacity:1;fill-rule:evenodd;stroke:none"
     d="m 14.463889,2.9986111 0,-2.64583332 -0.529167,0 0,2.64583332 0.529167,0 0,0 z"
     id="path61"
     inkscape:connector-curvature="0" />
  <path
     style="fill:#919190;fill-opacity:1;fill-rule:evenodd;stroke:#6e6d6d;stroke-width:0.35277778px;stroke-linecap:butt;stroke-linejoin:miter;stroke-miterlimit:4;stroke-dasharray:none;stroke-opacity:1"
     d="m 11.553472,2.9104167 c 0,-1.0583334 1.146528,-2.02847226 2.645834,-2.02847226 1.411111,0 2.645833,0.97013886 2.645833,2.02847226 0,1.8520833 -1.146528,1.7638889 -2.645833,1.7638889 -1.411112,0 -2.645834,0.088194 -2.645834,-1.7638889 z"
     id="path63"
     inkscape:connector-curvature="0" />
  <path
     style="fill:#919190;fill-opacity:1;fill-rule:evenodd;stroke:#6e6d6d;stroke-width:0.35277778px;stroke-linecap:butt;stroke-linejoin:miter;stroke-miterlimit:4;stroke-dasharray:none;stroke-opacity:1"
     d="m 11.465278,1.3229167 c 0,-0.44097226 1.146528,-1.14652781 2.645833,-1.14652781 1.499306,0 2.645833,0.79375 2.645833,1.14652781 0,0.7055555 -1.058333,-0.2645834 -2.557638,-0.2645834 -1.411112,0 -2.734028,0.9701389 -2.734028,0.2645834 z"
     id="path65"
     inkscape:connector-curvature="0" />
  <path
     style="fill:#80a1c8;fill-opacity:1;fill-rule:evenodd;stroke:none"
     d="m 2.7340278,10.583333 c 0,-4.233333 3.3513889,-7.7611108 7.4083332,-7.7611108 19.490972,0 19.490972,0 19.490972,0 4.056945,0 7.408334,3.5277778 7.408334,7.7611108 0,1.763889 0,1.763889 0,1.763889 0,4.321528 -3.351389,7.761111 -7.408334,7.761111 -19.490972,0 -19.490972,0 -19.490972,0 -4.0569443,0 -7.4083332,-3.439583 -7.4083332,-7.761111 z"
     id="path67"
     inkscape:connector-curvature="0" />
  <path
     style="fill:#7fb2ff;fill-opacity:1;fill-rule:evenodd;stroke:none"
     d="m 3.7923611,10.583333 c 0,-4.0569441 3.0868056,-7.3201386 6.9673609,-7.3201386 18.43278,0 18.43278,0 18.43278,0 3.880556,0 7.055556,3.2631945 7.055556,7.3201386 0,1.675695 0,1.675695 0,1.675695 0,4.056944 -3.175,7.320139 -7.055556,7.320139 -18.43278,0 -18.43278,0 -18.43278,0 -3.8805553,0 -6.9673609,-3.263195 -6.9673609,-7.320139 z"
     id="path69"
     inkscape:connector-curvature="0" />
</svg>
