<?xml version="1.0" encoding="UTF-8" standalone="no"?>
<svg
   xmlns:dc="http://purl.org/dc/elements/1.1/"
   xmlns:cc="http://creativecommons.org/ns#"
   xmlns:rdf="http://www.w3.org/1999/02/22-rdf-syntax-ns#"
   xmlns:svg="http://www.w3.org/2000/svg"
   xmlns="http://www.w3.org/2000/svg"
   xmlns:sodipodi="http://sodipodi.sourceforge.net/DTD/sodipodi-0.dtd"
   xmlns:inkscape="http://www.inkscape.org/namespaces/inkscape"
   version="1.0"
   width="23.2918mm"
   height="23.554268mm"
   id="svg2"
   inkscape:version="0.91 r13725"
   viewBox="0 0 23.2918 23.554268"
   sodipodi:docname="MesaR2_p.svg">
  <metadata
     id="metadata49">
    <rdf:RDF>
      <cc:Work
         rdf:about="">
        <dc:format>image/svg+xml</dc:format>
        <dc:type
           rdf:resource="http://purl.org/dc/dcmitype/StillImage" />
        <dc:title></dc:title>
      </cc:Work>
    </rdf:RDF>
  </metadata>
  <sodipodi:namedview
     pagecolor="#ffffff"
     bordercolor="#666666"
     borderopacity="1"
     objecttolerance="10"
     gridtolerance="10"
     guidetolerance="10"
     inkscape:pageopacity="0"
     inkscape:pageshadow="2"
     inkscape:window-width="640"
     inkscape:window-height="480"
     id="namedview47"
     inkscape:document-units="mm"
     showgrid="false"
     inkscape:zoom="2.8277017"
     inkscape:cx="41.264999"
     inkscape:cy="41.730002"
     inkscape:window-x="0"
     inkscape:window-y="0"
     inkscape:window-maximized="0"
     inkscape:current-layer="svg2" />
  <defs
     id="defs4">
    <pattern
       id="EMFhbasepattern"
       patternUnits="userSpaceOnUse"
       width="6"
       height="6"
       x="0"
       y="0" />
  </defs>
  <path
     style="fill:#6d4d2a;fill-opacity:1;fill-rule:evenodd;stroke:none"
     d="m 9.3486111,7.0555556 3.9687499,0 -1.322917,-4.4979167 -1.234722,0 -1.4111109,4.4979167 0,0 z"
     id="path7"
     inkscape:connector-curvature="0" />
  <path
     style="fill:#6d4d2a;fill-opacity:1;fill-rule:evenodd;stroke:none"
     d="m 11.200694,20.813889 1.234723,0 1.763889,-5.909028 -4.4097227,0.440972 1.4111107,5.468056 0,0 z"
     id="path9"
     inkscape:connector-curvature="0" />
  <path
     style="fill:#6d4d2a;fill-opacity:1;fill-rule:evenodd;stroke:none"
     d="m 16.66875,12.964583 4.497917,-1.322916 0,-1.322917 -4.497917,-1.3229167 0,3.9687497 0,0 z"
     id="path11"
     inkscape:connector-curvature="0" />
  <path
     style="fill:#6d4d2a;fill-opacity:1;fill-rule:evenodd;stroke:none"
     d="m 3.4395833,11.729861 c 0.3527778,0.264583 0.3527778,0.881945 0,1.146528 -0.3527777,0.352778 -0.8819444,0.352778 -1.1465277,0 -0.3527778,-0.264583 -0.3527778,-0.881945 0,-1.146528 0.2645833,-0.352778 0.79375,-0.352778 1.1465277,0 z"
     id="path13"
     inkscape:connector-curvature="0" />
  <path
     style="fill:#6d4d2a;fill-opacity:1;fill-rule:evenodd;stroke:none"
     d="m 11.818056,1.8520833 c 0.352777,0.3527778 0.352777,0.8819445 0,1.2347223 -0.264584,0.3527777 -0.79375,0.3527777 -1.146528,0 -0.352778,-0.3527778 -0.352778,-0.8819445 0,-1.2347223 0.352778,-0.2645833 0.881944,-0.2645833 1.146528,0 z"
     id="path15"
     inkscape:connector-curvature="0" />
  <path
     style="fill:#6d4d2a;fill-opacity:1;fill-rule:evenodd;stroke:none"
     d="m 21.784028,10.406944 c 0.352778,0.352778 0.352778,0.881945 0,1.234723 -0.352778,0.264583 -0.881945,0.264583 -1.234722,0 -0.264584,-0.352778 -0.264584,-0.881945 0,-1.234723 0.352777,-0.352777 0.881944,-0.352777 1.234722,0 z"
     id="path17"
     inkscape:connector-curvature="0" />
  <path
     style="fill:#6d4d2a;fill-opacity:1;fill-rule:evenodd;stroke:none"
     d="m 12.347222,20.196528 c 0.264584,0.352778 0.264584,0.881944 0,1.234722 -0.352778,0.352778 -0.881944,0.352778 -1.234722,0 -0.352778,-0.352778 -0.352778,-0.881944 0,-1.234722 0.352778,-0.352778 0.881944,-0.352778 1.234722,0 z"
     id="path19"
     inkscape:connector-curvature="0" />
  <path
     style="fill:#6d4d2a;fill-opacity:1;fill-rule:evenodd;stroke:none"
     d="m 18.697222,2.38125 -0.264583,-0.2645833 -1.499306,1.4111111 0.264584,0.2645833 1.499305,-1.4111111 0,0 z"
     id="path21"
     inkscape:connector-curvature="0" />
  <path
     style="fill:#6d4d2a;fill-opacity:1;fill-rule:evenodd;stroke:none"
     d="m 20.813889,4.4979167 -0.264583,-0.2645834 -1.411112,1.4993056 0.264584,0.2645833 1.411111,-1.4993055 0,0 z"
     id="path23"
     inkscape:connector-curvature="0" />
  <path
     style="fill:#6d4d2a;fill-opacity:1;fill-rule:evenodd;stroke:none"
     d="M 20.020139,3.5277778 21.872222,1.5875 21.519444,1.2347222 19.667361,3.175 l 0.352778,0.3527778 0,0 z"
     id="path25"
     inkscape:connector-curvature="0" />
  <path
     style="fill:#919190;fill-opacity:1;fill-rule:evenodd;stroke:#6e6d6d;stroke-width:0.35277778px;stroke-linecap:butt;stroke-linejoin:miter;stroke-miterlimit:4;stroke-dasharray:none;stroke-opacity:1"
     d="m 17.991667,1.4111111 c 0.79375,-0.79374999 2.293055,-0.6173611 3.351389,0.4409722 1.058333,0.9701389 1.234722,2.4694445 0.440972,3.2631945 C 20.461111,6.4381944 19.755556,5.55625 18.697222,4.4979167 17.727083,3.4395833 16.756944,2.7340278 17.991667,1.4111111 Z"
     id="path27"
     inkscape:connector-curvature="0" />
  <path
     style="fill:#919190;fill-opacity:1;fill-rule:evenodd;stroke:#6e6d6d;stroke-width:0.35277778px;stroke-linecap:butt;stroke-linejoin:miter;stroke-miterlimit:4;stroke-dasharray:none;stroke-opacity:1"
     d="m 19.138194,0.17638889 c 0.264584,-0.26458333 1.675695,0.0881944 2.645834,1.05833331 1.058333,1.0583334 1.411111,2.4694445 1.058333,2.7340278 C 22.401389,4.4097222 22.313194,2.9986111 21.254861,1.9402778 20.196528,0.97013889 18.697222,0.70555556 19.138194,0.17638889 Z"
     id="path29"
     inkscape:connector-curvature="0" />
  <path
     style="fill:#6d4d2a;fill-opacity:1;fill-rule:evenodd;stroke:none"
     d="m 4.5861111,20.990278 0.2645833,0.264583 1.4111112,-1.411111 -0.2645834,-0.264583 -1.4111111,1.411111 0,0 z"
     id="path31"
     inkscape:connector-curvature="0" />
  <path
     style="fill:#6d4d2a;fill-opacity:1;fill-rule:evenodd;stroke:none"
     d="m 2.38125,18.873611 0.2645833,0.264583 1.4993056,-1.499305 -0.3527778,-0.264583 -1.4111111,1.499305 0,0 z"
     id="path33"
     inkscape:connector-curvature="0" />
  <path
     style="fill:#6d4d2a;fill-opacity:1;fill-rule:evenodd;stroke:none"
     d="M 3.175,19.84375 1.3229167,21.784028 1.6756944,22.136806 3.5277778,20.196528 3.175,19.84375 l 0,0 z"
     id="path35"
     inkscape:connector-curvature="0" />
  <path
     style="fill:#919190;fill-opacity:1;fill-rule:evenodd;stroke:#6e6d6d;stroke-width:0.35277778px;stroke-linecap:butt;stroke-linejoin:miter;stroke-miterlimit:4;stroke-dasharray:none;stroke-opacity:1"
     d="M 5.2034722,21.960417 C 4.4097222,22.754167 2.9104167,22.577778 1.8520833,21.607639 0.79375,20.549306 0.61736111,19.05 1.4111111,18.25625 c 1.3229167,-1.322917 2.0284722,-0.440972 3.0868056,0.617361 1.0583333,1.058333 2.0284722,1.852083 0.7055555,3.086806 z"
     id="path37"
     inkscape:connector-curvature="0" />
  <path
     style="fill:#919190;fill-opacity:1;fill-rule:evenodd;stroke:#6e6d6d;stroke-width:0.35277778px;stroke-linecap:butt;stroke-linejoin:miter;stroke-miterlimit:4;stroke-dasharray:none;stroke-opacity:1"
     d="m 4.0569444,23.195139 c -0.2645833,0.264583 -1.5875,0 -2.6458333,-1.058333 -1.05833332,-1.058334 -1.32291666,-2.38125 -1.05833332,-2.734028 0.52916666,-0.440972 0.52916666,0.970139 1.58750002,2.028472 1.0583333,1.058333 2.6458333,1.322917 2.1166666,1.763889 z"
     id="path39"
     inkscape:connector-curvature="0" />
  <path
     style="fill:#6d4d2a;fill-opacity:1;fill-rule:evenodd;stroke:none"
     d="m 2.9104167,12.964583 5.3798611,1.322917 0,-4.8506944 -5.3798611,2.2930554 0,1.234722 0,0 z"
     id="path41"
     inkscape:connector-curvature="0" />
  <path
     style="fill:#80a1c8;fill-opacity:1;fill-rule:evenodd;stroke:none"
     d="m 18.079861,5.55625 c 3.439583,3.4395833 3.439583,8.907639 0,12.347222 -3.351389,3.351389 -8.9076388,3.351389 -12.2590277,0 -3.4395833,-3.439583 -3.4395833,-8.9076387 0,-12.347222 3.3513889,-3.3513889 8.9076387,-3.3513889 12.2590277,0 z"
     id="path43"
     inkscape:connector-curvature="0" />
  <path
     style="fill:#7fb2ff;fill-opacity:1;fill-rule:evenodd;stroke:none"
     d="m 17.727083,5.7326389 c 3.351389,3.2631944 3.351389,8.6430551 0,11.9062501 -3.263194,3.263194 -8.5548608,3.263194 -11.8180552,0 -3.3513889,-3.263195 -3.3513889,-8.6430557 0,-11.9062501 3.2631944,-3.2631945 8.5548612,-3.2631945 11.8180552,0 z"
     id="path45"
     inkscape:connector-curvature="0" />
</svg>
