<?xml version="1.0" encoding="UTF-8" standalone="no"?>
<svg
   xmlns:dc="http://purl.org/dc/elements/1.1/"
   xmlns:cc="http://creativecommons.org/ns#"
   xmlns:rdf="http://www.w3.org/1999/02/22-rdf-syntax-ns#"
   xmlns:svg="http://www.w3.org/2000/svg"
   xmlns="http://www.w3.org/2000/svg"
   xmlns:sodipodi="http://sodipodi.sourceforge.net/DTD/sodipodi-0.dtd"
   xmlns:inkscape="http://www.inkscape.org/namespaces/inkscape"
   version="1.0"
   width="22.495934mm"
   height="39.429268mm"
   id="svg2"
   inkscape:version="0.91 r13725"
   viewBox="0 0 22.495934 39.429268"
   sodipodi:docname="MesaO6V_p.svg">
  <metadata
     id="metadata73">
    <rdf:RDF>
      <cc:Work
         rdf:about="">
        <dc:format>image/svg+xml</dc:format>
        <dc:type
           rdf:resource="http://purl.org/dc/dcmitype/StillImage" />
        <dc:title></dc:title>
      </cc:Work>
    </rdf:RDF>
  </metadata>
  <sodipodi:namedview
     pagecolor="#ffffff"
     bordercolor="#666666"
     borderopacity="1"
     objecttolerance="10"
     gridtolerance="10"
     guidetolerance="10"
     inkscape:pageopacity="0"
     inkscape:pageshadow="2"
     inkscape:window-width="640"
     inkscape:window-height="480"
     id="namedview71"
     inkscape:document-units="mm"
     showgrid="false"
     inkscape:zoom="1.6892133"
     inkscape:cx="39.855"
     inkscape:cy="69.855002"
     inkscape:window-x="0"
     inkscape:window-y="0"
     inkscape:window-maximized="0"
     inkscape:current-layer="svg2" />
  <defs
     id="defs4">
    <pattern
       id="EMFhbasepattern"
       patternUnits="userSpaceOnUse"
       width="6"
       height="6"
       x="0"
       y="0" />
  </defs>
  <path
     style="fill:#6d4d2a;fill-opacity:1;fill-rule:evenodd;stroke:none"
     d="m 12.611806,36.248058 0.352777,0 0,-2.028614 -0.352777,0 0,2.028614 0,0 z"
     id="path7"
     inkscape:connector-curvature="0" />
  <path
     style="fill:#6d4d2a;fill-opacity:1;fill-rule:evenodd;stroke:none"
     d="m 9.525,36.248058 0.3527778,0 0,-2.028614 -0.3527778,0 0,2.028614 0,0 z"
     id="path9"
     inkscape:connector-curvature="0" />
  <path
     style="fill:#6d4d2a;fill-opacity:1;fill-rule:evenodd;stroke:none"
     d="m 10.847917,36.424447 0,2.645833 0.529166,0 0,-2.645833 -0.529166,0 0,0 z"
     id="path11"
     inkscape:connector-curvature="0" />
  <path
     style="fill:#919190;fill-opacity:1;fill-rule:evenodd;stroke:#6e6d6d;stroke-width:0.35277778px;stroke-linecap:butt;stroke-linejoin:miter;stroke-miterlimit:4;stroke-dasharray:none;stroke-opacity:1"
     d="m 13.758333,36.5125 c 0,1.146669 -1.234722,2.028613 -2.645833,2.028613 -1.4993056,0 -2.6458333,-0.881944 -2.6458333,-2.028613 0,-1.851942 1.1465277,-1.675553 2.5576393,-1.675553 1.499305,0 2.734027,-0.176389 2.734027,1.675553 z"
     id="path13"
     inkscape:connector-curvature="0" />
  <path
     style="fill:#919190;fill-opacity:1;fill-rule:evenodd;stroke:#6e6d6d;stroke-width:0.35277778px;stroke-linecap:butt;stroke-linejoin:miter;stroke-miterlimit:4;stroke-dasharray:none;stroke-opacity:1"
     d="m 13.758333,38.1 c 0,0.441113 -1.146527,1.146669 -2.645833,1.146669 -1.4111111,0 -2.6458333,-0.705556 -2.6458333,-1.146669 0,-0.705556 1.0583333,0.264724 2.5576393,0.264724 1.499305,0 2.734027,-0.881944 2.734027,-0.264724 z"
     id="path15"
     inkscape:connector-curvature="0" />
  <path
     style="fill:#6d4d2a;fill-opacity:1;fill-rule:evenodd;stroke:none"
     d="m 9.7013889,3.175 -0.4409722,0 0,2.0284722 0.4409722,0 0,-2.0284722 0,0 z"
     id="path17"
     inkscape:connector-curvature="0" />
  <path
     style="fill:#6d4d2a;fill-opacity:1;fill-rule:evenodd;stroke:none"
     d="m 12.7,3.175 -0.352778,0 0,2.0284722 0.352778,0 0,-2.0284722 0,0 z"
     id="path19"
     inkscape:connector-curvature="0" />
  <path
     style="fill:#6d4d2a;fill-opacity:1;fill-rule:evenodd;stroke:none"
     d="m 11.377083,2.9986111 0,-2.64583332 -0.529166,0 0,2.64583332 0.529166,0 0,0 z"
     id="path21"
     inkscape:connector-curvature="0" />
  <path
     style="fill:#919190;fill-opacity:1;fill-rule:evenodd;stroke:#6e6d6d;stroke-width:0.35277778px;stroke-linecap:butt;stroke-linejoin:miter;stroke-miterlimit:4;stroke-dasharray:none;stroke-opacity:1"
     d="m 8.4666667,2.9104167 c 0,-1.1465278 1.2347222,-2.02847226 2.6458333,-2.02847226 1.499306,0 2.645833,0.88194446 2.645833,2.02847226 0,1.8520833 -1.058333,1.6756944 -2.557639,1.6756944 -1.4993051,0 -2.7340273,0.1763889 -2.7340273,-1.6756944 z"
     id="path23"
     inkscape:connector-curvature="0" />
  <path
     style="fill:#919190;fill-opacity:1;fill-rule:evenodd;stroke:#6e6d6d;stroke-width:0.35277778px;stroke-linecap:butt;stroke-linejoin:miter;stroke-miterlimit:4;stroke-dasharray:none;stroke-opacity:1"
     d="m 8.4666667,1.3229167 c 0,-0.44097226 1.1465277,-1.14652781 2.6458333,-1.14652781 1.411111,0 2.645833,0.70555555 2.645833,1.14652781 0,0.7055555 -1.058333,-0.2645834 -2.557639,-0.2645834 -1.4993051,0 -2.7340273,0.8819445 -2.7340273,0.2645834 z"
     id="path25"
     inkscape:connector-curvature="0" />
  <path
     style="fill:#6d4d2a;fill-opacity:1;fill-rule:evenodd;stroke:none"
     d="m 3.175,29.368891 0,0.440831 2.0284722,0 0,-0.440831 -2.0284722,0 0,0 z"
     id="path27"
     inkscape:connector-curvature="0" />
  <path
     style="fill:#6d4d2a;fill-opacity:1;fill-rule:evenodd;stroke:none"
     d="m 3.175,26.281944 0,0.440973 2.0284722,0 0,-0.440973 -2.0284722,0 0,0 z"
     id="path29"
     inkscape:connector-curvature="0" />
  <path
     style="fill:#6d4d2a;fill-opacity:1;fill-rule:evenodd;stroke:none"
     d="m 2.9986111,27.604861 -2.64583332,0 0,0.529167 2.64583332,0 0,-0.529167 0,0 z"
     id="path31"
     inkscape:connector-curvature="0" />
  <path
     style="fill:#919190;fill-opacity:1;fill-rule:evenodd;stroke:#6e6d6d;stroke-width:0.35277778px;stroke-linecap:butt;stroke-linejoin:miter;stroke-miterlimit:4;stroke-dasharray:none;stroke-opacity:1"
     d="m 2.9104167,30.515278 c -1.1465278,0 -2.02847226,-1.146387 -2.02847226,-2.645834 0,-1.411111 0.88194446,-2.645833 2.02847226,-2.645833 1.7638889,0 1.6756944,1.146528 1.6756944,2.645833 0,1.411112 0.1763889,2.645834 -1.6756944,2.645834 z"
     id="path33"
     inkscape:connector-curvature="0" />
  <path
     style="fill:#919190;fill-opacity:1;fill-rule:evenodd;stroke:#6e6d6d;stroke-width:0.35277778px;stroke-linecap:butt;stroke-linejoin:miter;stroke-miterlimit:4;stroke-dasharray:none;stroke-opacity:1"
     d="m 1.2347222,30.603613 c -0.4409722,0 -1.14652776,-1.234722 -1.14652776,-2.645974 0,-1.499306 0.79375,-2.645833 1.23472226,-2.645833 0.6173611,0 -0.35277781,1.058333 -0.35277781,2.557638 0,1.411112 0.97013891,2.734169 0.26458331,2.734169 z"
     id="path35"
     inkscape:connector-curvature="0" />
  <path
     style="fill:#6d4d2a;fill-opacity:1;fill-rule:evenodd;stroke:none"
     d="m 19.226389,26.19375 0,-0.352778 -2.028472,0 0,0.352778 2.028472,0 0,0 z"
     id="path37"
     inkscape:connector-curvature="0" />
  <path
     style="fill:#6d4d2a;fill-opacity:1;fill-rule:evenodd;stroke:none"
     d="m 19.226389,29.280556 0,-0.440832 -2.028472,0 0,0.440832 2.028472,0 0,0 z"
     id="path39"
     inkscape:connector-curvature="0" />
  <path
     style="fill:#6d4d2a;fill-opacity:1;fill-rule:evenodd;stroke:none"
     d="m 19.402778,27.957639 2.645833,0 0,-0.529167 -2.645833,0 0,0.529167 0,0 z"
     id="path41"
     inkscape:connector-curvature="0" />
  <path
     style="fill:#919190;fill-opacity:1;fill-rule:evenodd;stroke:#6e6d6d;stroke-width:0.35277778px;stroke-linecap:butt;stroke-linejoin:miter;stroke-miterlimit:4;stroke-dasharray:none;stroke-opacity:1"
     d="m 19.490972,25.047222 c 1.146528,0 2.028472,1.146528 2.028472,2.645834 0,1.499446 -0.881944,2.645833 -2.028472,2.645833 -1.852083,0 -1.675694,-1.146387 -1.675694,-2.645833 0,-1.411112 -0.176389,-2.645834 1.675694,-2.645834 z"
     id="path43"
     inkscape:connector-curvature="0" />
  <path
     style="fill:#919190;fill-opacity:1;fill-rule:evenodd;stroke:#6e6d6d;stroke-width:0.35277778px;stroke-linecap:butt;stroke-linejoin:miter;stroke-miterlimit:4;stroke-dasharray:none;stroke-opacity:1"
     d="m 21.166667,24.959028 c 0.352777,0 1.058333,1.234722 1.058333,2.645833 0,1.499306 -0.705556,2.645975 -1.146528,2.645975 -0.705555,0 0.264584,-1.058334 0.264584,-2.469586 0,-1.499306 -0.881945,-2.822222 -0.176389,-2.822222 z"
     id="path45"
     inkscape:connector-curvature="0" />
  <path
     style="fill:#6d4d2a;fill-opacity:1;fill-rule:evenodd;stroke:none"
     d="m 3.175,15.786806 0,0.352777 2.0284722,0 0,-0.352777 -2.0284722,0 0,0 z"
     id="path47"
     inkscape:connector-curvature="0" />
  <path
     style="fill:#6d4d2a;fill-opacity:1;fill-rule:evenodd;stroke:none"
     d="m 3.175,12.7 0,0.440972 2.0284722,0 0,-0.440972 -2.0284722,0 0,0 z"
     id="path49"
     inkscape:connector-curvature="0" />
  <path
     style="fill:#6d4d2a;fill-opacity:1;fill-rule:evenodd;stroke:none"
     d="m 2.9986111,14.022917 -2.64583332,0 0,0.529166 2.64583332,0 0,-0.529166 0,0 z"
     id="path51"
     inkscape:connector-curvature="0" />
  <path
     style="fill:#919190;fill-opacity:1;fill-rule:evenodd;stroke:#6e6d6d;stroke-width:0.35277778px;stroke-linecap:butt;stroke-linejoin:miter;stroke-miterlimit:4;stroke-dasharray:none;stroke-opacity:1"
     d="m 2.9104167,16.933333 c -1.1465278,0 -2.02847226,-1.146527 -2.02847226,-2.645833 0,-1.499306 0.88194446,-2.645833 2.02847226,-2.645833 1.7638889,0 1.6756944,1.146527 1.6756944,2.557639 0,1.499305 0.1763889,2.734027 -1.6756944,2.734027 z"
     id="path53"
     inkscape:connector-curvature="0" />
  <path
     style="fill:#919190;fill-opacity:1;fill-rule:evenodd;stroke:#6e6d6d;stroke-width:0.35277778px;stroke-linecap:butt;stroke-linejoin:miter;stroke-miterlimit:4;stroke-dasharray:none;stroke-opacity:1"
     d="m 1.2347222,17.021528 c -0.4409722,0 -1.14652776,-1.234722 -1.14652776,-2.645834 0,-1.499305 0.79375,-2.645833 1.23472226,-2.645833 0.6173611,0 -0.35277781,1.058333 -0.35277781,2.469445 0,1.499305 0.97013891,2.822222 0.26458331,2.822222 z"
     id="path55"
     inkscape:connector-curvature="0" />
  <path
     style="fill:#6d4d2a;fill-opacity:1;fill-rule:evenodd;stroke:none"
     d="m 19.226389,12.611806 0,-0.440973 -2.028472,0 0,0.440973 2.028472,0 0,0 z"
     id="path57"
     inkscape:connector-curvature="0" />
  <path
     style="fill:#6d4d2a;fill-opacity:1;fill-rule:evenodd;stroke:none"
     d="m 19.226389,15.698611 0,-0.440972 -2.028472,0 0,0.440972 2.028472,0 0,0 z"
     id="path59"
     inkscape:connector-curvature="0" />
  <path
     style="fill:#6d4d2a;fill-opacity:1;fill-rule:evenodd;stroke:none"
     d="m 19.402778,14.375694 2.645833,0 0,-0.529166 -2.645833,0 0,0.529166 0,0 z"
     id="path61"
     inkscape:connector-curvature="0" />
  <path
     style="fill:#919190;fill-opacity:1;fill-rule:evenodd;stroke:#6e6d6d;stroke-width:0.35277778px;stroke-linecap:butt;stroke-linejoin:miter;stroke-miterlimit:4;stroke-dasharray:none;stroke-opacity:1"
     d="m 19.490972,11.465278 c 1.146528,0 2.028472,1.146528 2.028472,2.645833 0,1.411111 -0.881944,2.645833 -2.028472,2.645833 -1.852083,0 -1.675694,-1.146527 -1.675694,-2.645833 0,-1.411111 -0.176389,-2.645833 1.675694,-2.645833 z"
     id="path63"
     inkscape:connector-curvature="0" />
  <path
     style="fill:#919190;fill-opacity:1;fill-rule:evenodd;stroke:#6e6d6d;stroke-width:0.35277778px;stroke-linecap:butt;stroke-linejoin:miter;stroke-miterlimit:4;stroke-dasharray:none;stroke-opacity:1"
     d="m 21.166667,11.377083 c 0.352777,0 1.058333,1.146528 1.058333,2.645834 0,1.499305 -0.705556,2.645833 -1.146528,2.645833 -0.705555,0 0.264584,-1.058333 0.264584,-2.557639 0,-1.411111 -0.881945,-2.734028 -0.176389,-2.734028 z"
     id="path65"
     inkscape:connector-curvature="0" />
  <path
     style="fill:#80a1c8;fill-opacity:1;fill-rule:evenodd;stroke:none"
     d="m 11.818056,2.6458333 c 4.321527,0 7.761111,3.3513889 7.761111,7.4083337 0,19.491113 0,19.491113 0,19.491113 0,4.056944 -3.439584,7.408333 -7.761111,7.408333 -1.763889,0 -1.763889,0 -1.763889,0 -4.2333337,0 -7.7611114,-3.351389 -7.7611114,-7.408333 0,-19.491113 0,-19.491113 0,-19.491113 0,-4.0569448 3.5277777,-7.4083337 7.7611114,-7.4083337 z"
     id="path67"
     inkscape:connector-curvature="0" />
  <path
     style="fill:#7fb2ff;fill-opacity:1;fill-rule:evenodd;stroke:none"
     d="m 11.90625,3.7041667 c 3.96875,0 7.231944,3.0868055 7.231944,6.9673613 0,18.432639 0,18.432639 0,18.432639 0,3.880555 -3.263194,7.055555 -7.231944,7.055555 -1.763889,0 -1.763889,0 -1.763889,0 -4.0569443,0 -7.3201388,-3.175 -7.3201388,-7.055555 0,-18.432639 0,-18.432639 0,-18.432639 0,-3.8805558 3.2631945,-6.9673613 7.3201388,-6.9673613 z"
     id="path69"
     inkscape:connector-curvature="0" />
</svg>
