<?xml version="1.0" encoding="UTF-8" standalone="no"?>
<svg
   xmlns:dc="http://purl.org/dc/elements/1.1/"
   xmlns:cc="http://creativecommons.org/ns#"
   xmlns:rdf="http://www.w3.org/1999/02/22-rdf-syntax-ns#"
   xmlns:svg="http://www.w3.org/2000/svg"
   xmlns="http://www.w3.org/2000/svg"
   xmlns:sodipodi="http://sodipodi.sourceforge.net/DTD/sodipodi-0.dtd"
   xmlns:inkscape="http://www.inkscape.org/namespaces/inkscape"
   version="1.0"
   width="22.5044mm"
   height="40.487598mm"
   id="svg2"
   inkscape:version="0.91 r13725"
   viewBox="0 0 22.5044 40.487598"
   sodipodi:docname="MesaT6V_p.svg">
  <metadata
     id="metadata73">
    <rdf:RDF>
      <cc:Work
         rdf:about="">
        <dc:format>image/svg+xml</dc:format>
        <dc:type
           rdf:resource="http://purl.org/dc/dcmitype/StillImage" />
        <dc:title></dc:title>
      </cc:Work>
    </rdf:RDF>
  </metadata>
  <sodipodi:namedview
     pagecolor="#ffffff"
     bordercolor="#666666"
     borderopacity="1"
     objecttolerance="10"
     gridtolerance="10"
     guidetolerance="10"
     inkscape:pageopacity="0"
     inkscape:pageshadow="2"
     inkscape:window-width="640"
     inkscape:window-height="480"
     id="namedview71"
     inkscape:document-units="mm"
     showgrid="false"
     inkscape:zoom="1.6450579"
     inkscape:cx="39.87"
     inkscape:cy="71.729997"
     inkscape:window-x="0"
     inkscape:window-y="0"
     inkscape:window-maximized="0"
     inkscape:current-layer="svg2" />
  <defs
     id="defs4">
    <pattern
       id="EMFhbasepattern"
       patternUnits="userSpaceOnUse"
       width="6"
       height="6"
       x="0"
       y="0" />
  </defs>
  <path
     style="fill:#6d4d2a;fill-opacity:1;fill-rule:evenodd;stroke:none"
     d="m 9.8777778,3.0868056 -0.3527778,0 0,2.0284722 0.3527778,0 0,-2.0284722 0,0 z"
     id="path7"
     inkscape:connector-curvature="0" />
  <path
     style="fill:#6d4d2a;fill-opacity:1;fill-rule:evenodd;stroke:none"
     d="m 12.964583,3.0868056 -0.352777,0 0,2.0284722 0.352777,0 0,-2.0284722 0,0 z"
     id="path9"
     inkscape:connector-curvature="0" />
  <path
     style="fill:#6d4d2a;fill-opacity:1;fill-rule:evenodd;stroke:none"
     d="m 11.641667,2.9104167 0,-2.64583337 -0.529167,0 0,2.64583337 0.529167,0 0,0 z"
     id="path11"
     inkscape:connector-curvature="0" />
  <path
     style="fill:#919190;fill-opacity:1;fill-rule:evenodd;stroke:#6e6d6d;stroke-width:0.35277778px;stroke-linecap:butt;stroke-linejoin:miter;stroke-miterlimit:4;stroke-dasharray:none;stroke-opacity:1"
     d="m 8.73125,2.8222222 c 0,-1.1465278 1.2347222,-2.0284722 2.645833,-2.0284722 1.499306,0 2.645834,0.8819444 2.645834,2.0284722 0,1.7638889 -1.146528,1.6756945 -2.557639,1.6756945 -1.4993058,0 -2.734028,0.1763889 -2.734028,-1.6756945 z"
     id="path13"
     inkscape:connector-curvature="0" />
  <path
     style="fill:#919190;fill-opacity:1;fill-rule:evenodd;stroke:#6e6d6d;stroke-width:0.35277778px;stroke-linecap:butt;stroke-linejoin:miter;stroke-miterlimit:4;stroke-dasharray:none;stroke-opacity:1"
     d="M 8.73125,1.1465278 C 8.643056,0.70555556 9.8777778,0.08819444 11.377083,0.08819444 c 1.411111,0 2.645834,0.70555556 2.645834,1.14652776 0,0.6173611 -1.058334,-0.35277776 -2.557639,-0.35277776 -1.4993058,0 -2.734028,0.97013886 -2.734028,0.26458336 z"
     id="path15"
     inkscape:connector-curvature="0" />
  <path
     style="fill:#6d4d2a;fill-opacity:1;fill-rule:evenodd;stroke:none"
     d="m 12.788194,37.218056 0.440973,0 0,-2.028332 -0.440973,0 0,2.028332 0,0 z"
     id="path17"
     inkscape:connector-curvature="0" />
  <path
     style="fill:#6d4d2a;fill-opacity:1;fill-rule:evenodd;stroke:none"
     d="m 9.7895833,37.218056 0.3527777,0 0,-2.028332 -0.3527777,0 0,2.028332 0,0 z"
     id="path19"
     inkscape:connector-curvature="0" />
  <path
     style="fill:#6d4d2a;fill-opacity:1;fill-rule:evenodd;stroke:none"
     d="m 11.1125,37.306391 0,2.733887 0.529167,0 0,-2.733887 -0.529167,0 0,0 z"
     id="path21"
     inkscape:connector-curvature="0" />
  <path
     style="fill:#919190;fill-opacity:1;fill-rule:evenodd;stroke:#6e6d6d;stroke-width:0.35277778px;stroke-linecap:butt;stroke-linejoin:miter;stroke-miterlimit:4;stroke-dasharray:none;stroke-opacity:1"
     d="m 14.022917,37.394444 c 0,1.146669 -1.234723,2.116667 -2.645834,2.116667 -1.4993052,0 -2.7340274,-0.969998 -2.645833,-2.116667 0,-1.763888 1.0583333,-1.675553 2.557639,-1.675553 1.499305,0 2.734028,-0.08834 2.734028,1.675553 z"
     id="path23"
     inkscape:connector-curvature="0" />
  <path
     style="fill:#919190;fill-opacity:1;fill-rule:evenodd;stroke:#6e6d6d;stroke-width:0.35277778px;stroke-linecap:butt;stroke-linejoin:miter;stroke-miterlimit:4;stroke-dasharray:none;stroke-opacity:1"
     d="m 14.022917,39.07028 c 0,0.440831 -1.146528,1.146387 -2.645834,1.146387 -1.4111108,0 -2.645833,-0.793609 -2.645833,-1.146387 0,-0.705556 1.0583333,0.264442 2.557639,0.264442 1.499305,0 2.734028,-0.969998 2.734028,-0.264442 z"
     id="path25"
     inkscape:connector-curvature="0" />
  <path
     style="fill:#6d4d2a;fill-opacity:1;fill-rule:evenodd;stroke:none"
     d="m 19.314583,11.024306 0,-0.440973 -2.028472,0 0,0.440973 2.028472,0 0,0 z"
     id="path27"
     inkscape:connector-curvature="0" />
  <path
     style="fill:#6d4d2a;fill-opacity:1;fill-rule:evenodd;stroke:none"
     d="m 19.314583,14.022917 0,-0.352778 -2.028472,0 0,0.352778 2.028472,0 0,0 z"
     id="path29"
     inkscape:connector-curvature="0" />
  <path
     style="fill:#6d4d2a;fill-opacity:1;fill-rule:evenodd;stroke:none"
     d="m 19.490972,12.7 2.645834,0 0,-0.440972 -2.645834,0 0,0.440972 0,0 z"
     id="path31"
     inkscape:connector-curvature="0" />
  <path
     style="fill:#919190;fill-opacity:1;fill-rule:evenodd;stroke:#6e6d6d;stroke-width:0.35277778px;stroke-linecap:butt;stroke-linejoin:miter;stroke-miterlimit:4;stroke-dasharray:none;stroke-opacity:1"
     d="m 19.579167,9.7895833 c 1.146527,0 2.028472,1.2347227 2.028472,2.6458337 0,1.499305 -0.881945,2.734027 -2.028472,2.734027 -1.763889,0 -1.675695,-1.146527 -1.675695,-2.645833 0,-1.499305 -0.176389,-2.7340277 1.675695,-2.7340277 z"
     id="path33"
     inkscape:connector-curvature="0" />
  <path
     style="fill:#919190;fill-opacity:1;fill-rule:evenodd;stroke:#6e6d6d;stroke-width:0.35277778px;stroke-linecap:butt;stroke-linejoin:miter;stroke-miterlimit:4;stroke-dasharray:none;stroke-opacity:1"
     d="m 21.254861,9.7895833 c 0.440972,0 1.146528,1.1465277 1.146528,2.6458337 0,1.411111 -0.79375,2.645833 -1.234722,2.645833 -0.617361,0 0.352777,-1.058333 0.352777,-2.557639 0,-1.411111 -0.970138,-2.7340277 -0.264583,-2.7340277 z"
     id="path35"
     inkscape:connector-curvature="0" />
  <path
     style="fill:#6d4d2a;fill-opacity:1;fill-rule:evenodd;stroke:none"
     d="m 3.2631944,14.199306 0,0.352777 2.0284723,0 0,-0.352777 -2.0284723,0 0,0 z"
     id="path37"
     inkscape:connector-curvature="0" />
  <path
     style="fill:#6d4d2a;fill-opacity:1;fill-rule:evenodd;stroke:none"
     d="m 3.2631944,11.1125 0,0.352778 2.0284723,0 0,-0.352778 -2.0284723,0 0,0 z"
     id="path39"
     inkscape:connector-curvature="0" />
  <path
     style="fill:#6d4d2a;fill-opacity:1;fill-rule:evenodd;stroke:none"
     d="m 3.0868056,12.435417 -2.64583338,0 0,0.529166 2.64583338,0 0,-0.529166 0,0 z"
     id="path41"
     inkscape:connector-curvature="0" />
  <path
     style="fill:#919190;fill-opacity:1;fill-rule:evenodd;stroke:#6e6d6d;stroke-width:0.35277778px;stroke-linecap:butt;stroke-linejoin:miter;stroke-miterlimit:4;stroke-dasharray:none;stroke-opacity:1"
     d="m 2.9986111,15.345833 c -1.1465278,0 -2.02847221,-1.234722 -2.02847221,-2.645833 0,-1.499306 0.88194441,-2.645833 2.02847221,-2.645833 1.8520833,0 1.6756945,1.146527 1.6756945,2.557639 0,1.499305 0.1763888,2.734027 -1.6756945,2.734027 z"
     id="path43"
     inkscape:connector-curvature="0" />
  <path
     style="fill:#919190;fill-opacity:1;fill-rule:evenodd;stroke:#6e6d6d;stroke-width:0.35277778px;stroke-linecap:butt;stroke-linejoin:miter;stroke-miterlimit:4;stroke-dasharray:none;stroke-opacity:1"
     d="m 1.3229167,15.434028 c -0.35277781,0 -1.05833337,-1.234722 -1.05833337,-2.734028 0,-1.411111 0.70555556,-2.645833 1.14652777,-2.645833 0.7055556,0.08819 -0.2645833,1.058333 -0.2645833,2.557639 0,1.499305 0.8819444,2.734027 0.1763889,2.822222 z"
     id="path45"
     inkscape:connector-curvature="0" />
  <path
     style="fill:#6d4d2a;fill-opacity:1;fill-rule:evenodd;stroke:none"
     d="m 19.314583,24.60625 0,-0.440972 -2.028472,0 0,0.440972 2.028472,0 0,0 z"
     id="path47"
     inkscape:connector-curvature="0" />
  <path
     style="fill:#6d4d2a;fill-opacity:1;fill-rule:evenodd;stroke:none"
     d="m 19.314583,27.604861 0,-0.352778 -2.028472,0 0,0.352778 2.028472,0 0,0 z"
     id="path49"
     inkscape:connector-curvature="0" />
  <path
     style="fill:#6d4d2a;fill-opacity:1;fill-rule:evenodd;stroke:none"
     d="m 19.490972,26.370139 2.645834,0 0,-0.529167 -2.645834,0 0,0.529167 0,0 z"
     id="path51"
     inkscape:connector-curvature="0" />
  <path
     style="fill:#919190;fill-opacity:1;fill-rule:evenodd;stroke:#6e6d6d;stroke-width:0.35277778px;stroke-linecap:butt;stroke-linejoin:miter;stroke-miterlimit:4;stroke-dasharray:none;stroke-opacity:1"
     d="m 19.579167,23.459722 c 1.146527,0 2.028472,1.146528 2.028472,2.645834 0,1.411111 -0.881945,2.645833 -2.028472,2.645833 -1.763889,0 -1.675695,-1.146528 -1.675695,-2.645833 0,-1.411112 -0.176389,-2.645834 1.675695,-2.645834 z"
     id="path53"
     inkscape:connector-curvature="0" />
  <path
     style="fill:#919190;fill-opacity:1;fill-rule:evenodd;stroke:#6e6d6d;stroke-width:0.35277778px;stroke-linecap:butt;stroke-linejoin:miter;stroke-miterlimit:4;stroke-dasharray:none;stroke-opacity:1"
     d="m 21.254861,23.371528 c 0.440972,0 1.146528,1.146528 1.146528,2.645833 0,1.499306 -0.79375,2.645975 -1.234722,2.645975 -0.617361,0 0.352777,-1.058475 0.352777,-2.55778 0,-1.411112 -0.970138,-2.734028 -0.264583,-2.734028 z"
     id="path55"
     inkscape:connector-curvature="0" />
  <path
     style="fill:#6d4d2a;fill-opacity:1;fill-rule:evenodd;stroke:none"
     d="m 3.2631944,27.78125 0,0.352778 2.0284723,0 0,-0.352778 -2.0284723,0 0,0 z"
     id="path57"
     inkscape:connector-curvature="0" />
  <path
     style="fill:#6d4d2a;fill-opacity:1;fill-rule:evenodd;stroke:none"
     d="m 3.2631944,24.694444 0,0.440973 2.0284723,0 0,-0.440973 -2.0284723,0 0,0 z"
     id="path59"
     inkscape:connector-curvature="0" />
  <path
     style="fill:#6d4d2a;fill-opacity:1;fill-rule:evenodd;stroke:none"
     d="m 3.0868056,26.017361 -2.64583338,0 0,0.529167 2.64583338,0 0,-0.529167 0,0 z"
     id="path61"
     inkscape:connector-curvature="0" />
  <path
     style="fill:#919190;fill-opacity:1;fill-rule:evenodd;stroke:#6e6d6d;stroke-width:0.35277778px;stroke-linecap:butt;stroke-linejoin:miter;stroke-miterlimit:4;stroke-dasharray:none;stroke-opacity:1"
     d="m 2.9986111,28.927778 c -1.1465278,0 -2.02847221,-1.146528 -2.02847221,-2.645834 0,-1.499305 0.88194441,-2.645833 2.02847221,-2.645833 1.8520833,0 1.6756945,1.146528 1.6756945,2.557639 0,1.499306 0.1763888,2.734028 -1.6756945,2.734028 z"
     id="path63"
     inkscape:connector-curvature="0" />
  <path
     style="fill:#919190;fill-opacity:1;fill-rule:evenodd;stroke:#6e6d6d;stroke-width:0.35277778px;stroke-linecap:butt;stroke-linejoin:miter;stroke-miterlimit:4;stroke-dasharray:none;stroke-opacity:1"
     d="m 1.3229167,29.016113 c -0.35277781,0 -1.05833337,-1.234863 -1.05833337,-2.645974 0,-1.499306 0.70555556,-2.645833 1.14652777,-2.645833 0.7055556,0 -0.2645833,1.058333 -0.2645833,2.469444 0,1.499306 0.8819444,2.822363 0.1763889,2.822363 z"
     id="path65"
     inkscape:connector-curvature="0" />
  <path
     style="fill:#80a1c8;fill-opacity:1;fill-rule:evenodd;stroke:none"
     d="m 17.374306,3.175 c 1.234722,0 2.293055,0.9701389 2.293055,2.2930556 0,29.4569444 0,29.4569444 0,29.4569444 0,1.323058 -1.058333,2.293056 -2.293055,2.293056 -11.818056,0 -11.818056,0 -11.818056,0 -1.2347222,0 -2.2930556,-0.969998 -2.2930556,-2.293056 0,-29.4569444 0,-29.4569444 0,-29.4569444 C 3.2631944,4.1451389 4.3215278,3.175 5.55625,3.175 Z"
     id="path67"
     inkscape:connector-curvature="0" />
  <path
     style="fill:#7fb2ff;fill-opacity:1;fill-rule:evenodd;stroke:none"
     d="m 17.021528,3.4395833 c 1.234722,0 2.116666,0.9701389 2.116666,2.2048611 0,28.0458336 0,28.0458336 0,28.0458336 0,1.234722 -0.881944,2.205002 -2.116666,2.205002 -10.9361113,0 -10.9361113,0 -10.9361113,0 -1.1465278,0 -2.0284723,-0.97028 -2.0284723,-2.205002 0,-28.0458336 0,-28.0458336 0,-28.0458336 0,-1.2347222 0.8819445,-2.2048611 2.0284723,-2.2048611 z"
     id="path69"
     inkscape:connector-curvature="0" />
</svg>
