<?xml version="1.0" encoding="UTF-8" standalone="no"?>
<svg id="svg2" xmlns:rdf="http://www.w3.org/1999/02/22-rdf-syntax-ns#" xmlns="http://www.w3.org/2000/svg" height="22.496mm" viewBox="0 0 39.437733 22.495934" width="39.438mm" version="1.0" xmlns:cc="http://creativecommons.org/ns#" xmlns:dc="http://purl.org/dc/elements/1.1/">
 <metadata id="metadata73">
  <rdf:RDF>
   <cc:Work rdf:about="">
    <dc:format>image/svg+xml</dc:format>
    <dc:type rdf:resource="http://purl.org/dc/dcmitype/StillImage"/>
    <dc:title/>
   </cc:Work>
  </rdf:RDF>
 </metadata>
 <g fill="#6d4d2a" fill-rule="evenodd">
  <path id="path7" d="m36.336 9.8778v-0.44097h-2.0286v0.44097h2.0286z"/>
  <path id="path9" d="m36.336 12.876v-0.35278h-2.0286v0.35278h2.0286z"/>
  <path id="path11" d="m36.512 11.642h2.6458v-0.52917h-2.6458v0.52917z"/>
 </g>
 <path id="path13" d="m36.601 8.7312c1.1464-0.088194 2.0283 1.1465 2.0283 2.6458 0 1.4111-0.88194 2.6458-2.0283 2.6458-1.8522 0-1.6758-1.1465-1.6758-2.6458 0-1.4111-0.17639-2.6458 1.6758-2.6458z" fill-rule="evenodd" stroke="#6e6d6d" stroke-width=".35278px" fill="#919190"/>
 <path id="path15" d="m38.188 8.6431c0.44111 0 1.1467 1.1465 1.1467 2.6458s-0.70556 2.6458-1.1467 2.6458c-0.70556 0 0.26472-1.0583 0.26472-2.5576 0-1.4111-0.88194-2.734-0.26472-2.734z" fill-rule="evenodd" stroke="#6e6d6d" stroke-width=".35278px" fill="#919190"/>
 <g fill="#6d4d2a" fill-rule="evenodd">
  <path id="path17" d="m3.2632 12.788v0.35278h2.0285v-0.35278h-2.0285z"/>
  <path id="path19" d="m3.2632 9.7014v0.44097h2.0285v-0.44097h-2.0285z"/>
  <path id="path21" d="m3.0868 11.024h-2.6458v0.52917h2.6458v-0.52917z"/>
 </g>
 <path id="path23" d="m2.9986 13.935c-1.1465 0-2.0285-1.1465-2.0285-2.6458s0.88194-2.6458 2.0285-2.6458c1.8521 0 1.6757 1.1465 1.6757 2.5576 0 1.4993 0.17639 2.734-1.6757 2.734z" fill-rule="evenodd" stroke="#6e6d6d" stroke-width=".35278px" fill="#919190"/>
 <path id="path25" d="m1.4111 14.023c-0.44097 0-1.1465-1.2347-1.1465-2.6458 0-1.4993 0.70556-2.6458 1.1465-2.6458 0.70556 0-0.26458 1.0583-0.26458 2.4694 0 1.4993 0.88194 2.8222 0.26458 2.8222z" fill-rule="evenodd" stroke="#6e6d6d" stroke-width=".35278px" fill="#919190"/>
 <g fill="#6d4d2a" fill-rule="evenodd">
  <path id="path27" d="m29.457 19.315h0.44111v-2.0285h-0.44111v2.0285z"/>
  <path id="path29" d="m26.37 19.315h0.44097v-2.0285h-0.44097v2.0285z"/>
  <path id="path31" d="m27.693 19.491v2.6458h0.52917v-2.6458h-0.52917z"/>
 </g>
 <path id="path33" d="m30.603 19.579c0 1.0583-1.1464 2.0285-2.6457 2.0285-1.4111 0-2.6458-0.97014-2.6458-2.0285 0-1.8521 1.1465-1.7639 2.6458-1.7639 1.411 0 2.6457-0.08819 2.6457 1.7639z" fill-rule="evenodd" stroke="#6e6d6d" stroke-width=".35278px" fill="#919190"/>
 <path id="path35" d="m30.692 21.167c0 0.44097-1.2347 1.1465-2.6458 1.1465-1.4993 0-2.6458-0.79375-2.6458-1.1465 0-0.70556 1.0583 0.26458 2.5576 0.26458 1.411 0 2.734-0.97014 2.734-0.26458z" fill-rule="evenodd" stroke="#6e6d6d" stroke-width=".35278px" fill="#919190"/>
 <g fill="#6d4d2a" fill-rule="evenodd">
  <path id="path37" d="m26.282 3.175h-0.35278v2.0285h0.35278v-2.0285z"/>
  <path id="path39" d="m29.369 3.175h-0.44083v2.0285h0.44083v-2.0285z"/>
  <path id="path41" d="m28.046 2.9986v-2.6458h-0.52917v2.6458h0.52917z"/>
 </g>
 <path id="path43" d="m25.135 2.9104c0-1.0583 1.1465-2.0285 2.6458-2.0285s2.6457 0.97014 2.6457 2.0285c0 1.8521-1.1464 1.7639-2.6457 1.7639-1.4111 0-2.6458 0.088194-2.6458-1.7639z" fill-rule="evenodd" stroke="#6e6d6d" stroke-width=".35278px" fill="#919190"/>
 <path id="path45" d="m25.047 1.3229c0-0.44097 1.2347-1.1465 2.6458-1.1465 1.4994 0 2.6458 0.79375 2.6458 1.1465 0 0.70556-1.0583-0.26458-2.4694-0.26458-1.4993 0-2.8222 0.97014-2.8222 0.26458z" fill-rule="evenodd" stroke="#6e6d6d" stroke-width=".35278px" fill="#919190"/>
 <g fill="#6d4d2a" fill-rule="evenodd">
  <path id="path47" d="m15.875 19.315h0.35278v-2.0285h-0.35278v2.0285z"/>
  <path id="path49" d="m12.788 19.315h0.44097v-2.0285h-0.44097v2.0285z"/>
  <path id="path51" d="m14.111 19.491v2.6458h0.52917v-2.6458h-0.52917z"/>
 </g>
 <path id="path53" d="m17.022 19.579c0 1.0583-1.1465 2.0285-2.6458 2.0285s-2.6458-0.97014-2.6458-2.0285c0-1.8521 1.1465-1.7639 2.5576-1.7639 1.4993 0 2.734-0.08819 2.734 1.7639z" fill-rule="evenodd" stroke="#6e6d6d" stroke-width=".35278px" fill="#919190"/>
 <path id="path55" d="m17.11 21.167c0 0.44097-1.2347 1.1465-2.6458 1.1465-1.4993 0-2.6458-0.79375-2.6458-1.1465 0-0.70556 1.0583 0.26458 2.4694 0.26458 1.4993 0 2.8222-0.97014 2.8222-0.26458z" fill-rule="evenodd" stroke="#6e6d6d" stroke-width=".35278px" fill="#919190"/>
 <g fill="#6d4d2a" fill-rule="evenodd">
  <path id="path57" d="m12.7 3.175h-0.44097v2.0285h0.44097v-2.0285z"/>
  <path id="path59" d="m15.787 3.175h-0.44097v2.0285h0.44097v-2.0285z"/>
  <path id="path61" d="m14.464 2.9986v-2.6458h-0.52917v2.6458h0.52917z"/>
 </g>
 <g fill-rule="evenodd">
  <path id="path63" d="m11.553 2.9104c0-1.0583 1.1465-2.0285 2.6458-2.0285 1.4111 0 2.6458 0.97014 2.6458 2.0285 0 1.8521-1.1465 1.7639-2.6458 1.7639-1.4111 0-2.6458 0.088194-2.6458-1.7639z" stroke="#6e6d6d" stroke-width=".35278px" fill="#919190"/>
  <path id="path65" d="m11.465 1.3229c0-0.44097 1.1465-1.1465 2.6458-1.1465s2.6458 0.79375 2.6458 1.1465c0 0.70556-1.0583-0.26458-2.5576-0.26458-1.4111 0-2.734 0.97014-2.734 0.26458z" stroke="#6e6d6d" stroke-width=".35278px" fill="#919190"/>
  <path id="path67" d="m2.734 10.583c0-4.2333 3.3514-7.7611 7.4083-7.7611h19.491c4.0569 0 7.4083 3.5278 7.4083 7.7611v1.7639c0 4.3215-3.3514 7.7611-7.4083 7.7611h-19.491c-4.0569 0-7.4083-3.4396-7.4083-7.7611z" fill="#80a1c8"/>
  <path id="path69" d="m3.7924 10.583c0-4.0569 3.0868-7.3201 6.9674-7.3201h18.433c3.8806 0 7.0556 3.2632 7.0556 7.3201v1.6757c0 4.0569-3.175 7.3201-7.0556 7.3201h-18.433c-3.8806 0-6.9674-3.2632-6.9674-7.3201z" fill="#c3d6ef"/>
 </g>
</svg>
