<?xml version="1.0" encoding="UTF-8" standalone="no"?>
<svg
   xmlns:dc="http://purl.org/dc/elements/1.1/"
   xmlns:cc="http://creativecommons.org/ns#"
   xmlns:rdf="http://www.w3.org/1999/02/22-rdf-syntax-ns#"
   xmlns:svg="http://www.w3.org/2000/svg"
   xmlns="http://www.w3.org/2000/svg"
   xmlns:sodipodi="http://sodipodi.sourceforge.net/DTD/sodipodi-0.dtd"
   xmlns:inkscape="http://www.inkscape.org/namespaces/inkscape"
   version="1.0"
   width="23.029333mm"
   height="16.679333mm"
   id="svg3389"
   inkscape:version="0.91 r13725"
   viewBox="0 0 23.029333 16.679333"
   sodipodi:docname="MesaCuadrada2Hor.svg">
  <metadata
     id="metadata3420">
    <rdf:RDF>
      <cc:Work
         rdf:about="">
        <dc:format>image/svg+xml</dc:format>
        <dc:type
           rdf:resource="http://purl.org/dc/dcmitype/StillImage" />
        <dc:title></dc:title>
      </cc:Work>
    </rdf:RDF>
  </metadata>
  <sodipodi:namedview
     pagecolor="#ffffff"
     bordercolor="#666666"
     borderopacity="1"
     objecttolerance="10"
     gridtolerance="10"
     guidetolerance="10"
     inkscape:pageopacity="0"
     inkscape:pageshadow="2"
     inkscape:window-width="640"
     inkscape:window-height="480"
     id="namedview3418"
     inkscape:document-units="mm"
     showgrid="false"
     inkscape:zoom="3.993232"
     inkscape:cx="40.8"
     inkscape:cy="29.549999"
     inkscape:window-x="0"
     inkscape:window-y="0"
     inkscape:window-maximized="0"
     inkscape:current-layer="svg3389" />
  <defs
     id="defs3391">
    <pattern
       id="EMFhbasepattern"
       patternUnits="userSpaceOnUse"
       width="6"
       height="6"
       x="0"
       y="0" />
  </defs>
  <path
     style="fill:#6d4c29;fill-opacity:1;fill-rule:evenodd;stroke:none"
     d="m 19.931944,6.7909722 0,-0.3527778 -2.028472,0 0,0.3527778 2.028472,0 0,0 z"
     id="path3394"
     inkscape:connector-curvature="0" />
  <path
     style="fill:#6d4c29;fill-opacity:1;fill-rule:evenodd;stroke:none"
     d="m 19.931944,9.8777778 0,-0.3527778 -2.028472,0 0,0.3527778 2.028472,0 0,0 z"
     id="path3396"
     inkscape:connector-curvature="0" />
  <path
     style="fill:#6d4c29;fill-opacity:1;fill-rule:evenodd;stroke:none"
     d="m 20.108333,8.5548611 2.645834,0 0,-0.5291667 -2.645834,0 0,0.5291667 0,0 z"
     id="path3398"
     inkscape:connector-curvature="0" />
  <path
     style="fill:#919191;fill-opacity:1;fill-rule:evenodd;stroke:#6d6d6d;stroke-width:0.35277778px;stroke-linecap:butt;stroke-linejoin:miter;stroke-miterlimit:4;stroke-dasharray:none;stroke-opacity:1"
     d="m 20.196528,5.6444444 c 1.146528,0 2.028472,1.2347223 2.028472,2.6458334 0,1.4993055 -0.881944,2.6458332 -2.028472,2.6458332 -1.763889,0 -1.675695,-1.0583332 -1.675695,-2.5576388 0,-1.4993055 -0.176389,-2.7340278 1.675695,-2.7340278 z"
     id="path3400"
     inkscape:connector-curvature="0" />
  <path
     style="fill:#919191;fill-opacity:1;fill-rule:evenodd;stroke:#6d6d6d;stroke-width:0.35277778px;stroke-linecap:butt;stroke-linejoin:miter;stroke-miterlimit:4;stroke-dasharray:none;stroke-opacity:1"
     d="m 21.872222,5.6444444 c 0.440972,0 1.058334,1.1465278 1.058334,2.6458334 0,1.4111111 -0.705556,2.6458332 -1.146528,2.6458332 -0.705556,0 0.264583,-1.0583332 0.264583,-2.5576388 0,-1.4993055 -0.881944,-2.7340278 -0.176389,-2.7340278 z"
     id="path3402"
     inkscape:connector-curvature="0" />
  <path
     style="fill:#6d4c29;fill-opacity:1;fill-rule:evenodd;stroke:none"
     d="m 3.175,9.7895833 0,0.3527777 2.0284722,0 0,-0.3527777 -2.0284722,0 0,0 z"
     id="path3404"
     inkscape:connector-curvature="0" />
  <path
     style="fill:#6d4c29;fill-opacity:1;fill-rule:evenodd;stroke:none"
     d="m 3.175,6.7027778 0,0.3527778 2.0284722,0 0,-0.3527778 -2.0284722,0 0,0 z"
     id="path3406"
     inkscape:connector-curvature="0" />
  <path
     style="fill:#6d4c29;fill-opacity:1;fill-rule:evenodd;stroke:none"
     d="m 2.9986111,8.0256944 -2.64583332,0 0,0.5291667 2.64583332,0 0,-0.5291667 0,0 z"
     id="path3408"
     inkscape:connector-curvature="0" />
  <path
     style="fill:#919191;fill-opacity:1;fill-rule:evenodd;stroke:#6d6d6d;stroke-width:0.35277778px;stroke-linecap:butt;stroke-linejoin:miter;stroke-miterlimit:4;stroke-dasharray:none;stroke-opacity:1"
     d="m 2.9104167,10.936111 c -1.1465278,0 -2.02847226,-1.2347221 -2.02847226,-2.6458332 0,-1.4993056 0.88194446,-2.6458334 2.02847226,-2.6458334 1.8520833,0 1.6756944,1.1465278 1.6756944,2.5576389 0,1.4993056 0.1763889,2.7340277 -1.6756944,2.7340277 z"
     id="path3410"
     inkscape:connector-curvature="0" />
  <path
     style="fill:#919191;fill-opacity:1;fill-rule:evenodd;stroke:#6d6d6d;stroke-width:0.35277778px;stroke-linecap:butt;stroke-linejoin:miter;stroke-miterlimit:4;stroke-dasharray:none;stroke-opacity:1"
     d="m 1.2347222,10.936111 c -0.35277776,0 -1.05833331,-1.1465277 -1.05833331,-2.6458332 0,-1.4111111 0.70555555,-2.6458334 1.14652781,-2.6458334 0.7055555,0 -0.2645834,1.0583334 -0.2645834,2.5576389 0,1.4993056 0.8819445,2.7340277 0.1763889,2.7340277 z"
     id="path3412"
     inkscape:connector-curvature="0" />
  <path
     style="fill:#7fa1c9;fill-opacity:1;fill-rule:evenodd;stroke:none"
     d="m 20.196528,14.2875 c 0,1.234722 -1.058334,2.293056 -2.293056,2.293056 -12.6999998,0 -12.6999998,0 -12.6999998,0 -1.2347222,0 -2.2048611,-1.058334 -2.2048611,-2.293056 0,-11.9944444 0,-11.9944444 0,-11.9944444 C 2.9986111,0.97013889 3.96875,0 5.2034722,0 17.903472,0 17.903472,0 17.903472,0 c 1.234722,0 2.293056,0.97013889 2.293056,2.2930556 z"
     id="path3414"
     inkscape:connector-curvature="0" />
  <path
     style="fill:#c1d7f7;fill-opacity:1;fill-rule:evenodd;stroke:none"
     d="m 19.138194,13.405556 c 0,1.146527 -0.881944,2.116666 -2.028472,2.116666 -11.6416664,0 -11.6416664,0 -11.6416664,0 -1.1465278,0 -2.1166667,-0.970139 -2.1166667,-2.116666 0,-11.024306 0,-11.024306 0,-11.024306 0,-1.1465278 0.9701389,-2.02847222 2.1166667,-2.02847222 11.6416664,0 11.6416664,0 11.6416664,0 1.146528,0 2.028472,0.88194442 2.028472,2.02847222 z"
     id="path3416"
     inkscape:connector-curvature="0" />
</svg>
