<?xml version="1.0" encoding="UTF-8" standalone="no"?>
<svg
   xmlns:dc="http://purl.org/dc/elements/1.1/"
   xmlns:cc="http://creativecommons.org/ns#"
   xmlns:rdf="http://www.w3.org/1999/02/22-rdf-syntax-ns#"
   xmlns:svg="http://www.w3.org/2000/svg"
   xmlns="http://www.w3.org/2000/svg"
   xmlns:sodipodi="http://sodipodi.sourceforge.net/DTD/sodipodi-0.dtd"
   xmlns:inkscape="http://www.inkscape.org/namespaces/inkscape"
   version="1.0"
   width="85.462532mm"
   height="56.887535mm"
   id="svg2"
   inkscape:version="0.91 r13725"
   viewBox="0 0 85.462532 56.887535"
   sodipodi:docname="MotoPerfil.svg">
  <metadata
     id="metadata58">
    <rdf:RDF>
      <cc:Work
         rdf:about="">
        <dc:format>image/svg+xml</dc:format>
        <dc:type
           rdf:resource="http://purl.org/dc/dcmitype/StillImage" />
        <dc:title></dc:title>
      </cc:Work>
    </rdf:RDF>
  </metadata>
  <sodipodi:namedview
     pagecolor="#ffffff"
     bordercolor="#666666"
     borderopacity="1"
     objecttolerance="10"
     gridtolerance="10"
     guidetolerance="10"
     inkscape:pageopacity="0"
     inkscape:pageshadow="2"
     inkscape:window-width="640"
     inkscape:window-height="480"
     id="namedview56"
     inkscape:document-units="mm"
     showgrid="false"
     inkscape:zoom="1.1524999"
     inkscape:cx="151.41"
     inkscape:cy="100.785"
     inkscape:window-x="0"
     inkscape:window-y="0"
     inkscape:window-maximized="0"
     inkscape:current-layer="svg2" />
  <defs
     id="defs4">
    <clipPath
       clipPathUnits="userSpaceOnUse"
       id="clipEmfPath1">
      <path
         d="m 16.25,6.25 70.9375,0 0,66.875 -70.9375,0 z"
         id="path7"
         inkscape:connector-curvature="0" />
    </clipPath>
    <pattern
       id="EMFhbasepattern"
       patternUnits="userSpaceOnUse"
       width="6"
       height="6"
       x="0"
       y="0" />
  </defs>
  <path
     style="fill:#cccccc;fill-opacity:1;fill-rule:nonzero;stroke:#000000;stroke-width:0.35277778px;stroke-linecap:butt;stroke-linejoin:miter;stroke-miterlimit:4;stroke-dasharray:none;stroke-opacity:1"
     d="m 6.4381944,20.6375 c 0,0 1.5875,-0.08819 3.5277778,0 3.9687498,0.176389 9.6131948,0.440972 10.6715278,5.291667 0.352778,1.411111 -1.763889,1.940277 -2.116667,0.529166 0,0 0,-0.176389 -0.08819,-0.352777 -1.322917,-3.351389 -5.55625,-3.175 -8.5548612,-3.263195 C 8.0256944,22.754167 6.5263889,22.754167 6.5263889,22.754167 5.0270833,22.842361 5.0270833,20.6375 6.4381944,20.6375 Z"
     id="path10"
     inkscape:connector-curvature="0" />
  <path
     style="fill:#333333;fill-opacity:1;fill-rule:evenodd;stroke:#000000;stroke-width:0.35277778px;stroke-linecap:butt;stroke-linejoin:miter;stroke-miterlimit:4;stroke-dasharray:none;stroke-opacity:1"
     d="m 10.671528,41.892502 0.08819,2.998611 6.879167,-7.143891 4.145139,2.734169 8.554861,7.761111 12.611664,-0.529166 4.586111,-2.469445 -19.755414,-8.995833 -12.523611,-4.674447 -2.998611,2.116667 2.998611,2.55778 -2.822222,5.908886 -1.763889,-0.264442 z"
     id="path12"
     inkscape:connector-curvature="0" />
  <path
     style="fill:#666665;fill-opacity:1;fill-rule:evenodd;stroke:#000000;stroke-width:0.35277778px;stroke-linecap:butt;stroke-linejoin:miter;stroke-miterlimit:4;stroke-dasharray:none;stroke-opacity:1"
     d="m 19.314583,42.24528 c 2.998611,-1.5875 6.702778,-0.529167 8.378473,2.381109 1.5875,2.998611 0.529166,6.702778 -2.469445,8.378613 -2.910417,1.675554 -6.702778,0.61722 -8.290278,-2.381391 C 15.257639,47.625 16.315972,43.920833 19.314583,42.24528 Z M 17.815278,39.599447 C 22.225,37.130002 27.869444,38.805556 30.338889,43.215278 32.719998,47.625 31.132498,53.181391 26.722917,55.650836 22.313194,58.12028 16.756944,56.53278 14.2875,52.123058 11.818056,47.625 13.405556,42.068891 17.815278,39.599447 Z"
     id="path14"
     inkscape:connector-curvature="0" />
  <path
     style="fill:#cccccc;fill-opacity:1;fill-rule:nonzero;stroke:#000000;stroke-width:0.35277778px;stroke-linecap:butt;stroke-linejoin:miter;stroke-miterlimit:4;stroke-dasharray:none;stroke-opacity:1"
     d="m 20.6375,44.714724 c 0.529167,-0.352777 1.146528,-0.441113 1.675694,-0.441113 3.880556,-6.526389 3.880556,-6.526389 3.880556,-6.526389 2.292914,0.881945 2.292914,0.881945 2.292914,0.881945 -4.056803,6.438335 -4.056803,6.438335 -4.056803,6.438335 0.352778,0.264442 0.617361,0.529167 0.79375,0.969998 0.970139,1.5875 0.352778,3.704167 -1.322917,4.586111 -1.5875,0.881945 -3.704166,0.264725 -4.586111,-1.322775 C 18.432639,47.625 18.961806,45.596669 20.6375,44.714724 Z"
     id="path16"
     inkscape:connector-curvature="0" />
  <path
     style="fill:#fb0f0c;fill-opacity:1;fill-rule:evenodd;stroke:#000000;stroke-width:0.35277778px;stroke-linecap:butt;stroke-linejoin:miter;stroke-miterlimit:4;stroke-dasharray:none;stroke-opacity:1"
     d="m 17.550694,24.959028 c 30.250695,2.734028 30.250695,2.734028 30.250695,2.734028 0,0 -2.381391,4.14528 -2.381391,6.438335 0,2.381109 5.73278,9.701389 5.73278,9.701389 8.466666,0.793609 8.466666,0.793609 8.466666,0.793609 5.115278,-7.672776 5.115278,-7.672776 5.115278,-7.672776 -4.144998,-11.994585 -4.144998,-11.994585 -4.144998,-11.994585 0.529167,-1.058334 0.529167,-1.058334 0.529167,-1.058334 -0.705555,-2.38125 -0.705555,-2.38125 -0.705555,-2.38125 C 57.502778,14.552083 57.502778,14.552083 57.502778,14.552083 59.884169,12.7 59.884169,12.7 59.884169,12.7 c 0.264442,-1.146528 0.264442,-1.146528 0.264442,-1.146528 1.499447,-1.499305 1.499447,-1.499305 1.499447,-1.499305 4.056944,1.5875 4.056944,1.5875 4.056944,1.5875 1.939996,4.056944 1.939996,4.056944 1.939996,4.056944 -1.146387,1.852083 -1.146387,1.852083 -1.146387,1.852083 -1.675553,0 -1.675553,0 -1.675553,0 -0.705556,0.970139 -0.705556,0.970139 -0.705556,0.970139 0,0 1.146387,0.352778 1.499165,0.79375 0.352777,0.440973 8.907497,10.759864 10.406944,11.465419 1.499447,0.793609 6.173611,4.144998 6.96722,5.203331 0.882227,1.058334 1.411393,2.028614 1.411393,2.028614 C 74.171387,36.953613 74.171387,36.953613 74.171387,36.953613 63.676389,47.184169 63.676389,47.184169 63.676389,47.184169 39.423058,44.714724 39.423058,44.714724 39.423058,44.714724 13.581944,33.425836 13.581944,33.425836 13.581944,33.425836 c 0,0 -1.5875,-0.881945 -0.79375,-1.94056 0.79375,-1.146387 4.7625,-6.526248 4.7625,-6.526248 z"
     id="path18"
     inkscape:connector-curvature="0" />
  <path
     style="fill:#666665;fill-opacity:1;fill-rule:evenodd;stroke:#000000;stroke-width:0.35277778px;stroke-linecap:butt;stroke-linejoin:miter;stroke-miterlimit:4;stroke-dasharray:none;stroke-opacity:1"
     d="m 69.938336,47.625 c 0,-3.351389 2.733886,-6.085276 6.173611,-6.085276 3.351106,0 6.085275,2.733887 6.085275,6.085276 0,3.439724 -2.734169,6.173611 -6.085275,6.173611 -3.439725,0 -6.173611,-2.733887 -6.173611,-6.173611 z m -2.998612,0 c 0,-5.026942 4.056945,-9.172222 9.172223,-9.172222 5.026942,0 9.172222,4.14528 9.172222,9.172222 0,5.115278 -4.14528,9.172222 -9.172222,9.172222 -5.115278,0 -9.172223,-4.056944 -9.172223,-9.172222 z"
     id="path20"
     inkscape:connector-curvature="0" />
  <path
     style="fill:#cccccc;fill-opacity:1;fill-rule:nonzero;stroke:#000000;stroke-width:0.35277778px;stroke-linecap:butt;stroke-linejoin:miter;stroke-miterlimit:4;stroke-dasharray:none;stroke-opacity:1"
     d="m 72.672222,47.625 c 0,-0.61722 0.176389,-1.146387 0.440831,-1.675553 -2.998329,-5.027225 -2.998329,-5.027225 -2.998329,-5.027225 1.940278,-1.5875 1.940278,-1.5875 1.940278,-1.5875 2.82194,5.115278 2.82194,5.115278 2.82194,5.115278 0.352778,-0.08805 0.793891,-0.176389 1.235005,-0.176389 1.851942,0 3.351106,1.499447 3.351106,3.351389 0,1.852224 -1.499164,3.439724 -3.351106,3.439724 -1.94056,0 -3.439725,-1.5875 -3.439725,-3.439724 z"
     id="path22"
     inkscape:connector-curvature="0" />
  <path
     style="fill:#98320c;fill-opacity:1;fill-rule:nonzero;stroke:#000000;stroke-width:0.35277778px;stroke-linecap:butt;stroke-linejoin:miter;stroke-miterlimit:4;stroke-dasharray:none;stroke-opacity:1"
     d="m 57.767502,15.169444 c 0.176389,-0.176388 0.176389,-0.176388 0.176389,-0.176388 2.20472,1.146527 2.20472,1.146527 2.20472,1.146527 0.441113,2.734028 0.441113,2.734028 0.441113,2.734028 3.175,0.176389 3.175,0.176389 3.175,0.176389 -2.028613,1.5875 -2.028613,1.5875 -2.028613,1.5875 9.260558,15.610558 9.260558,15.610558 9.260558,15.610558 -9.877778,9.260275 -9.877778,9.260275 -9.877778,9.260275 C 44.008887,43.215278 44.008887,43.215278 44.008887,43.215278 36.5125,34.572222 36.5125,34.572222 36.5125,34.572222 c 3.968891,-5.291666 3.968891,-5.291666 3.968891,-5.291666 7.319998,-1.499306 7.319998,-1.499306 7.319998,-1.499306 -0.352778,0.529026 -2.381391,4.233474 -2.381391,6.350141 0,2.381109 5.73278,9.701389 5.73278,9.701389 8.466666,0.793609 8.466666,0.793609 8.466666,0.793609 5.115278,-7.672776 5.115278,-7.672776 5.115278,-7.672776 -4.144998,-11.994585 -4.144998,-11.994585 -4.144998,-11.994585 0.529167,-1.058334 0.529167,-1.058334 0.529167,-1.058334 -0.705555,-2.38125 -0.705555,-2.38125 -0.705555,-2.38125 z"
     id="path24"
     inkscape:connector-curvature="0" />
  <path
     style="fill:#666665;fill-opacity:1;fill-rule:evenodd;stroke:#000000;stroke-width:0.35277778px;stroke-linecap:butt;stroke-linejoin:miter;stroke-miterlimit:4;stroke-dasharray:none;stroke-opacity:1"
     d="m 18.079861,25.223611 c 0,0 0,0 0.08819,0 1.234722,0.440972 9.965972,3.351389 14.463888,3.880556 4.850554,0.529166 17.021387,-0.440831 17.021387,-0.440831 0,0 1.058333,-3.086947 0.08834,-3.880697 -0.881945,-0.79375 -8.555003,-0.617361 -11.818056,-1.234722 -3.263053,-0.529167 -5.820833,-2.557639 -8.202224,-2.557639 -2.381109,0 -9.701248,0 -10.759581,0.352778 -1.146528,0.352777 -0.881945,3.880555 -0.881945,3.880555 z"
     id="path26"
     inkscape:connector-curvature="0" />
  <path
     style="fill:#333333;fill-opacity:1;fill-rule:evenodd;stroke:#000000;stroke-width:0.35277778px;stroke-linecap:butt;stroke-linejoin:miter;stroke-miterlimit:4;stroke-dasharray:none;stroke-opacity:1"
     d="m 54.856944,14.993056 c 0,0 -1.411111,0.440972 -1.411111,1.499305 0,1.058333 0.440831,0.970139 1.5875,0.970139 1.234723,0 1.763889,-0.529167 3.351389,-0.617361 1.5875,-0.176389 2.822222,-0.881945 2.822222,-1.322917 0,-0.529166 -0.705555,-0.970139 -2.55778,-0.970139 -1.851942,0 -3.79222,0.440973 -3.79222,0.440973 z"
     id="path28"
     inkscape:connector-curvature="0" />
  <path
     style="fill:#333333;fill-opacity:1;fill-rule:evenodd;stroke:#000000;stroke-width:0.35277778px;stroke-linecap:butt;stroke-linejoin:miter;stroke-miterlimit:4;stroke-dasharray:none;stroke-opacity:1"
     d="m 60.236664,11.288889 c 0,0 -0.793608,-4.7625001 -2.733886,-4.7625001 -1.940278,0 -3.439442,0.7055555 -3.351389,2.2930555 0.176389,1.5874996 -0.08805,2.1166666 1.763889,1.6756946 1.852224,-0.440972 2.645833,-0.7055557 2.645833,-0.7055557 1.146387,3.3513887 1.146387,3.3513887 1.146387,3.3513887 z"
     id="path30"
     inkscape:connector-curvature="0" />
  <path
     style="fill:none;stroke:#000000;stroke-width:0.35277778px;stroke-linecap:butt;stroke-linejoin:miter;stroke-miterlimit:4;stroke-dasharray:none;stroke-opacity:1"
     d="m 60.413336,11.553472 3.79222,1.5875 2.116666,4.409722"
     id="path32"
     inkscape:connector-curvature="0" />
  <path
     style="fill:#980f08;fill-opacity:1;fill-rule:nonzero;stroke:#000000;stroke-width:0.35277778px;stroke-linecap:butt;stroke-linejoin:miter;stroke-miterlimit:4;stroke-dasharray:none;stroke-opacity:1"
     d="m 4.5861111,1.7638889 20.0201389,0 0,18.8736111 -20.0201389,0 0,-18.8736111 z"
     id="path34"
     inkscape:connector-curvature="0" />
  <path
     style="fill:#980f08;fill-opacity:1;fill-rule:nonzero;stroke:#000000;stroke-width:1.25px;stroke-linecap:butt;stroke-linejoin:miter;stroke-miterlimit:4;stroke-dasharray:none;stroke-opacity:1"
     clip-path="url(#clipEmfPath1)"
     d=""
     id="path36"
     inkscape:connector-curvature="0" />
  <path
     style="fill:#159133;fill-opacity:1;fill-rule:nonzero;stroke:none"
     clip-path="url(#clipEmfPath1)"
     d="M -0.3125,1.25 10.625,0.625 49.0625,85.9375 38.125,86.25 -0.3125,1.25 Z"
     id="path38"
     inkscape:connector-curvature="0"
     transform="scale(0.28222222,0.28222222)" />
  <path
     style="fill:#159133;fill-opacity:1;fill-rule:nonzero;stroke:none"
     clip-path="url(#clipEmfPath1)"
     d="m 24.375,43.4375 0,0 z"
     id="path40"
     inkscape:connector-curvature="0"
     transform="scale(0.28222222,0.28222222)" />
  <path
     style="fill:none;stroke:none"
     clip-path="url(#clipEmfPath1)"
     d="m 24.375,43.4375 0,0"
     id="path42"
     inkscape:connector-curvature="0"
     transform="scale(0.28222222,0.28222222)" />
  <path
     style="fill:#ffffff;fill-opacity:1;fill-rule:nonzero;stroke:none"
     clip-path="url(#clipEmfPath1)"
     d="M 10.625,0.625 21.5625,0 l 38.75,85.3125 -11.25,0.625 L 10.625,0.625 Z"
     id="path44"
     inkscape:connector-curvature="0"
     transform="scale(0.28222222,0.28222222)" />
  <path
     style="fill:#ffffff;fill-opacity:1;fill-rule:nonzero;stroke:none"
     clip-path="url(#clipEmfPath1)"
     d="m 35.3125,43.125 0,0 z"
     id="path46"
     inkscape:connector-curvature="0"
     transform="scale(0.28222222,0.28222222)" />
  <path
     style="fill:none;stroke:none"
     clip-path="url(#clipEmfPath1)"
     d="m 35.3125,43.125 0,0"
     id="path48"
     inkscape:connector-curvature="0"
     transform="scale(0.28222222,0.28222222)" />
  <path
     style="fill:#fb0f0c;fill-opacity:1;fill-rule:nonzero;stroke:none"
     clip-path="url(#clipEmfPath1)"
     d="M 21.25,0.3125 32.1875,-0.3125 70.9375,85 59.6875,85.3125 21.25,0.3125 Z"
     id="path50"
     inkscape:connector-curvature="0"
     transform="scale(0.28222222,0.28222222)" />
  <path
     style="fill:#fb0f0c;fill-opacity:1;fill-rule:nonzero;stroke:none"
     clip-path="url(#clipEmfPath1)"
     d="m 45.9375,42.5 0,0 z"
     id="path52"
     inkscape:connector-curvature="0"
     transform="scale(0.28222222,0.28222222)" />
  <path
     style="fill:none;stroke:none"
     clip-path="url(#clipEmfPath1)"
     d="m 45.9375,42.5 0,0"
     id="path54"
     inkscape:connector-curvature="0"
     transform="scale(0.28222222,0.28222222)" />
</svg>
