<?xml version="1.0" encoding="UTF-8" standalone="no"?>
<svg
   xmlns:dc="http://purl.org/dc/elements/1.1/"
   xmlns:cc="http://creativecommons.org/ns#"
   xmlns:rdf="http://www.w3.org/1999/02/22-rdf-syntax-ns#"
   xmlns:svg="http://www.w3.org/2000/svg"
   xmlns="http://www.w3.org/2000/svg"
   xmlns:sodipodi="http://sodipodi.sourceforge.net/DTD/sodipodi-0.dtd"
   xmlns:inkscape="http://www.inkscape.org/namespaces/inkscape"
   version="1.0"
   width="29.904268mm"
   height="87.850136mm"
   id="svg2"
   inkscape:version="0.91 r13725"
   viewBox="0 0 29.904268 87.850136"
   sodipodi:docname="MotoCenital.svg">
  <metadata
     id="metadata70">
    <rdf:RDF>
      <cc:Work
         rdf:about="">
        <dc:format>image/svg+xml</dc:format>
        <dc:type
           rdf:resource="http://purl.org/dc/dcmitype/StillImage" />
        <dc:title></dc:title>
      </cc:Work>
    </rdf:RDF>
  </metadata>
  <sodipodi:namedview
     pagecolor="#ffffff"
     bordercolor="#666666"
     borderopacity="1"
     objecttolerance="10"
     gridtolerance="10"
     guidetolerance="10"
     inkscape:pageopacity="0"
     inkscape:pageshadow="2"
     inkscape:window-width="640"
     inkscape:window-height="480"
     id="namedview68"
     inkscape:document-units="mm"
     showgrid="false"
     inkscape:zoom="0.75815983"
     inkscape:cx="52.980003"
     inkscape:cy="155.64"
     inkscape:window-x="0"
     inkscape:window-y="0"
     inkscape:window-maximized="0"
     inkscape:current-layer="svg2" />
  <defs
     id="defs4">
    <clipPath
       clipPathUnits="userSpaceOnUse"
       id="clipEmfPath1">
      <path
         d="m 18.4375,214.063 80.625,0 0,75.937 -80.625,0 z"
         id="path7"
         inkscape:connector-curvature="0" />
    </clipPath>
    <pattern
       id="EMFhbasepattern"
       patternUnits="userSpaceOnUse"
       width="6"
       height="6"
       x="0"
       y="0" />
  </defs>
  <path
     style="fill:#333333;fill-opacity:1;fill-rule:nonzero;stroke:#000000;stroke-width:0.35277778px;stroke-linecap:butt;stroke-linejoin:miter;stroke-miterlimit:4;stroke-dasharray:none;stroke-opacity:1"
     d="m 14.022916,10.671528 c 1.940278,0 1.940278,0 1.940278,0 0.176389,0 0.176389,0 0.176389,0 1.852083,0 1.852083,0 1.852083,0 0,0 2.204861,0 2.204861,0.617361 0,0.617361 -0.176389,2.998611 -0.176389,2.998611 -1.146528,6.35 -1.146528,6.35 -1.146528,6.35 2.116667,9.348611 2.116667,9.348611 2.116667,9.348611 0,0 -0.970139,16.051389 -0.79375,16.227778 0.176389,0.08805 -3.439583,0 -4.145139,0 -0.705555,0 -4.321528,0.08805 -4.145139,0 0.176389,-0.176389 -0.79375,-16.227778 -0.79375,-16.227778 2.028472,-9.348611 2.028472,-9.348611 2.028472,-9.348611 -1.058333,-6.35 -1.058333,-6.35 -1.058333,-6.35 0,0 -0.176389,-2.38125 -0.176389,-2.998611 0,-0.617361 2.116667,-0.617361 2.116667,-0.617361 z"
     id="path10"
     inkscape:connector-curvature="0" />
  <path
     style="fill:#666665;fill-opacity:1;fill-rule:nonzero;stroke:#000000;stroke-width:0.35277778px;stroke-linecap:butt;stroke-linejoin:miter;stroke-miterlimit:4;stroke-dasharray:none;stroke-opacity:1"
     d="m 15.081249,66.763336 c 1.852084,0 1.852084,0 1.852084,0 0.705555,0 1.322916,0.61722 1.322916,1.322775 0,18.344445 0,18.344445 0,18.344445 0,0.793891 -0.617361,1.323057 -1.322916,1.323057 -1.852084,0 -1.852084,0 -1.852084,0 -0.705555,0 -1.322916,-0.529166 -1.322916,-1.323057 0,-18.344445 0,-18.344445 0,-18.344445 0,-0.705555 0.617361,-1.322775 1.322916,-1.322775 z"
     id="path12"
     inkscape:connector-curvature="0" />
  <path
     style="fill:#666665;fill-opacity:1;fill-rule:nonzero;stroke:none"
     d="m 15.963194,77.258333 0,0 z"
     id="path14"
     inkscape:connector-curvature="0" />
  <path
     style="fill:none;stroke:#000000;stroke-width:0.35277778px;stroke-linecap:butt;stroke-linejoin:miter;stroke-miterlimit:4;stroke-dasharray:none;stroke-opacity:1"
     d="m 15.963194,77.258333 0,0"
     id="path16"
     inkscape:connector-curvature="0" />
  <path
     style="fill:#fb0f0c;fill-opacity:1;fill-rule:nonzero;stroke:#000000;stroke-width:0.35277778px;stroke-linecap:butt;stroke-linejoin:miter;stroke-miterlimit:4;stroke-dasharray:none;stroke-opacity:1"
     d="m 14.993055,66.145833 c 2.028472,0 2.028472,0 2.028472,0 0.970139,0 1.763889,0.881945 1.763889,1.852225 0,14.90472 0,14.90472 0,14.90472 0,0.97028 -0.79375,1.852224 -1.763889,1.852224 -2.028472,0 -2.028472,0 -2.028472,0 -0.970139,0 -1.852084,-0.881944 -1.852084,-1.852224 0,-14.90472 0,-14.90472 0,-14.90472 0,-0.97028 0.881945,-1.852225 1.852084,-1.852225 z"
     id="path18"
     inkscape:connector-curvature="0" />
  <path
     style="fill:#fb0f0c;fill-opacity:1;fill-rule:nonzero;stroke:none"
     d="m 15.963194,75.406391 0,0 z"
     id="path20"
     inkscape:connector-curvature="0" />
  <path
     style="fill:none;stroke:#000000;stroke-width:0.35277778px;stroke-linecap:butt;stroke-linejoin:miter;stroke-miterlimit:4;stroke-dasharray:none;stroke-opacity:1"
     d="m 15.963194,75.406391 0,0"
     id="path22"
     inkscape:connector-curvature="0" />
  <path
     style="fill:#666665;fill-opacity:1;fill-rule:nonzero;stroke:#000000;stroke-width:0.35277778px;stroke-linecap:butt;stroke-linejoin:miter;stroke-miterlimit:4;stroke-dasharray:none;stroke-opacity:1"
     d="m 15.081249,0.26458333 c 1.852084,0 1.852084,0 1.852084,0 0.705555,0 1.322916,0.52916667 1.322916,1.32291667 0,18.344444 0,18.344444 0,18.344444 0,0.705556 -0.617361,1.322917 -1.322916,1.322917 -1.852084,0 -1.852084,0 -1.852084,0 -0.705555,0 -1.322916,-0.617361 -1.322916,-1.322917 0,-18.344444 0,-18.344444 0,-18.344444 0,-0.79375 0.617361,-1.32291667 1.322916,-1.32291667 z"
     id="path24"
     inkscape:connector-curvature="0" />
  <path
     style="fill:#666665;fill-opacity:1;fill-rule:nonzero;stroke:none"
     d="m 15.963194,10.759722 0,0 z"
     id="path26"
     inkscape:connector-curvature="0" />
  <path
     style="fill:none;stroke:#000000;stroke-width:0.35277778px;stroke-linecap:butt;stroke-linejoin:miter;stroke-miterlimit:4;stroke-dasharray:none;stroke-opacity:1"
     d="m 15.963194,10.759722 0,0"
     id="path28"
     inkscape:connector-curvature="0" />
  <path
     style="fill:#fb0f0c;fill-opacity:1;fill-rule:nonzero;stroke:#000000;stroke-width:0.35277778px;stroke-linecap:butt;stroke-linejoin:miter;stroke-miterlimit:4;stroke-dasharray:none;stroke-opacity:1"
     d="m 14.993055,3.2631944 c 2.028472,0 2.028472,0 2.028472,0 0.970139,0 1.763889,0.8819445 1.763889,1.8520834 0,14.9048612 0,14.9048612 0,14.9048612 0,0.970139 -0.79375,1.852083 -1.763889,1.852083 -2.028472,0 -2.028472,0 -2.028472,0 -0.970139,0 -1.852084,-0.881944 -1.852084,-1.852083 0,-14.9048612 0,-14.9048612 0,-14.9048612 0,-0.9701389 0.881945,-1.8520834 1.852084,-1.8520834 z"
     id="path30"
     inkscape:connector-curvature="0" />
  <path
     style="fill:#fb0f0c;fill-opacity:1;fill-rule:nonzero;stroke:none"
     d="m 15.963194,12.611806 0,0 z"
     id="path32"
     inkscape:connector-curvature="0" />
  <path
     style="fill:none;stroke:#000000;stroke-width:0.35277778px;stroke-linecap:butt;stroke-linejoin:miter;stroke-miterlimit:4;stroke-dasharray:none;stroke-opacity:1"
     d="m 15.963194,12.611806 0,0"
     id="path34"
     inkscape:connector-curvature="0" />
  <path
     style="fill:#fb0f0c;fill-opacity:1;fill-rule:evenodd;stroke:#000000;stroke-width:0.35277778px;stroke-linecap:butt;stroke-linejoin:miter;stroke-miterlimit:4;stroke-dasharray:none;stroke-opacity:1"
     d="m 11.200694,31.397222 c 0,-7.408333 2.38125,-9.348611 4.7625,-9.348611 2.469444,0 4.850694,2.910417 4.850694,9.348611 0,5.203614 -2.38125,10.671387 -4.850694,10.671387 -2.38125,0 -4.7625,-5.467773 -4.7625,-10.671387 z"
     id="path36"
     inkscape:connector-curvature="0" />
  <path
     style="fill:#666665;fill-opacity:1;fill-rule:evenodd;stroke:#000000;stroke-width:0.35277778px;stroke-linecap:butt;stroke-linejoin:miter;stroke-miterlimit:4;stroke-dasharray:none;stroke-opacity:1"
     d="m 9.877777,49.300836 c 0.705556,-6.614725 3.351389,-10.936112 6.085417,-10.936112 2.734027,0 5.379861,4.321387 6.085416,10.936112 0.970139,8.466666 -1.5875,12.523611 -5.997222,12.523611 -4.409722,0 -6.967361,-4.056945 -6.173611,-12.523611 z"
     id="path38"
     inkscape:connector-curvature="0" />
  <path
     style="fill:none;stroke:#000000;stroke-width:0.35277778px;stroke-linecap:butt;stroke-linejoin:miter;stroke-miterlimit:4;stroke-dasharray:none;stroke-opacity:1"
     d="m 14.463888,28.398611 c 0,-0.881944 0.705556,-1.5875 1.499306,-1.5875 0.881944,0 1.5875,0.705556 1.5875,1.5875 0,0.793891 -0.705556,1.499447 -1.5875,1.499447 -0.79375,0 -1.499306,-0.705556 -1.499306,-1.499447 z"
     id="path40"
     inkscape:connector-curvature="0" />
  <path
     style="fill:none;stroke:#000000;stroke-width:0.35277778px;stroke-linecap:butt;stroke-linejoin:miter;stroke-miterlimit:4;stroke-dasharray:none;stroke-opacity:1"
     d="m 15.963194,28.398611 0,0"
     id="path42"
     inkscape:connector-curvature="0" />
  <path
     style="fill:#980f08;fill-opacity:1;fill-rule:nonzero;stroke:#000000;stroke-width:0.35277778px;stroke-linecap:butt;stroke-linejoin:miter;stroke-miterlimit:4;stroke-dasharray:none;stroke-opacity:1"
     d="m 5.2034714,60.413336 22.7541666,0 0,21.431108 -22.7541666,0 0,-21.431108 z"
     id="path44"
     inkscape:connector-curvature="0" />
  <path
     style="fill:#980f08;fill-opacity:1;fill-rule:nonzero;stroke:#000000;stroke-width:1.25px;stroke-linecap:butt;stroke-linejoin:miter;stroke-miterlimit:4;stroke-dasharray:none;stroke-opacity:1"
     clip-path="url(#clipEmfPath1)"
     d=""
     id="path46"
     inkscape:connector-curvature="0" />
  <path
     style="fill:#159133;fill-opacity:1;fill-rule:nonzero;stroke:none"
     clip-path="url(#clipEmfPath1)"
     d="m -0.3125,208.125 12.5,-0.312 43.75,96.875 -12.5,0.625 -43.75,-97.188 z"
     id="path48"
     inkscape:connector-curvature="0"
     transform="matrix(0.28222222,0,0,0.28222222,-7.7275411e-7,0)" />
  <path
     style="fill:#159133;fill-opacity:1;fill-rule:nonzero;stroke:none"
     clip-path="url(#clipEmfPath1)"
     d="m 27.8125,256.563 0,0 z"
     id="path50"
     inkscape:connector-curvature="0"
     transform="matrix(0.28222222,0,0,0.28222222,-7.7275411e-7,0)" />
  <path
     style="fill:none;stroke:none"
     clip-path="url(#clipEmfPath1)"
     d="m 27.8125,256.563 0,0"
     id="path52"
     inkscape:connector-curvature="0"
     transform="matrix(0.28222222,0,0,0.28222222,-7.7275411e-7,0)" />
  <path
     style="fill:#ffffff;fill-opacity:1;fill-rule:nonzero;stroke:none"
     clip-path="url(#clipEmfPath1)"
     d="m 12.1875,207.813 12.5,-0.625 43.75,96.875 -12.5,0.625 -43.75,-96.875 z"
     id="path54"
     inkscape:connector-curvature="0"
     transform="matrix(0.28222222,0,0,0.28222222,-7.7275411e-7,0)" />
  <path
     style="fill:#ffffff;fill-opacity:1;fill-rule:nonzero;stroke:none"
     clip-path="url(#clipEmfPath1)"
     d="m 40.3125,255.938 0,0 z"
     id="path56"
     inkscape:connector-curvature="0"
     transform="matrix(0.28222222,0,0,0.28222222,-7.7275411e-7,0)" />
  <path
     style="fill:none;stroke:none"
     clip-path="url(#clipEmfPath1)"
     d="m 40.3125,255.938 0,0"
     id="path58"
     inkscape:connector-curvature="0"
     transform="matrix(0.28222222,0,0,0.28222222,-7.7275411e-7,0)" />
  <path
     style="fill:#fb0f0c;fill-opacity:1;fill-rule:nonzero;stroke:none"
     clip-path="url(#clipEmfPath1)"
     d="m 24.375,207.188 12.5,-0.625 43.75,96.875 -12.5,0.625 -43.75,-96.875 z"
     id="path60"
     inkscape:connector-curvature="0"
     transform="matrix(0.28222222,0,0,0.28222222,-7.7275411e-7,0)" />
  <path
     style="fill:#fb0f0c;fill-opacity:1;fill-rule:nonzero;stroke:none"
     clip-path="url(#clipEmfPath1)"
     d="m 52.5,255.313 0,0 z"
     id="path62"
     inkscape:connector-curvature="0"
     transform="matrix(0.28222222,0,0,0.28222222,-7.7275411e-7,0)" />
  <path
     style="fill:none;stroke:none"
     clip-path="url(#clipEmfPath1)"
     d="m 52.5,255.313 0,0"
     id="path64"
     inkscape:connector-curvature="0"
     transform="matrix(0.28222222,0,0,0.28222222,-7.7275411e-7,0)" />
  <path
     style="fill:#cccccc;fill-opacity:1;fill-rule:nonzero;stroke:#000000;stroke-width:0.35277778px;stroke-linecap:butt;stroke-linejoin:miter;stroke-miterlimit:4;stroke-dasharray:none;stroke-opacity:1"
     d="m 12.611805,17.286111 c 6.702778,0 6.702778,0 6.702778,0 0.617361,0 0.970138,0.529167 0.705555,1.058333 -0.352778,1.940278 -1.146528,3.527778 -2.204861,4.7625 1.499306,0.176389 4.409722,0.440973 6.702778,0.79375 2.028472,0.176389 3.263194,2.204862 3.968609,3.792362 0.793891,1.675553 1.146669,3.263335 1.146669,3.263335 0.176388,0.881945 -1.234723,1.234722 -1.411112,0.264442 -0.352777,-1.763889 -1.763888,-5.644444 -3.880555,-5.909027 -3.263195,-0.440973 -7.761111,-0.881945 -7.761111,-0.881945 -0.08819,0 -0.08819,0 -0.176389,0 -0.264583,0.176389 -0.617361,0.176389 -0.881945,0 0,0 -0.08819,0 -0.08819,0 0,0 -4.586111,0.440972 -7.7611111,0.881945 -2.1166667,0.264583 -3.5277778,4.145138 -3.8805556,5.909027 -0.1763889,0.97028 -1.5875,0.617503 -1.4111111,-0.264442 0,0 0.3527778,-1.587782 1.1465278,-3.263335 0.7055556,-1.5875 1.9402778,-3.615973 3.96875,-3.792362 2.2930556,-0.352777 5.291667,-0.617361 6.790972,-0.79375 -1.146528,-1.322916 -1.852083,-2.910416 -2.293055,-4.7625 -0.264584,-0.529166 0,-1.058333 0.617361,-1.058333 z"
     id="path66"
     inkscape:connector-curvature="0" />
</svg>
