<?xml version="1.0" encoding="UTF-8" standalone="no"?>
<svg
   xmlns:dc="http://purl.org/dc/elements/1.1/"
   xmlns:cc="http://creativecommons.org/ns#"
   xmlns:rdf="http://www.w3.org/1999/02/22-rdf-syntax-ns#"
   xmlns:svg="http://www.w3.org/2000/svg"
   xmlns="http://www.w3.org/2000/svg"
   xmlns:sodipodi="http://sodipodi.sourceforge.net/DTD/sodipodi-0.dtd"
   xmlns:inkscape="http://www.inkscape.org/namespaces/inkscape"
   version="1.0"
   width="7.1543336mm"
   height="18.533533mm"
   id="svg2"
   inkscape:version="0.91 r13725"
   viewBox="0 0 7.1543336 18.533533"
   sodipodi:docname="OPlantaV.svg">
  <metadata
     id="metadata37">
    <rdf:RDF>
      <cc:Work
         rdf:about="">
        <dc:format>image/svg+xml</dc:format>
        <dc:type
           rdf:resource="http://purl.org/dc/dcmitype/StillImage" />
        <dc:title></dc:title>
      </cc:Work>
    </rdf:RDF>
  </metadata>
  <sodipodi:namedview
     pagecolor="#ffffff"
     bordercolor="#666666"
     borderopacity="1"
     objecttolerance="10"
     gridtolerance="10"
     guidetolerance="10"
     inkscape:pageopacity="0"
     inkscape:pageshadow="2"
     inkscape:window-width="640"
     inkscape:window-height="480"
     id="namedview35"
     inkscape:document-units="mm"
     showgrid="false"
     inkscape:zoom="3.5937263"
     inkscape:cx="12.675"
     inkscape:cy="32.835"
     inkscape:window-x="0"
     inkscape:window-y="0"
     inkscape:window-maximized="0"
     inkscape:current-layer="svg2" />
  <defs
     id="defs4">
    <pattern
       id="EMFhbasepattern"
       patternUnits="userSpaceOnUse"
       width="6"
       height="6"
       x="0"
       y="0" />
  </defs>
  <path
     style="fill:#63441d;fill-opacity:1;fill-rule:evenodd;stroke:#b7b680;stroke-width:0.70555556px;stroke-linecap:butt;stroke-linejoin:miter;stroke-miterlimit:4;stroke-dasharray:none;stroke-opacity:1"
     d="m 0.79375,18.079861 c 0,0 1.0583333,-4.321528 1.0583333,-8.7312499 0,-4.4097222 -1.0583333,-8.90763888 -1.0583333,-8.90763888 5.8208333,0 5.8208333,0 5.8208333,0 0,0 -1.0583333,4.49791668 -1.0583333,8.90763888 0,4.4097219 1.0583333,8.7312499 1.0583333,8.7312499 z"
     id="path7"
     inkscape:connector-curvature="0" />
  <path
     style="fill:#36af4a;fill-opacity:1;fill-rule:nonzero;stroke:none"
     d="M 0.61736111,10.847917 C 0.97013889,10.142361 1.4993056,9.4368056 2.2930556,9.2604167 2.7340278,9.1722222 3.2631944,9.3486111 3.6159722,9.4368056 4.2333333,9.6131944 5.1152778,7.14375 5.55625,7.5847222 7.3201389,9.7013889 5.1152778,10.142361 5.4680556,11.90625 5.7326389,12.7 4.8506944,13.052778 4.5861111,13.758333 c -0.3527778,0.79375 0.088195,1.499306 -0.79375,1.675695 -0.8819444,0.264583 -1.6756944,0.440972 -2.38125,-0.264584 -0.52916666,-0.440972 0.1763889,-1.234722 0,-2.028472 -0.1763889,-0.881944 -1.14652777,-1.5875 -0.79374999,-2.293055 z"
     id="path9"
     inkscape:connector-curvature="0" />
  <path
     style="fill:#67bd4b;fill-opacity:1;fill-rule:nonzero;stroke:none"
     d="M 1.4111111,4.4097222 C 1.7638889,3.7041667 2.4694444,4.2333333 3.2631944,4.0569444 3.7041667,3.96875 3.96875,2.9104167 4.4097222,2.9986111 4.9388889,3.175 5.6444444,2.0284722 6.0854167,2.5576389 c 0.3527777,0.4409722 0,2.38125 0.1763889,2.9986111 C 6.4381944,6.35 5.6444444,6.7027778 5.3798611,7.3201389 c -0.3527778,0.8819444 0,1.5875 -0.79375,1.7638889 C 3.6159722,9.3486111 2.8222222,9.4368056 2.1166667,8.8194444 1.6756944,8.2902778 2.38125,7.4965278 2.2048611,6.7909722 1.9402778,5.9090278 1.0583333,5.1152778 1.4111111,4.4097222 Z"
     id="path11"
     inkscape:connector-curvature="0" />
  <path
     style="fill:#67bd4b;fill-opacity:1;fill-rule:nonzero;stroke:none"
     d="M 3.4395833,11.200694 C 3.175,11.377083 2.9986111,11.024306 2.7340278,10.847917 c -0.1763889,-0.0882 -0.6173611,0.264583 -0.7055556,0.08819 -0.1763889,-0.176389 -0.7055555,0 -0.7055555,-0.264583 C 1.2347222,10.406944 1.9402778,9.7895833 2.0284722,9.525 2.1166667,9.2604167 2.5576389,9.3486111 2.8222222,9.1722222 3.175,8.9076389 3.175,8.5548611 3.5277778,8.73125 c 0.3527778,0.1763889 0.7055555,0.3527778 0.79375,0.7055556 0,0.3527777 -0.4409722,0.4409722 -0.5291667,0.7055554 -0.1763889,0.440972 0,0.881945 -0.3527778,1.058333 z"
     id="path13"
     inkscape:connector-curvature="0" />
  <path
     style="fill:#67bd4b;fill-opacity:1;fill-rule:nonzero;stroke:none"
     d="M 4.9388889,16.139583 C 4.6743056,16.315972 4.4979167,15.963194 4.2333333,15.786806 4.0569444,15.698611 3.6159722,16.051389 3.5277778,15.875 c -0.1763889,-0.176389 -0.7055556,0 -0.7055556,-0.264583 -0.088194,-0.264584 0.6173611,-0.881945 0.7055556,-1.146528 0.088194,-0.264583 0.5291666,-0.176389 0.79375,-0.352778 0.3527778,-0.264583 0.3527778,-0.617361 0.7055555,-0.440972 0.3527778,0.176389 0.7055556,0.352778 0.79375,0.705555 0,0.352778 -0.4409722,0.440973 -0.5291666,0.705556 -0.1763889,0.440972 0,0.881944 -0.3527778,1.058333 z"
     id="path15"
     inkscape:connector-curvature="0" />
  <path
     style="fill:#67bd4b;fill-opacity:1;fill-rule:nonzero;stroke:none"
     d="M 6.0854167,14.2875 C 5.8208333,14.463889 5.6444444,14.111111 5.3798611,13.934722 5.2034722,13.846528 4.7625,14.199306 4.6743056,14.022917 4.4979167,13.846528 3.96875,14.022917 3.96875,13.758333 3.8805556,13.49375 4.5861111,12.876389 4.6743056,12.611806 4.7625,12.347222 5.2034722,12.435417 5.4680556,12.259028 5.8208333,11.994444 5.0270833,11.1125 5.3798611,11.200694 c 0.3527778,0.176389 1.4993056,0.970139 1.5875,1.322917 0,0.352778 -0.4409722,0.440972 -0.5291667,0.705556 -0.1763888,0.440972 0,0.881944 -0.3527777,1.058333 z"
     id="path17"
     inkscape:connector-curvature="0" />
  <path
     style="fill:#67bd4b;fill-opacity:1;fill-rule:nonzero;stroke:none"
     d="M 4.4979167,9.3486111 C 4.6743056,8.9958333 5.0270833,9.2604167 5.3798611,9.1722222 5.55625,9.0840278 5.6444444,8.6430556 5.8208333,8.6430556 6.0854167,8.73125 6.4381944,8.2902778 6.6145833,8.4666667 c 0.1763889,0.1763889 0,1.0583333 0,1.3229166 C 6.7027778,10.142361 6.35,10.31875 6.2618056,10.583333 c -0.1763889,0.352778 0,0.705556 -0.3527778,0.79375 -0.4409722,0.08819 -0.79375,0.176389 -1.0583334,-0.176389 -0.1763888,-0.176388 0.088195,-0.529166 0,-0.881944 C 4.7625,9.9659722 4.3215278,9.6131944 4.4979167,9.3486111 Z"
     id="path19"
     inkscape:connector-curvature="0" />
  <path
     style="fill:#67bd4b;fill-opacity:1;fill-rule:nonzero;stroke:none"
     d="M 0,13.405556 C 0.17638889,13.052778 0.52916667,13.317361 0.88194444,13.229167 1.0583333,13.140972 1.1465278,12.7 1.3229167,12.7 c 0.2645833,0.08819 0.6173611,-0.352778 0.79375,-0.176389 0.1763889,0.176389 0,1.058333 0,1.322917 0.088194,0.352778 -0.2645834,0.529166 -0.3527778,0.79375 -0.1763889,0.352778 0,0.705555 -0.3527778,0.79375 -0.44097221,0.08819 -0.79374999,0.176389 -1.05833332,-0.176389 -0.17638889,-0.176389 0.0881944,-0.529167 0,-0.881945 C 0.26458333,14.022917 -0.17638889,13.670139 0,13.405556 Z"
     id="path21"
     inkscape:connector-curvature="0" />
  <path
     style="fill:#67bd4b;fill-opacity:1;fill-rule:nonzero;stroke:none"
     d="M 1.1465278,7.6729167 C 1.3229167,7.3201389 1.5875,7.5847222 1.9402778,7.4965278 c 0.1763889,0 0.3527778,-0.5291667 0.5291666,-0.4409722 C 2.6458333,7.14375 2.9986111,6.6145833 3.175,6.7909722 c 0.1763889,0.1763889 0,1.0583334 0.088194,1.3229167 0.088194,0.3527778 -0.2645833,0.5291667 -0.4409722,0.79375 -0.088194,0.3527778 0.088194,0.7055555 -0.3527778,0.79375 C 2.1166667,9.7895833 1.7638889,9.8777778 1.4111111,9.525 1.2347222,9.3486111 1.4993056,8.9958333 1.4993056,8.6430556 1.4111111,8.2902778 0.97013889,7.9375 1.1465278,7.6729167 Z"
     id="path23"
     inkscape:connector-curvature="0" />
  <path
     style="fill:#36af4a;fill-opacity:1;fill-rule:nonzero;stroke:none"
     d="M 2.2048611,3.5277778 C 2.38125,3.175 2.6458333,3.4395833 2.9986111,3.3513889 3.175,3.2631944 3.3513889,2.8222222 3.5277778,2.9104167 c 0.2645833,0 0.5291666,-0.4409723 0.79375,-0.2645834 0.088194,0.1763889 0,1.0583334 0,1.3229167 C 4.4097222,4.3215278 4.0569444,4.4979167 3.96875,4.7625 3.7923611,5.1152778 3.96875,5.4680556 3.6159722,5.55625 3.175,5.6444444 2.8222222,5.7326389 2.5576389,5.3798611 c -0.2645833,-0.1763889 0.088194,-0.5291667 0,-0.8819444 C 2.4694444,4.1451389 2.0284722,3.7923611 2.2048611,3.5277778 Z"
     id="path25"
     inkscape:connector-curvature="0" />
  <path
     style="fill:#36af4a;fill-opacity:1;fill-rule:nonzero;stroke:none"
     d="M 4.7625,6.1736111 C 4.9388889,5.8208333 5.2034722,6.0854167 5.55625,5.9972222 5.7326389,5.9090278 5.9090278,5.4680556 6.0854167,5.4680556 6.35,5.55625 6.6145833,5.0270833 6.8791667,5.2916667 c 0.088194,0.1763889 0,1.0583333 0,1.3229166 0.088194,0.3527778 -0.2645834,0.5291667 -0.3527778,0.79375 -0.1763889,0.3527778 0,0.7055556 -0.3527778,0.79375 -0.4409722,0.088195 -0.79375,0.088195 -1.0583333,-0.1763889 -0.2645834,-0.1763888 0.088194,-0.5291666 0,-0.8819444 C 5.0270833,6.7909722 4.5861111,6.4381944 4.7625,6.1736111 Z"
     id="path27"
     inkscape:connector-curvature="0" />
  <path
     style="fill:#36af4a;fill-opacity:1;fill-rule:nonzero;stroke:none"
     d="m 1.3229167,14.728472 c 0.1763889,-0.352778 0.4409722,-0.08819 0.79375,-0.176389 0.1763889,-0.08819 0.3527777,-0.529166 0.5291666,-0.529166 0.2645834,0.08819 0.5291667,-0.440973 0.79375,-0.176389 0.088195,0.176389 0,1.058333 0,1.322916 0.088195,0.352778 -0.2645833,0.529167 -0.3527777,0.79375 -0.1763889,0.352778 0,0.705556 -0.3527778,0.79375 -0.4409722,0.08819 -0.79375,0.08819 -1.0583334,-0.176388 -0.2645833,-0.176389 0.088194,-0.529167 0,-0.881945 C 1.5875,15.345833 1.1465278,14.993056 1.3229167,14.728472 Z"
     id="path29"
     inkscape:connector-curvature="0" />
  <path
     style="fill:#36af4a;fill-opacity:1;fill-rule:nonzero;stroke:none"
     d="M 0.61736111,6.35 C 0.79375,5.9972222 1.0583333,6.2618056 1.4111111,6.1736111 1.5875,6.0854167 1.7638889,5.6444444 1.9402778,5.6444444 c 0.2645833,0.088195 0.5291666,-0.4409722 0.79375,-0.1763888 0.088194,0.1763888 0,1.0583333 0,1.3229166 0.088194,0.3527778 -0.2645834,0.5291667 -0.3527778,0.79375 -0.1763889,0.3527778 0,0.7055556 -0.3527778,0.79375 -0.4409722,0.088195 -0.79375,0.088195 -1.05833331,-0.1763889 -0.26458333,-0.1763889 0.0881944,-0.5291666 0,-0.8819444 C 0.88194444,6.9673611 0.44097222,6.6145833 0.61736111,6.35 Z"
     id="path31"
     inkscape:connector-curvature="0" />
  <path
     style="fill:#36af4a;fill-opacity:1;fill-rule:nonzero;stroke:none"
     d="M 2.9104167,4.5861111 C 3.2631944,4.6743056 3.175,5.0270833 3.3513889,5.2916667 3.4395833,5.4680556 3.96875,5.3798611 3.96875,5.55625 c 0,0.2645833 0.6173611,0.3527778 0.5291667,0.6173611 C 4.3215278,6.4381944 3.5277778,6.6145833 3.2631944,6.7909722 2.9986111,6.9673611 2.7340278,6.7027778 2.38125,6.7027778 c -0.3527778,0 -0.6173611,0.3527778 -0.79375,0 C 1.3229167,6.35 1.1465278,6.0854167 1.2347222,5.6444444 1.3229167,5.3798611 1.7638889,5.55625 2.1166667,5.3798611 2.38125,5.1152778 2.5576389,4.5861111 2.9104167,4.5861111 Z"
     id="path33"
     inkscape:connector-curvature="0" />
</svg>
