<?xml version="1.0" encoding="UTF-8" standalone="no"?>
<svg
   xmlns:dc="http://purl.org/dc/elements/1.1/"
   xmlns:cc="http://creativecommons.org/ns#"
   xmlns:rdf="http://www.w3.org/1999/02/22-rdf-syntax-ns#"
   xmlns:svg="http://www.w3.org/2000/svg"
   xmlns="http://www.w3.org/2000/svg"
   xmlns:sodipodi="http://sodipodi.sourceforge.net/DTD/sodipodi-0.dtd"
   xmlns:inkscape="http://www.inkscape.org/namespaces/inkscape"
   version="1.0"
   width="29.116867mm"
   height="28.854399mm"
   id="svg2"
   inkscape:version="0.91 r13725"
   viewBox="0 0 29.116867 28.854399"
   sodipodi:docname="OPlantaBig.svg">
  <metadata
     id="metadata133">
    <rdf:RDF>
      <cc:Work
         rdf:about="">
        <dc:format>image/svg+xml</dc:format>
        <dc:type
           rdf:resource="http://purl.org/dc/dcmitype/StillImage" />
        <dc:title></dc:title>
      </cc:Work>
    </rdf:RDF>
  </metadata>
  <sodipodi:namedview
     pagecolor="#ffffff"
     bordercolor="#666666"
     borderopacity="1"
     objecttolerance="10"
     gridtolerance="10"
     guidetolerance="10"
     inkscape:pageopacity="0"
     inkscape:pageshadow="2"
     inkscape:window-width="640"
     inkscape:window-height="480"
     id="namedview131"
     inkscape:document-units="mm"
     showgrid="false"
     inkscape:zoom="2.3082943"
     inkscape:cx="51.585001"
     inkscape:cy="51.119998"
     inkscape:window-x="93"
     inkscape:window-y="176"
     inkscape:window-maximized="0"
     inkscape:current-layer="svg2" />
  <defs
     id="defs4">
    <pattern
       id="EMFhbasepattern"
       patternUnits="userSpaceOnUse"
       width="6"
       height="6"
       x="0"
       y="0" />
  </defs>
  <path
     style="fill:#63441d;fill-opacity:1;fill-rule:evenodd;stroke:#b7b680;stroke-width:1.41111112px;stroke-linecap:butt;stroke-linejoin:miter;stroke-miterlimit:4;stroke-dasharray:none;stroke-opacity:1"
     d="m 15.434028,22.224999 c -3.96875,1.322917 -8.2020836,-0.79375 -9.5250002,-4.674305 -1.3229167,-3.96875 0.7055555,-8.2020837 4.6743052,-9.6131948 3.96875,-1.3229166 8.202084,0.79375 9.525,4.7624998 1.322917,3.96875 -0.79375,8.202084 -4.674305,9.525 z"
     id="path7"
     inkscape:connector-curvature="0" />
  <path
     style="fill:#27783b;fill-opacity:1;fill-rule:nonzero;stroke:none"
     d="m 16.315972,15.434027 c 0,0.264583 -0.79375,0.79375 -0.970139,1.058333 -0.08819,0.264584 -0.440972,1.411111 -0.617361,1.675695 -0.352778,0.352778 -0.881944,-0.705556 -1.322916,-0.529167 -0.440973,0.08819 -1.5875,1.058333 -2.028473,0.970139 -0.529166,-0.08819 -0.881944,-0.970139 -1.234722,-1.322917 -0.3527777,-0.176389 -0.2645832,-0.970139 -0.4409721,-1.322916 -0.2645833,-0.881945 1.3229171,-1.5875 0.4409721,-3.263195 -0.2645832,-0.440972 1.234722,0.529167 1.675695,0.352778 0.881944,-0.264583 2.116666,-1.058333 2.734027,-0.705556 0.529167,0.264584 0.881945,1.234723 1.058334,1.763889 0.08819,0.264584 0.705555,1.058334 0.705555,1.322917 z"
     id="path9"
     inkscape:connector-curvature="0" />
  <path
     style="fill:#388a41;fill-opacity:1;fill-rule:nonzero;stroke:none"
     d="m 12.876389,17.815277 c -0.881945,0.617361 -0.881945,0.617361 -0.881945,0.617361 0.352778,-2.293055 0.352778,-2.293055 0.352778,-2.293055 0,0 0.176389,1.5875 0.529167,1.675694 z"
     id="path11"
     inkscape:connector-curvature="0" />
  <path
     style="fill:#388a41;fill-opacity:1;fill-rule:nonzero;stroke:none"
     d="m 15.08125,12.964583 c 0,0 -0.529167,1.058333 -1.499306,1.234722 -1.058333,0.176389 -1.499305,0.264583 -1.675694,0.529166 -0.176389,0.352778 0.970139,-0.176388 1.852083,-0.08819 0.881945,0 1.675695,-0.970139 1.5875,-1.146528 -0.08819,-0.264583 -0.264583,-0.529166 -0.264583,-0.529166 z"
     id="path13"
     inkscape:connector-curvature="0" />
  <path
     style="fill:#388a41;fill-opacity:1;fill-rule:nonzero;stroke:none"
     d="m 15.169444,15.257638 c -0.176388,0.0882 -0.352777,0.0882 -0.352777,0 -0.0882,-0.08819 0.08819,-0.176389 0.264583,-0.264583 0.264583,-0.0882 0.440972,-0.0882 0.440972,0 0.0882,0.08819 -0.08819,0.176389 -0.352778,0.264583 z"
     id="path15"
     inkscape:connector-curvature="0" />
  <path
     style="fill:none;stroke:#388a41;stroke-width:0.17638889px;stroke-linecap:butt;stroke-linejoin:miter;stroke-miterlimit:4;stroke-dasharray:none;stroke-opacity:1"
     d="m 15.08125,15.610416 c -0.529167,0.176389 -1.058333,0.176389 -1.146528,0 -0.08819,-0.264583 0.352778,-0.529167 0.881945,-0.705556 0.529166,-0.176389 1.058333,-0.176389 1.146527,0 0,0.176389 -0.352777,0.529167 -0.881944,0.705556 z"
     id="path17"
     inkscape:connector-curvature="0" />
  <path
     style="fill:#388a41;fill-opacity:1;fill-rule:nonzero;stroke:none"
     d="m 25.223611,19.314583 c -0.440972,-0.529167 -0.881944,-1.146528 -1.499305,-1.763889 -1.763889,-1.5875 -5.291667,-1.146528 -6.35,-0.970139 -1.058334,0.264583 -2.910417,-0.617361 -2.910417,-0.617361 -0.176389,0.352777 -0.176389,0.352777 -0.176389,0.352777 0.08819,0 1.940278,0.881945 3.175,0.617362 0.970139,-0.176389 4.321528,-0.617362 5.997222,0.881944 0.617361,0.529167 1.058334,1.146528 1.499306,1.763889 0.705555,1.058333 1.411111,1.940278 2.822222,2.028472 0,-0.352778 0,-0.352778 0,-0.352778 -1.234722,-0.08819 -1.852083,-0.881944 -2.557639,-1.940277 z"
     id="path19"
     inkscape:connector-curvature="0" />
  <path
     style="fill:#388a41;fill-opacity:1;fill-rule:nonzero;stroke:none"
     d="m 14.199306,16.845138 c -0.0882,0.352778 -0.0882,0.352778 -0.0882,0.352778 1.763889,0.705555 6.438195,2.734028 6.614583,4.233333 0.352778,-0.08819 0.352778,-0.08819 0.352778,-0.08819 -0.264583,-2.028472 -6.614583,-4.321528 -6.879166,-4.497917 z"
     id="path21"
     inkscape:connector-curvature="0" />
  <path
     style="fill:#388a41;fill-opacity:1;fill-rule:nonzero;stroke:none"
     d="m 9.0840278,18.432638 c 0,0 -0.1763889,1.146528 -0.088195,1.675695 0.3527778,-0.08819 0.3527778,-0.08819 0.3527778,-0.08819 -0.088194,-0.352778 0,-1.234722 0.088195,-1.5875 0.1763888,-1.322917 1.7638884,-1.852083 1.7638884,-1.852083 -0.08819,-0.352778 -0.08819,-0.352778 -0.08819,-0.352778 -0.08819,0 -1.8520833,0.617361 -2.0284722,2.204861 z"
     id="path23"
     inkscape:connector-curvature="0" />
  <path
     style="fill:#388a41;fill-opacity:1;fill-rule:nonzero;stroke:none"
     d="m 11.729861,17.727083 c -0.264583,0.176388 -0.264583,0.176388 -0.264583,0.176388 0,0.08819 1.058333,2.293056 -0.705556,3.439584 -0.617361,0.264583 -0.9701387,0.79375 -1.0583331,1.322916 -0.2645833,1.411112 0.7055551,3.175 1.3229171,4.056945 0.352777,-0.176389 0.352777,-0.176389 0.352777,-0.176389 -0.617361,-0.881944 -1.5874997,-2.557639 -1.322916,-3.792361 0.08819,-0.440972 0.352777,-0.881945 0.881944,-1.146528 2.028472,-1.234722 0.881945,-3.880555 0.79375,-3.880555 z"
     id="path25"
     inkscape:connector-curvature="0" />
  <path
     style="fill:#388a41;fill-opacity:1;fill-rule:nonzero;stroke:none"
     d="M 7.14375,14.375694 C 6.1736111,14.993055 4.7625,14.022916 3.5277778,13.229166 2.4694444,12.611805 2.4694444,12.611805 2.4694444,12.611805 c -0.1763888,0.264583 -0.1763888,0.264583 -0.1763888,0.264583 1.0583333,0.705556 1.0583333,0.705556 1.0583333,0.705556 1.3229167,0.79375 2.8222222,1.852083 3.96875,1.058333 1.3229167,-0.881944 3.8805551,0.352778 3.8805551,0.440972 0.176389,-0.352778 0.176389,-0.352778 0.176389,-0.352778 -0.08819,-0.08819 -2.8222219,-1.411111 -4.233333,-0.352777 z"
     id="path27"
     inkscape:connector-curvature="0" />
  <path
     style="fill:#388a41;fill-opacity:1;fill-rule:nonzero;stroke:none"
     d="M 15.257639,5.8208326 C 15.963194,8.3784714 12.435417,13.31736 12.435417,13.405555 12.7,13.581944 12.7,13.581944 12.7,13.581944 12.876389,13.405555 16.404167,8.3784714 15.610417,5.7326381 Z"
     id="path29"
     inkscape:connector-curvature="0" />
  <path
     style="fill:#388a41;fill-opacity:1;fill-rule:nonzero;stroke:none"
     d="m 18.961806,10.583333 c -0.264584,0.529166 -0.617362,1.234722 -1.058334,1.940277 -0.440972,0.881945 -0.970139,1.322917 -1.675694,1.411111 -0.970139,0.176389 -1.852084,-0.529166 -1.852084,-0.529166 -0.264583,0.264583 -0.264583,0.264583 -0.264583,0.264583 0.0882,0.0882 1.058333,0.881945 2.204861,0.617361 0.79375,-0.08819 1.411111,-0.617361 1.940278,-1.5875 0.440972,-0.705555 0.705556,-1.411111 1.058333,-2.028472 0.79375,-1.6756944 1.234723,-2.7340278 2.822223,-2.8222222 0,-0.3527778 0,-0.3527778 0,-0.3527778 -1.763889,0.088194 -2.38125,1.3229167 -3.175,3.086806 z"
     id="path31"
     inkscape:connector-curvature="0" />
  <path
     style="fill:#388a41;fill-opacity:1;fill-rule:nonzero;stroke:none"
     d="M 17.374306,7.8493048 C 16.315972,9.084027 15.345833,8.5548603 15.345833,8.5548603 15.08125,8.8194437 15.08125,8.8194437 15.08125,8.8194437 c 0.08819,0 1.322917,0.79375 2.557639,-0.7055556 0.529167,-0.7055555 2.204861,-2.9104167 2.910417,-2.7340278 0,-0.3527777 0,-0.3527777 0,-0.3527777 -0.705556,-0.1763889 -1.763889,1.0583333 -3.175,2.8222222 z"
     id="path33"
     inkscape:connector-curvature="0" />
  <path
     style="fill:#388a41;fill-opacity:1;fill-rule:nonzero;stroke:none"
     d="m 24.518056,19.049999 c 0.176388,1.322917 0.264583,3.615972 -0.264584,4.056945 0.176389,0.264583 0.176389,0.264583 0.176389,0.264583 0.881945,-0.705556 0.440972,-3.96875 0.440972,-4.321528 z"
     id="path35"
     inkscape:connector-curvature="0" />
  <path
     style="fill:#388a41;fill-opacity:1;fill-rule:nonzero;stroke:none"
     d="m 23.988889,20.813888 c -0.264583,0 -0.440972,0.176389 -0.617361,0.352778 0.264583,0.264583 0.264583,0.264583 0.264583,0.264583 0.176389,-0.176389 0.264583,-0.264583 0.440972,-0.264583 0.264584,-0.08819 0.617361,0.176389 0.617361,0.176389 0.176389,-0.264584 0.176389,-0.264584 0.176389,-0.264584 0,0 -0.440972,-0.352777 -0.881944,-0.264583 z"
     id="path37"
     inkscape:connector-curvature="0" />
  <path
     style="fill:#388a41;fill-opacity:1;fill-rule:nonzero;stroke:none"
     d="m 19.755556,19.931944 c -0.529167,0.529166 -0.08819,1.675694 0.176388,2.38125 0.08819,0.176389 0.176389,0.440972 0.176389,0.440972 0,0 0,-0.0882 0.0882,-0.0882 0,0 0.08819,0 0.08819,0 -0.08819,0.352778 -0.08819,0.352778 -0.08819,0.352778 0.08819,0 0.176389,-0.08819 0.176389,-0.08819 0.176389,-0.08819 0.08819,-0.264584 -0.0882,-0.79375 -0.264583,-0.617361 -0.617361,-1.5875 -0.264583,-2.028472 z"
     id="path39"
     inkscape:connector-curvature="0" />
  <path
     style="fill:#388a41;fill-opacity:1;fill-rule:nonzero;stroke:none"
     d="m 8.5548611,24.42986 c -0.088194,0.264584 -0.1763889,0.352778 -0.3527778,0.440973 -0.3527777,0 -0.8819444,-0.352778 -1.0583333,-0.705556 -0.2645833,0.264583 -0.2645833,0.264583 -0.2645833,0.264583 0.1763889,0.352778 0.79375,0.79375 1.3229166,0.79375 0.2645834,-0.08819 0.5291667,-0.176389 0.7055556,-0.617361 0.2645833,-0.881944 0.79375,-0.79375 0.79375,-0.79375 0.088194,-0.352778 0.088194,-0.352778 0.088194,-0.352778 0,0 -0.79375,-0.176388 -1.2347222,0.970139 z"
     id="path41"
     inkscape:connector-curvature="0" />
  <path
     style="fill:#388a41;fill-opacity:1;fill-rule:nonzero;stroke:none"
     d="m 10.495139,25.488194 c 0.176389,0.264583 0.176389,0.264583 0.176389,0.264583 0,0 0.79375,-0.617361 1.322916,-0.264583 0.176389,-0.352778 0.176389,-0.352778 0.176389,-0.352778 -0.79375,-0.352778 -1.675694,0.264583 -1.675694,0.352778 z"
     id="path43"
     inkscape:connector-curvature="0" />
  <path
     style="fill:#388a41;fill-opacity:1;fill-rule:nonzero;stroke:none"
     d="m 7.14375,14.375694 c -0.088194,0 -2.1166667,1.411111 -1.6756944,2.645833 C 5.7326389,18.07986 5.2034722,19.314583 4.5861111,19.66736 4.7625,20.020138 4.7625,20.020138 4.7625,20.020138 5.55625,19.490971 6.0854167,18.168055 5.7326389,16.933333 5.55625,16.139583 6.7909722,14.993055 7.3201389,14.640277 Z"
     id="path45"
     inkscape:connector-curvature="0" />
  <path
     style="fill:#388a41;fill-opacity:1;fill-rule:nonzero;stroke:none"
     d="m 7.14375,18.432638 c -0.088194,0.529167 0.088194,1.146528 0.2645833,1.675695 0.1763889,0.79375 0.4409723,1.499305 -0.1763889,1.852083 0.1763889,0.352778 0.1763889,0.352778 0.1763889,0.352778 C 8.2020833,21.784027 7.9375,20.813888 7.7611111,20.020138 7.5847222,19.490971 7.4083333,18.961805 7.4965278,18.520833 7.7611111,17.550694 9.4368056,17.815277 9.4368056,17.815277 9.525,17.462499 9.525,17.462499 9.525,17.462499 c -0.088194,0 -2.0284722,-0.352778 -2.38125,0.970139 z"
     id="path47"
     inkscape:connector-curvature="0" />
  <path
     style="fill:#388a41;fill-opacity:1;fill-rule:nonzero;stroke:none"
     d="M 7.3201389,9.877777 C 6.8791667,10.14236 6.35,10.230555 5.9090278,10.054166 5.3798611,9.9659714 4.9388889,9.6131937 4.5861111,9.084027 4.3215278,9.2604159 4.3215278,9.2604159 4.3215278,9.2604159 4.6743056,9.877777 5.2034722,10.318749 5.8208333,10.406944 6.4381944,10.583333 6.9673611,10.495138 7.4965278,10.14236 8.2020833,9.7895826 9.9659722,11.906249 11.1125,13.581944 11.377083,13.405555 11.377083,13.405555 11.377083,13.405555 10.936111,12.699999 8.5548611,9.1722214 7.3201389,9.877777 Z"
     id="path49"
     inkscape:connector-curvature="0" />
  <path
     style="fill:#388a41;fill-opacity:1;fill-rule:nonzero;stroke:none"
     d="M 8.9076389,6.7909714 C 8.2902778,7.1437492 8.4666667,7.6729159 8.73125,8.2020826 c 0.088194,0.2645833 0.2645833,0.6173611 0.3527778,0.9701388 0.088194,0.3527778 0,0.5291667 -0.088195,0.6173612 -0.1763889,0.1763888 -0.5291666,0.1763888 -0.5291666,0.1763888 -0.088195,0.3527776 -0.088195,0.3527776 -0.088195,0.3527776 0.088195,0 0.5291667,0.08819 0.8819445,-0.264583 C 9.4368056,9.877777 9.525,9.5249992 9.4368056,9.1722214 9.3486111,8.7312492 9.1722222,8.3784714 9.0840278,8.0256937 8.73125,7.4083326 8.73125,7.3201381 9.0840278,7.1437492 Z"
     id="path51"
     inkscape:connector-curvature="0" />
  <path
     style="fill:#388a41;fill-opacity:1;fill-rule:nonzero;stroke:none"
     d="m 12.876389,9.3486103 c -0.617361,-0.088194 -0.881945,-1.4993055 -0.617361,-3.3513889 0.176389,-1.6756944 -0.79375,-3.7041666 -1.411111,-3.96875 -0.0882,0.2645834 -0.0882,0.2645834 -0.0882,0.2645834 0.352778,0.1763889 1.322917,2.1166666 1.146528,3.7041666 -0.176389,0.79375 -0.352778,3.3513889 0.79375,3.7041667 0.79375,0.2645833 1.411111,0.9701389 1.411111,0.9701389 0.264583,-0.176389 0.264583,-0.176389 0.264583,-0.176389 0,-0.08819 -0.705555,-0.8819443 -1.499305,-1.1465277 z"
     id="path53"
     inkscape:connector-curvature="0" />
  <path
     style="fill:#388a41;fill-opacity:1;fill-rule:nonzero;stroke:none"
     d="m 22.489583,10.847916 c -0.352777,-0.08819 -0.705555,0.08819 -0.881944,0.352778 -0.08819,0.08819 -0.08819,0.08819 -0.08819,0.08819 -0.440972,0.705556 -1.146527,1.763889 -1.852083,1.411111 -0.881944,-0.440972 -1.411111,-0.529166 -1.499305,-0.529166 0,0.352777 0,0.352777 0,0.352777 0,0 0.529166,0.0882 1.322916,0.529167 0.970139,0.440972 1.852084,-0.79375 2.38125,-1.499306 0.08819,-0.176388 0.08819,-0.176388 0.08819,-0.176388 0.08819,-0.176389 0.352777,-0.264584 0.440972,-0.176389 0.440972,0 1.058333,0.529166 1.322917,1.411111 0.264583,-0.0882 0.264583,-0.0882 0.264583,-0.0882 -0.264583,-1.058333 -0.970139,-1.5875 -1.499306,-1.675694 z"
     id="path55"
     inkscape:connector-curvature="0" />
  <path
     style="fill:#67bd4b;fill-opacity:1;fill-rule:nonzero;stroke:none"
     d="M 14.640278,4.6743048 C 14.375694,5.4680548 13.581944,4.9388881 12.788194,5.2034714 12.435417,5.3798603 12.170833,6.4381937 11.818056,6.4381937 11.200694,6.2618048 10.583333,7.496527 10.142361,7.0555548 9.7013889,6.702777 9.8777778,4.6743048 9.7013889,4.0569437 9.4368056,3.2631937 10.230556,2.9104159 10.406944,2.2048603 10.671528,1.3229159 10.230556,0.70555478 11.024306,0.35277701 11.90625,0.08819367 12.7,-0.17638966 13.49375,0.44097145 c 0.529167,0.44097222 -0.08819,1.32291665 0.08819,2.02847225 0.352778,0.8819444 1.322917,1.4993055 1.058334,2.2048611 z"
     id="path57"
     inkscape:connector-curvature="0" />
  <path
     style="fill:#67bd4b;fill-opacity:1;fill-rule:nonzero;stroke:none"
     d="m 22.313194,7.6729159 c -0.440972,0.7055555 -1.058333,0 -1.852083,0.088194 -0.440972,0 -0.881944,1.0583334 -1.234722,0.8819445 -0.617361,-0.2645834 -1.499306,0.79375 -1.852083,0.2645833 -0.264584,-0.5291667 0.352777,-2.38125 0.264583,-2.9986111 0,-0.8819444 0.79375,-1.0583333 1.234722,-1.6756944 0.440972,-0.79375 0.176389,-1.4993056 1.058333,-1.5875 0.881945,-0.088194 1.675695,-0.088194 2.293056,0.6173611 0.440972,0.5291666 -0.352778,1.2347222 -0.352778,2.0284722 0.08819,0.8819444 0.970139,1.7638889 0.440972,2.38125 z"
     id="path59"
     inkscape:connector-curvature="0" />
  <path
     style="fill:#36af4a;fill-opacity:1;fill-rule:nonzero;stroke:none"
     d="m 23.01875,10.230555 c 0.705556,-0.176389 0.79375,0.79375 1.411111,1.234722 0.352778,0.264583 1.411111,-0.176389 1.5875,0.176389 0.264583,0.529167 1.5875,0.352778 1.411111,1.058333 -0.08819,0.529167 -1.763889,1.499306 -2.204861,2.028472 -0.440972,0.617362 -1.234722,0.264584 -1.940278,0.440973 -0.881944,0.264583 -1.146527,1.058333 -1.852083,0.529166 -0.705556,-0.617361 -1.322917,-1.146527 -1.322917,-2.116666 0.0882,-0.617361 1.146528,-0.617361 1.5875,-1.234723 C 22.225,11.641666 22.225,10.406944 23.01875,10.230555 Z"
     id="path61"
     inkscape:connector-curvature="0" />
  <path
     style="fill:#36af4a;fill-opacity:1;fill-rule:nonzero;stroke:none"
     d="M 5.7326389,11.818055 C 5.9090278,12.52361 5.0270833,12.699999 4.5861111,13.31736 4.3215278,13.670138 4.8506944,14.640277 4.4979167,14.90486 3.96875,15.169444 4.2333333,16.49236 3.6159722,16.404166 2.9986111,16.315971 1.9402778,14.640277 1.4111111,14.375694 0.70555556,13.846527 1.0583333,13.052777 0.79375,12.435416 0.52916667,11.553471 -0.26458333,11.288888 0.17638889,10.583333 0.70555556,9.7895826 1.2347222,9.1722214 2.2048611,9.1722214 c 0.6173611,0 0.7055556,1.0583336 1.3229167,1.4993056 0.79375,0.440972 1.9402778,0.352778 2.2048611,1.146528 z"
     id="path63"
     inkscape:connector-curvature="0" />
  <path
     style="fill:#36af4a;fill-opacity:1;fill-rule:nonzero;stroke:none"
     d="m 3.175,13.140971 c 0.79375,-0.08819 0.79375,0.881945 1.3229167,1.411112 0.2645833,0.264583 1.3229166,0 1.4993055,0.352777 0.1763889,0.617361 1.4993056,0.529167 1.3229167,1.234723 C 7.14375,16.668749 5.2916667,17.374305 4.8506944,17.815277 4.3215278,18.432638 3.6159722,17.903471 2.9104167,18.07986 1.9402778,18.168055 1.5875,18.961805 0.97013889,18.344444 0.26458333,17.638888 -0.26458333,17.021527 -0.08819444,16.139583 0.08819444,15.434027 1.1465278,15.610416 1.6756944,15.081249 2.2930556,14.375694 2.38125,13.229166 3.175,13.140971 Z"
     id="path65"
     inkscape:connector-curvature="0" />
  <path
     style="fill:#36af4a;fill-opacity:1;fill-rule:nonzero;stroke:none"
     d="m 22.577778,19.755555 c 0.79375,0.08819 0.529166,0.970139 0.970139,1.675694 0.176389,0.352778 1.322916,0.264584 1.322916,0.705556 0.08819,0.617361 1.411111,0.881944 1.058334,1.499305 -0.264584,0.440973 -2.293056,0.705556 -2.822223,1.058334 -0.705555,0.440972 -1.234722,-0.176389 -2.028472,-0.264584 -0.881944,-0.08819 -1.411111,0.529167 -1.852083,-0.176389 -0.529167,-0.79375 -0.881945,-1.499305 -0.440972,-2.38125 C 19.05,21.25486 20.020139,21.607638 20.6375,21.25486 c 0.79375,-0.529166 1.146528,-1.5875 1.940278,-1.499305 z"
     id="path67"
     inkscape:connector-curvature="0" />
  <path
     style="fill:#36af4a;fill-opacity:1;fill-rule:nonzero;stroke:none"
     d="m 16.404167,20.549305 c 0.79375,0.08819 0.529166,0.970139 0.970139,1.675694 0.264583,0.352778 1.322916,0.264584 1.322916,0.705556 0.08819,0.529166 1.411111,0.881944 1.058334,1.411111 -0.264584,0.529167 -2.293056,0.79375 -2.822223,1.146528 -0.705555,0.440972 -1.234722,-0.264584 -1.940277,-0.264584 -0.970139,-0.08819 -1.499306,0.529167 -1.940278,-0.176389 -0.529167,-0.881944 -0.881945,-1.5875 -0.440972,-2.38125 0.264583,-0.617361 1.234722,-0.264583 1.852083,-0.617361 0.79375,-0.529166 1.234722,-1.675694 1.940278,-1.499305 z"
     id="path69"
     inkscape:connector-curvature="0" />
  <path
     style="fill:#36af4a;fill-opacity:1;fill-rule:nonzero;stroke:none"
     d="m 14.552083,17.462499 c 0.79375,0.176389 0.529167,1.058334 0.970139,1.675695 0.176389,0.352777 1.322917,0.352777 1.322917,0.705555 0.08819,0.617361 1.411111,0.970139 1.058333,1.499306 -0.264583,0.529166 -2.293055,0.79375 -2.822222,1.146528 -0.705556,0.440972 -1.234722,-0.264584 -2.028472,-0.264584 -0.881945,-0.08819 -1.411111,0.529167 -1.852084,-0.264583 -0.529166,-0.79375 -0.881944,-1.499306 -0.529166,-2.38125 0.352778,-0.617361 1.322916,-0.176389 1.940278,-0.617361 0.79375,-0.440972 1.146527,-1.5875 1.940277,-1.499306 z"
     id="path71"
     inkscape:connector-curvature="0" />
  <path
     style="fill:#36af4a;fill-opacity:1;fill-rule:nonzero;stroke:none"
     d="m 14.904861,18.785416 c 0.79375,0.176389 0.529167,0.970139 0.970139,1.675694 0.176389,0.352778 1.322917,0.352778 1.322917,0.705556 0.08819,0.617361 1.411111,0.970139 1.058333,1.499305 -0.264583,0.440973 -2.293056,0.79375 -2.822222,1.146528 -0.705556,0.440972 -1.234722,-0.264583 -2.028472,-0.352778 -0.881945,0 -1.411112,0.617362 -1.852084,-0.176388 -0.529166,-0.79375 -0.881944,-1.499306 -0.529166,-2.38125 0.352777,-0.617362 1.322916,-0.176389 1.940277,-0.617362 0.79375,-0.440972 1.146528,-1.5875 1.940278,-1.499305 z"
     id="path73"
     inkscape:connector-curvature="0" />
  <path
     style="fill:#36af4a;fill-opacity:1;fill-rule:nonzero;stroke:none"
     d="m 19.05,18.168055 c 0.79375,0.08819 0.529167,0.970139 0.970139,1.675694 0.264583,0.352778 1.322917,0.264584 1.322917,0.617361 0.08819,0.617361 1.411111,0.970139 1.058333,1.499306 -0.264583,0.529167 -2.293056,0.79375 -2.822222,1.146528 -0.705556,0.440972 -1.234723,-0.264584 -1.940278,-0.264584 -0.970139,-0.08819 -1.499306,0.529167 -1.940278,-0.264583 -0.529167,-0.79375 -0.881944,-1.499306 -0.440972,-2.293056 0.264583,-0.617361 1.234722,-0.264583 1.852083,-0.617361 0.79375,-0.529166 1.146528,-1.675694 1.940278,-1.499305 z"
     id="path75"
     inkscape:connector-curvature="0" />
  <path
     style="fill:#36af4a;fill-opacity:1;fill-rule:nonzero;stroke:none"
     d="m 8.73125,6.6145826 c 0.3527778,0.088194 0.2645833,0.4409722 0.4409722,0.7055555 0.088195,0.1763889 0.5291667,0.1763889 0.6173611,0.3527778 0,0.2645833 0.5291667,0.4409722 0.4409727,0.6173611 C 10.054167,8.5548603 9.1722222,8.6430548 8.9958333,8.8194437 8.6430556,8.9958326 8.3784722,8.7312492 8.1138889,8.7312492 7.6729167,8.6430548 7.4965278,8.9076381 7.2319444,8.5548603 7.0555556,8.290277 6.8791667,7.9374992 7.0555556,7.5847214 7.14375,7.3201381 7.5847222,7.496527 7.8493056,7.3201381 8.2020833,7.0555548 8.3784722,6.6145826 8.73125,6.6145826 Z"
     id="path77"
     inkscape:connector-curvature="0" />
  <path
     style="fill:#36af4a;fill-opacity:1;fill-rule:nonzero;stroke:none"
     d="m 9.525,18.609027 c 0.3527778,0.08819 0.2645833,0.440972 0.4409722,0.79375 0.088195,0.08819 0.6173608,0.08819 0.6173608,0.264583 0,0.264584 0.617361,0.440973 0.440973,0.705556 -0.176389,0.176389 -0.970139,0.264583 -1.2347227,0.440972 -0.3527777,0.176389 -0.5291666,-0.08819 -0.8819444,-0.08819 -0.4409722,-0.0882 -0.6173611,0.176389 -0.8819445,-0.0882 C 7.8493056,20.284721 7.6729167,19.931944 7.8493056,19.579166 7.9375,19.314583 8.3784722,19.490971 8.73125,19.314583 8.9958333,19.049999 9.1722222,18.609027 9.525,18.609027 Z"
     id="path79"
     inkscape:connector-curvature="0" />
  <path
     style="fill:#36af4a;fill-opacity:1;fill-rule:nonzero;stroke:none"
     d="m 11.465278,14.375694 c 0.352778,0 0.176389,0.440972 0.440972,0.705555 0.08819,0.176389 0.529167,0.176389 0.529167,0.352778 0.08819,0.264583 0.617361,0.352778 0.440972,0.617361 -0.08819,0.264583 -0.970139,0.352778 -1.234722,0.529167 -0.264584,0.176389 -0.529167,-0.08819 -0.881945,-0.176389 -0.352778,0 -0.617361,0.264583 -0.7937498,-0.08819 -0.1763889,-0.352777 -0.3527778,-0.617361 -0.1763889,-1.058333 0.088195,-0.264583 0.5291667,-0.08819 0.7937497,-0.264583 0.352778,-0.176389 0.529167,-0.705556 0.881945,-0.617361 z"
     id="path81"
     inkscape:connector-curvature="0" />
  <path
     style="fill:#67bd4b;fill-opacity:1;fill-rule:nonzero;stroke:none"
     d="M 4.6743056,9.9659714 C 4.3215278,9.877777 4.4097222,9.5249992 4.2333333,9.1722214 4.1451389,8.9958326 3.7041667,9.084027 3.6159722,8.9076381 3.6159722,8.5548603 3.0868056,8.4666659 3.175,8.2020826 3.3513889,8.0256937 4.2333333,7.8493048 4.4097222,7.7611103 4.7625,7.5847214 5.0270833,7.8493048 5.2916667,7.8493048 5.7326389,7.9374992 5.9972222,7.6729159 6.1736111,7.9374992 6.35,8.290277 6.5263889,8.6430548 6.35,8.9958326 6.2618056,9.2604159 5.8208333,9.084027 5.55625,9.2604159 5.2034722,9.5249992 5.0270833,9.9659714 4.6743056,9.9659714 Z"
     id="path83"
     inkscape:connector-curvature="0" />
  <path
     style="fill:#36af4a;fill-opacity:1;fill-rule:nonzero;stroke:none"
     d="m 15.875,4.5861103 c 0.352778,0.088195 0.264583,0.4409723 0.440972,0.7055556 0.0882,0.1763889 0.529167,0.1763889 0.617361,0.3527778 0,0.2645833 0.529167,0.4409722 0.440973,0.6173611 C 17.197917,6.5263881 16.315972,6.6145826 16.139583,6.7909714 15.786806,6.9673603 15.522222,6.702777 15.257639,6.702777 14.816667,6.6145826 14.640278,6.8791659 14.375694,6.6145826 14.199306,6.2618048 14.022917,5.909027 14.199306,5.5562492 14.2875,5.2916659 14.728472,5.4680548 14.993056,5.2916659 15.345833,5.0270826 15.522222,4.5861103 15.875,4.5861103 Z"
     id="path85"
     inkscape:connector-curvature="0" />
  <path
     style="fill:#36af4a;fill-opacity:1;fill-rule:nonzero;stroke:none"
     d="m 12.876389,3.9687492 c 0.352778,0.088194 0.176389,0.4409722 0.440972,0.7055556 0.0882,0.1763889 0.529167,0.1763889 0.529167,0.3527778 0.08819,0.2645833 0.617361,0.3527777 0.440972,0.6173611 -0.08819,0.2645833 -0.970139,0.3527777 -1.234722,0.5291666 -0.264584,0.1763889 -0.529167,-0.088194 -0.79375,-0.1763889 -0.440972,0 -0.705556,0.2645834 -0.881945,-0.088194 -0.176389,-0.3527778 -0.352777,-0.6173611 -0.176389,-1.0583333 0.08819,-0.2645834 0.529167,-0.088195 0.79375,-0.2645834 0.352778,-0.1763889 0.529167,-0.7055555 0.881945,-0.6173611 z"
     id="path87"
     inkscape:connector-curvature="0" />
  <path
     style="fill:#36af4a;fill-opacity:1;fill-rule:nonzero;stroke:none"
     d="m 11.377083,5.2034714 c 0.352778,0.088195 0.264584,0.4409723 0.440973,0.79375 0.08819,0.1763889 0.529166,0.088195 0.617361,0.2645834 0,0.2645833 0.529166,0.4409722 0.440972,0.7055555 C 12.7,7.1437492 11.818056,7.3201381 11.641667,7.4083326 c -0.352778,0.1763888 -0.617361,-0.088194 -0.881945,-0.088194 -0.440972,0 -0.617361,0.2645833 -0.8819442,-0.088194 C 9.7013889,6.8791659 9.525,6.5263881 9.7013889,6.1736103 9.7895833,5.909027 10.230556,6.0854159 10.495139,5.909027 10.847917,5.7326381 11.024306,5.2034714 11.377083,5.2034714 Z"
     id="path89"
     inkscape:connector-curvature="0" />
  <path
     style="fill:#36af4a;fill-opacity:1;fill-rule:nonzero;stroke:none"
     d="m 13.758333,5.5562492 c 0.352778,0 0.176389,0.4409722 0.440973,0.7055556 0.08819,0.1763889 0.529166,0.088194 0.529166,0.2645833 0.0882,0.3527778 0.617361,0.4409722 0.440972,0.7055556 -0.08819,0.1763889 -0.970138,0.3527777 -1.146527,0.4409722 -0.352778,0.2645833 -0.617361,-0.088194 -0.881945,-0.088194 -0.440972,0 -0.705555,0.2645834 -0.881944,-0.088194 -0.176389,-0.3527778 -0.352778,-0.6173611 -0.176389,-1.0583333 0.08819,-0.2645834 0.529167,-0.088195 0.79375,-0.2645834 0.352778,-0.1763889 0.529167,-0.7055555 0.881944,-0.6173611 z"
     id="path91"
     inkscape:connector-curvature="0" />
  <path
     style="fill:#55b947;fill-opacity:1;fill-rule:nonzero;stroke:none"
     d="m 29.015831,22.136805 c -0.264442,0.264583 -0.529167,-0.08819 -0.881803,0 -0.176389,0 -0.352778,0.440972 -0.529167,0.352778 -0.264583,-0.176389 -0.705555,0.264583 -0.79375,0 -0.08819,-0.176389 0.176389,-0.970139 0.176389,-1.234723 0,-0.440972 0.352778,-0.440972 0.529167,-0.705555 0.264583,-0.352778 0.08819,-0.705556 0.529166,-0.705556 0.440831,0 0.793891,0 0.969998,0.352778 0.176671,0.176389 -0.176107,0.529167 -0.176107,0.881944 0,0.352778 0.352778,0.79375 0.176107,1.058334 z"
     id="path93"
     inkscape:connector-curvature="0" />
  <path
     style="fill:#67bd4b;fill-opacity:1;fill-rule:nonzero;stroke:none"
     d="m 13.405556,23.900694 c 0.352777,0 0.264583,0.440972 0.440972,0.705555 0.08819,0.176389 0.529166,0.0882 0.529166,0.264584 0.0882,0.352777 0.617362,0.440972 0.529167,0.705555 -0.176389,0.176389 -1.058333,0.352778 -1.234722,0.440972 -0.352778,0.264584 -0.617361,-0.08819 -0.881945,-0.08819 -0.440972,0 -0.705555,0.264583 -0.881944,-0.08819 -0.176389,-0.352777 -0.352778,-0.617361 -0.176389,-1.058333 0.0882,-0.264583 0.529167,-0.08819 0.79375,-0.264583 0.352778,-0.176389 0.529167,-0.705556 0.881945,-0.617361 z"
     id="path95"
     inkscape:connector-curvature="0" />
  <path
     style="fill:#36af4a;fill-opacity:1;fill-rule:nonzero;stroke:none"
     d="m 10.230556,26.546527 c 0.264583,-0.264583 0.529166,0.08819 0.881944,0.08819 0.176389,0 0.440972,-0.352777 0.529167,-0.264583 0.264583,0.08819 0.705555,-0.264583 0.79375,0 0.08819,0.264583 -0.264584,0.970139 -0.352778,1.234722 0,0.440973 -0.352778,0.440973 -0.617361,0.705697 -0.264584,0.264442 -0.176389,0.61722 -0.529167,0.61722 -0.440972,-0.08805 -0.79375,-0.08805 -0.9701388,-0.529167 -0.1763889,-0.264583 0.2645838,-0.440972 0.2645838,-0.79375 0.08819,-0.440972 -0.2645838,-0.881944 0,-1.058333 z"
     id="path97"
     inkscape:connector-curvature="0" />
  <path
     style="fill:#36af4a;fill-opacity:1;fill-rule:nonzero;stroke:none"
     d="m 23.8125,16.404166 c 0.352778,0 0.176389,0.440972 0.352778,0.705555 0.176389,0.176389 0.617361,0.176389 0.617361,0.352778 0,0.264584 0.617361,0.352778 0.440972,0.617361 -0.08819,0.264584 -0.970139,0.352778 -1.234722,0.529167 -0.264583,0.176389 -0.529167,-0.08819 -0.881945,-0.176389 -0.352777,0 -0.617361,0.264583 -0.79375,-0.08819 -0.264583,-0.352778 -0.440972,-0.617361 -0.176388,-1.058334 0.08819,-0.264583 0.529166,-0.08819 0.79375,-0.264583 0.352777,-0.176389 0.529166,-0.705556 0.881944,-0.617361 z"
     id="path99"
     inkscape:connector-curvature="0" />
  <path
     style="fill:#67bd4b;fill-opacity:1;fill-rule:nonzero;stroke:none"
     d="m 5.0270833,18.520833 c 0.3527778,0 0.1763889,0.440972 0.3527778,0.705555 0.088194,0.176389 0.6173611,0.08819 0.6173611,0.264583 0,0.352778 0.6173611,0.440973 0.4409722,0.705556 -0.088194,0.176389 -0.9701388,0.352778 -1.2347222,0.440972 -0.2645833,0.264584 -0.5291666,-0.08819 -0.8819444,-0.08819 -0.3527778,0 -0.6173611,0.264583 -0.79375,-0.08819 -0.2645834,-0.352777 -0.4409722,-0.617361 -0.2645834,-1.058333 0.1763889,-0.264583 0.6173612,-0.08819 0.8819445,-0.264583 0.3527778,-0.176389 0.5291667,-0.705556 0.8819444,-0.617361 z"
     id="path101"
     inkscape:connector-curvature="0" />
  <path
     style="fill:#67bd4b;fill-opacity:1;fill-rule:nonzero;stroke:none"
     d="m 7.3201389,16.315971 c 0.3527778,0.08819 0.2645833,0.440973 0.4409722,0.705556 0.088195,0.176389 0.5291667,0.176389 0.5291667,0.352778 0.088194,0.264583 0.6173611,0.352778 0.4409722,0.617361 -0.088194,0.264583 -0.9701389,0.352778 -1.1465278,0.529167 -0.3527778,0.176388 -0.6173611,-0.08819 -0.8819444,-0.176389 -0.4409722,0 -0.7055556,0.264583 -0.8819445,-0.08819 -0.1763889,-0.352778 -0.3527777,-0.617361 -0.1763889,-1.058333 0.088195,-0.264583 0.5291667,-0.08819 0.79375,-0.264583 0.3527778,-0.176389 0.5291667,-0.705556 0.8819445,-0.617362 z"
     id="path103"
     inkscape:connector-curvature="0" />
  <path
     style="fill:#67bd4b;fill-opacity:1;fill-rule:nonzero;stroke:none"
     d="m 8.9076389,12.964583 c 0.1763889,0.352777 -0.2645833,0.440972 -0.4409722,0.705555 -0.088195,0.176389 0.1763889,0.617361 0,0.705556 -0.1763889,0.08819 -0.088195,0.705555 -0.3527778,0.705555 -0.2645833,0 -0.79375,-0.705555 -0.9701389,-0.881944 -0.3527778,-0.176389 -0.1763889,-0.529167 -0.3527778,-0.79375 -0.1763889,-0.352778 -0.5291666,-0.440972 -0.2645833,-0.79375 0.1763889,-0.352778 0.3527778,-0.705556 0.79375,-0.705556 0.2645833,0 0.3527778,0.440972 0.6173611,0.617361 0.3527778,0.176389 0.8819444,0.0882 0.9701389,0.440973 z"
     id="path105"
     inkscape:connector-curvature="0" />
  <path
     style="fill:#67bd4b;fill-opacity:1;fill-rule:nonzero;stroke:none"
     d="m 19.490972,9.2604159 c 0.352778,0.088194 0.264584,0.4409722 0.440972,0.7937501 0.08819,0.176389 0.529167,0.08819 0.529167,0.264583 0.0882,0.264584 0.617361,0.440972 0.440972,0.705556 -0.08819,0.176389 -0.970139,0.352778 -1.146527,0.440972 -0.352778,0.176389 -0.617362,-0.08819 -0.881945,-0.08819 -0.440972,0 -0.705555,0.264583 -0.881944,-0.0882 -0.176389,-0.352778 -0.352778,-0.705555 -0.176389,-1.058333 0.08819,-0.2645836 0.529166,-0.0882 0.79375,-0.2645836 0.352778,-0.1763888 0.529166,-0.7055555 0.881944,-0.7055555 z"
     id="path107"
     inkscape:connector-curvature="0" />
  <path
     style="fill:#67bd4b;fill-opacity:1;fill-rule:nonzero;stroke:none"
     d="m 12.170833,17.197916 c 0.352778,0.08819 0.264584,0.440972 0.440973,0.705555 0.08819,0.176389 0.617361,0.176389 0.617361,0.352778 0,0.264584 0.617361,0.352778 0.440972,0.617361 -0.0882,0.264584 -0.970139,0.352778 -1.234722,0.529167 -0.264584,0.176389 -0.529167,-0.08819 -0.881945,-0.176389 -0.352778,0 -0.617361,0.264583 -0.79375,-0.08819 -0.264583,-0.352778 -0.440972,-0.617361 -0.264583,-1.058334 0.176389,-0.264583 0.617361,-0.08819 0.881944,-0.264583 0.352778,-0.176389 0.529167,-0.705556 0.79375,-0.617361 z"
     id="path109"
     inkscape:connector-curvature="0" />
  <path
     style="fill:#67bd4b;fill-opacity:1;fill-rule:nonzero;stroke:none"
     d="m 5.1152778,22.04861 c 0.2645833,-0.352777 0.7055555,0.08819 1.1465278,0.08819 0.2645833,0 0.6173611,-0.617361 0.8819444,-0.440972 0.3527778,0.176388 0.9701389,-0.440973 1.1465278,0 C 8.4666667,21.960416 7.9375,23.106944 7.9375,23.547916 c -0.088194,0.529167 -0.6173611,0.617361 -0.8819444,0.970139 -0.3527778,0.440972 -0.2645834,0.970139 -0.79375,0.970139 -0.6173612,-0.08819 -1.1465278,-0.08819 -1.4111112,-0.617361 -0.2645833,-0.352778 0.3527778,-0.705556 0.3527778,-1.234723 0,-0.617361 -0.4409722,-1.146527 -0.088194,-1.5875 z"
     id="path111"
     inkscape:connector-curvature="0" />
  <path
     style="fill:#36af4a;fill-opacity:1;fill-rule:nonzero;stroke:none"
     d="m 14.111111,8.4666659 c 0.881945,0.1763889 0.529167,0.9701389 0.970139,1.6756941 0.264583,0.352778 1.322917,0.264584 1.411111,0.705556 0,0.617361 1.322917,0.881944 0.970139,1.499305 -0.264583,0.440973 -2.293056,0.79375 -2.822222,1.058334 -0.705556,0.440972 -1.234722,-0.176389 -1.940278,-0.264584 -0.881944,0 -1.499306,0.529167 -1.940278,-0.176388 -0.529166,-0.79375 -0.8819442,-1.499306 -0.440972,-2.38125 0.264583,-0.6173616 1.234722,-0.176389 1.852083,-0.6173616 0.79375,-0.4409722 1.234723,-1.5875 1.940278,-1.4993055 z"
     id="path113"
     inkscape:connector-curvature="0" />
  <path
     style="fill:#36af4a;fill-opacity:1;fill-rule:nonzero;stroke:none"
     d="m 11.200694,7.7611103 c 0.79375,0.1763889 0.529167,1.0583334 0.970139,1.6756945 0.176389,0.3527778 1.322917,0.3527778 1.322917,0.7055552 0.08819,0.617361 1.411111,0.970139 1.058333,1.499306 -0.264583,0.529167 -2.293055,0.79375 -2.822222,1.146528 C 11.024306,13.229166 10.495139,12.52361 9.7013889,12.52361 8.8194444,12.435416 8.2902778,13.052777 7.8493056,12.259027 7.3201389,11.465277 6.9673611,10.759721 7.3201389,9.877777 7.6729167,9.2604159 8.6430556,9.7013881 9.2604167,9.2604159 10.054167,8.8194437 10.406944,7.6729159 11.200694,7.7611103 Z"
     id="path115"
     inkscape:connector-curvature="0" />
  <path
     style="fill:#36af4a;fill-opacity:1;fill-rule:nonzero;stroke:none"
     d="m 17.109722,15.434027 c 0,0 -1.499305,1.234722 -2.116666,1.058333 -0.705556,-0.176389 -0.970139,-0.705555 -1.146528,0.176389 -0.176389,0.881945 -0.352778,2.293056 0.617361,2.204861 1.058333,0 0.79375,0.529167 2.028472,0.79375 1.234722,0.352778 1.322917,0.0882 1.852083,-0.79375 0.617362,-0.881944 1.940278,-2.204861 1.146528,-2.469444 -0.79375,-0.176389 0.176389,-1.146528 -0.617361,-1.675695 -0.705555,-0.617361 -1.763889,-0.264583 -1.763889,0.705556 z"
     id="path117"
     inkscape:connector-curvature="0" />
  <path
     style="fill:#36af4a;fill-opacity:1;fill-rule:nonzero;stroke:none"
     d="m 12.435417,17.021527 c 0,0 -1.499306,1.234722 -2.116667,1.058333 -0.7055556,-0.264583 -0.9701389,-0.705555 -1.1465278,0.176389 -0.1763889,0.881945 -0.3527778,2.293056 0.6173611,2.204861 0.9701387,0 0.7937497,0.529167 2.0284727,0.79375 1.234722,0.352778 1.322916,0 1.852083,-0.79375 0.617361,-0.881944 1.940278,-2.204861 1.146528,-2.469444 -0.79375,-0.176389 0.176389,-1.146528 -0.617361,-1.675695 -0.705556,-0.617361 -1.763889,-0.264583 -1.763889,0.705556 z"
     id="path119"
     inkscape:connector-curvature="0" />
  <path
     style="fill:#55b947;fill-opacity:1;fill-rule:nonzero;stroke:none"
     d="m 15.610417,10.583333 c 0.352777,1.146527 1.940277,1.411111 -0.176389,1.234722 -0.970139,0.352778 -0.176389,1.146528 -1.058334,0.705555 0,0 -0.352777,0.0882 -0.705555,0.176389 -0.0882,-0.264583 -0.0882,-1.411111 0.264583,-1.499305 0.79375,0.08819 0.970139,-0.352778 1.675695,-0.617361 z"
     id="path121"
     inkscape:connector-curvature="0" />
  <path
     style="fill:#55b947;fill-opacity:1;fill-rule:nonzero;stroke:none"
     d="m 16.051389,16.580555 c 0.352778,1.146528 1.940278,1.411111 -0.176389,1.234722 -0.970139,0.352778 -0.176389,1.146528 -1.058333,0.705556 0,0 -0.352778,0.08819 -0.705556,0.176388 -0.08819,-0.352777 -0.08819,-1.411111 0.264583,-1.499305 0.79375,0.08819 0.970139,-0.352778 1.675695,-0.617361 z"
     id="path123"
     inkscape:connector-curvature="0" />
  <path
     style="fill:#55b947;fill-opacity:1;fill-rule:nonzero;stroke:none"
     d="m 16.756944,15.522221 c 0.352778,1.146528 1.940278,1.411112 -0.176388,1.234723 -0.970139,0.352777 -0.176389,1.146527 -1.058334,0.705555 0,0 -0.352778,0.08819 -0.705555,0.176389 -0.0882,-0.264583 -0.0882,-1.411111 0.264583,-1.499305 0.79375,0.08819 0.970139,-0.352778 1.675694,-0.617362 z"
     id="path125"
     inkscape:connector-curvature="0" />
  <path
     style="fill:#55b947;fill-opacity:1;fill-rule:nonzero;stroke:none"
     d="m 16.404167,13.758333 c -1.234723,0 -1.940278,1.499305 -1.234723,-0.529167 0,-1.058333 -0.970138,-0.440972 -0.264583,-1.234722 0,0 0,-0.352778 -0.08819,-0.705556 0.352777,0 1.499305,0.352778 1.499305,0.705556 -0.352778,0.705555 0,1.058333 0.0882,1.763889 z"
     id="path127"
     inkscape:connector-curvature="0" />
  <path
     style="fill:#67bd4b;fill-opacity:1;fill-rule:nonzero;stroke:none"
     d="m 16.580556,19.402777 c 0.352777,0.08819 0.264583,0.440972 0.440972,0.79375 0.08819,0.176389 0.529166,0.08819 0.617361,0.264583 0,0.264584 0.529167,0.440973 0.440972,0.705556 -0.176389,0.176389 -1.058333,0.352778 -1.234722,0.440972 -0.352778,0.176389 -0.617361,-0.08819 -0.881945,-0.08819 -0.440972,0 -0.617361,0.264583 -0.881944,-0.08819 -0.176389,-0.352778 -0.352778,-0.705555 -0.176389,-1.058333 0.08819,-0.264583 0.529167,-0.08819 0.79375,-0.264583 0.352778,-0.264584 0.529167,-0.705556 0.881945,-0.705556 z"
     id="path129"
     inkscape:connector-curvature="0" />
</svg>
