<?xml version="1.0" encoding="UTF-8" standalone="no"?>
<svg
   xmlns:dc="http://purl.org/dc/elements/1.1/"
   xmlns:cc="http://creativecommons.org/ns#"
   xmlns:rdf="http://www.w3.org/1999/02/22-rdf-syntax-ns#"
   xmlns:svg="http://www.w3.org/2000/svg"
   xmlns="http://www.w3.org/2000/svg"
   xmlns:sodipodi="http://sodipodi.sourceforge.net/DTD/sodipodi-0.dtd"
   xmlns:inkscape="http://www.inkscape.org/namespaces/inkscape"
   version="1.0"
   width="18.2626mm"
   height="7.1458669mm"
   id="svg2"
   inkscape:version="0.91 r13725"
   viewBox="0 0 18.2626 7.1458669"
   sodipodi:docname="OPlantaH.svg">
  <metadata
     id="metadata37">
    <rdf:RDF>
      <cc:Work
         rdf:about="">
        <dc:format>image/svg+xml</dc:format>
        <dc:type
           rdf:resource="http://purl.org/dc/dcmitype/StillImage" />
        <dc:title></dc:title>
      </cc:Work>
    </rdf:RDF>
  </metadata>
  <sodipodi:namedview
     pagecolor="#ffffff"
     bordercolor="#666666"
     borderopacity="1"
     objecttolerance="10"
     gridtolerance="10"
     guidetolerance="10"
     inkscape:pageopacity="0"
     inkscape:pageshadow="2"
     inkscape:window-width="640"
     inkscape:window-height="480"
     id="namedview35"
     inkscape:document-units="mm"
     showgrid="false"
     inkscape:zoom="5.3932932"
     inkscape:cx="32.355"
     inkscape:cy="12.66"
     inkscape:window-x="0"
     inkscape:window-y="0"
     inkscape:window-maximized="0"
     inkscape:current-layer="svg2" />
  <defs
     id="defs4">
    <pattern
       id="EMFhbasepattern"
       patternUnits="userSpaceOnUse"
       width="6"
       height="6"
       x="0"
       y="0" />
  </defs>
  <path
     style="fill:#63441d;fill-opacity:1;fill-rule:evenodd;stroke:#b7b680;stroke-width:0.70555556px;stroke-linecap:butt;stroke-linejoin:miter;stroke-miterlimit:4;stroke-dasharray:none;stroke-opacity:1"
     d="m 0.26458333,0.70555536 c 0,0 4.32152777,1.05833334 8.73124997,1.05833334 4.4097227,0 8.9076387,-1.05833334 8.9076387,-1.05833334 0,5.82083334 0,5.82083334 0,5.82083334 0,0 -4.497916,-1.0583333 -8.9076387,-1.0583333 -4.4097222,0 -8.73124997,1.0583333 -8.73124997,1.0583333 z"
     id="path7"
     inkscape:connector-curvature="0" />
  <path
     style="fill:#36af4a;fill-opacity:1;fill-rule:nonzero;stroke:none"
     d="M 7.5847222,0.61736092 C 8.2902778,0.9701387 8.9076389,1.4993054 9.0840278,2.2048609 c 0.088194,0.4409722 0,0.9701389 -0.088195,1.3229167 -0.1763889,0.6173611 2.2930557,1.5875 1.7638887,1.9402778 -2.028472,1.7638889 -2.4694442,-0.4409723 -4.3215276,0 C 5.6444444,5.6444443 5.2916667,4.8506943 4.6743056,4.4979165 3.8805556,4.2333331 3.175,4.5861109 2.9104167,3.7041665 2.7340278,2.822222 2.5576389,2.028472 3.2631944,1.3229165 3.7041667,0.88194425 4.4979167,1.4993054 5.2916667,1.4111109 6.1736111,1.1465276 6.8791667,0.1763887 7.5847222,0.61736092 Z"
     id="path9"
     inkscape:connector-curvature="0" />
  <path
     style="fill:#67bd4b;fill-opacity:1;fill-rule:nonzero;stroke:none"
     d="m 13.934722,1.3229165 c 0.705556,0.3527778 0.176389,1.1465278 0.352778,1.8520833 0.08819,0.4409722 1.234722,0.7055556 1.058333,1.1465278 -0.08819,0.6173611 1.058334,1.3229167 0.529167,1.7638889 -0.440972,0.3527778 -2.38125,0 -2.998611,0.088194 C 12.082639,6.3499998 11.729861,5.5562498 11.024306,5.2916665 10.230556,4.9388887 9.525,5.3798609 9.3486111,4.4979165 9.0840278,3.615972 8.9958333,2.822222 9.6131944,2.1166665 c 0.4409726,-0.5291667 1.3229166,0.1763889 2.0284726,0 0.881944,-0.1763889 1.5875,-1.1465278 2.293055,-0.79375 z"
     id="path11"
     inkscape:connector-curvature="0" />
  <path
     style="fill:#67bd4b;fill-opacity:1;fill-rule:nonzero;stroke:none"
     d="M 7.2319444,3.3513887 C 7.0555556,3.0868054 7.4083333,2.9104165 7.5847222,2.6458331 7.6729167,2.4694443 7.3201389,2.1166665 7.4965278,1.9402776 c 0.1763889,-0.1763889 0,-0.7055556 0.2645833,-0.7055556 0.2645833,0 0.8819445,0.6173611 1.0583333,0.7055556 0.3527778,0.1763889 0.2645834,0.5291667 0.4409723,0.79375 C 9.4368056,3.0868054 9.7895833,3.0868054 9.7013889,3.4395831 9.525,3.8805554 9.3486111,4.1451387 8.9076389,4.2333331 8.6430556,4.3215276 8.5548611,3.8805554 8.2020833,3.7041665 c -0.3527777,-0.1763889 -0.8819444,0 -0.9701389,-0.3527778 z"
     id="path13"
     inkscape:connector-curvature="0" />
  <path
     style="fill:#67bd4b;fill-opacity:1;fill-rule:nonzero;stroke:none"
     d="M 2.2930556,4.8506943 C 2.1166667,4.5861109 2.4694444,4.409722 2.6458333,4.1451387 2.7340278,3.9687498 2.38125,3.615972 2.5576389,3.4395831 c 0.1763889,-0.1763888 0,-0.7055555 0.2645833,-0.7055555 0.2645834,0 0.8819445,0.6173611 1.0583334,0.7055555 0.3527777,0.1763889 0.2645833,0.5291667 0.4409722,0.79375 C 4.4979167,4.5861109 4.8506944,4.5861109 4.7625,4.9388887 4.5861111,5.3798609 4.4097222,5.6444443 3.96875,5.7326387 3.7041667,5.8208331 3.6159722,5.3798609 3.2631944,5.203472 2.9104167,5.0270831 2.38125,5.203472 2.2930556,4.8506943 Z"
     id="path15"
     inkscape:connector-curvature="0" />
  <path
     style="fill:#67bd4b;fill-opacity:1;fill-rule:nonzero;stroke:none"
     d="M 4.1451389,5.997222 C 3.96875,5.7326387 4.3215278,5.5562498 4.4979167,5.2916665 4.5861111,5.1152776 4.2333333,4.7624998 4.4097222,4.5861109 c 0.1763889,-0.1763889 0,-0.7055555 0.2645834,-0.7055555 0.2645833,0 0.8819444,0.6173611 1.0583333,0.7055555 0.3527778,0.1763889 0.2645833,0.5291667 0.4409722,0.79375 C 6.35,5.7326387 7.3201389,4.9388887 7.14375,5.2916665 7.0555556,5.7326387 6.2618056,6.790972 5.8208333,6.8791665 5.55625,6.9673609 5.4680556,6.5263887 5.1152778,6.3499998 4.7625,6.1736109 4.2333333,6.3499998 4.1451389,5.997222 Z"
     id="path17"
     inkscape:connector-curvature="0" />
  <path
     style="fill:#67bd4b;fill-opacity:1;fill-rule:nonzero;stroke:none"
     d="m 9.0840278,4.4979165 c 0.3527778,0.088194 0.088194,0.4409722 0.1763889,0.79375 0,0.1763889 0.5291666,0.2645833 0.4409722,0.4409722 -0.088195,0.2645833 0.4409721,0.6173611 0.2645833,0.79375 -0.1763889,0.1763889 -1.0583333,0 -1.3229166,0.088194 C 8.2902778,6.7027776 8.1138889,6.3499998 7.8493056,6.1736109 7.4965278,6.0854165 7.14375,6.2618054 7.0555556,5.8208331 6.9673611,5.4680554 6.8791667,5.1152776 7.2319444,4.7624998 c 0.1763889,-0.1763889 0.5291667,0.088195 0.8819445,0 0.3527778,-0.088194 0.7055555,-0.4409722 0.9701389,-0.2645833 z"
     id="path19"
     inkscape:connector-curvature="0" />
  <path
     style="fill:#67bd4b;fill-opacity:1;fill-rule:nonzero;stroke:none"
     d="M 5.0270833,-1.9318853e-7 C 5.3798611,0.08819425 5.1152778,0.44097203 5.2034722,0.79374981 c 0,0.17638889 0.5291667,0.26458329 0.4409722,0.44097219 -0.088194,0.2645834 0.4409723,0.6173611 0.2645834,0.79375 -0.1763889,0.1763889 -1.0583334,0 -1.3229167,0.088195 C 4.2333333,2.2048609 4.0569444,1.8520831 3.7923611,1.6756943 3.4395833,1.5874998 3.0868056,1.7638887 2.9986111,1.3229165 2.9104167,0.9701387 2.8222222,0.61736092 3.175,0.26458314 c 0.1763889,-0.17638889 0.5291667,0.0881944 0.8819444,0 C 4.4097222,0.1763887 4.7625,-0.17638908 5.0270833,-1.9318853e-7 Z"
     id="path21"
     inkscape:connector-curvature="0" />
  <path
     style="fill:#67bd4b;fill-opacity:1;fill-rule:nonzero;stroke:none"
     d="m 10.759722,1.0583331 c 0.264584,0.1763889 0.0882,0.4409723 0.176389,0.79375 0,0.1763889 0.440972,0.3527778 0.440972,0.5291667 -0.08819,0.2645833 0.440973,0.5291667 0.176389,0.7055556 -0.176389,0.1763889 -1.058333,0.088194 -1.322916,0.088194 C 9.8777778,3.2631943 9.7895833,2.9104165 9.4368056,2.822222 9.0840278,2.6458331 8.8194444,2.822222 8.73125,2.4694443 8.6430556,2.028472 8.5548611,1.6756943 8.8194444,1.4111109 c 0.2645834,-0.2645833 0.6173612,0.088194 0.8819445,0 0.4409721,-0.088194 0.7055551,-0.52916665 1.0583331,-0.3527778 z"
     id="path23"
     inkscape:connector-curvature="0" />
  <path
     style="fill:#36af4a;fill-opacity:1;fill-rule:nonzero;stroke:none"
     d="m 14.904861,2.1166665 c 0.352778,0.1763889 0.08819,0.5291666 0.176389,0.8819444 0,0.1763889 0.529167,0.2645834 0.440972,0.4409722 -0.08819,0.2645834 0.440972,0.6173612 0.264584,0.79375 -0.176389,0.1763889 -1.058334,0 -1.322917,0.088194 -0.352778,0.088194 -0.529167,-0.3527778 -0.79375,-0.4409722 -0.352778,-0.1763889 -0.705556,0 -0.79375,-0.3527778 C 12.788194,3.0868054 12.7,2.822222 13.052778,2.4694443 c 0.176389,-0.1763889 0.529166,0.088194 0.881944,0 0.352778,-0.088195 0.705556,-0.5291667 0.970139,-0.3527778 z"
     id="path25"
     inkscape:connector-curvature="0" />
  <path
     style="fill:#36af4a;fill-opacity:1;fill-rule:nonzero;stroke:none"
     d="m 12.259028,4.6743054 c 0.352778,0.1763889 0.08819,0.5291666 0.176389,0.8819444 0.08819,0.1763889 0.529166,0.2645833 0.440972,0.4409722 0,0.2645834 0.440972,0.6173611 0.264583,0.79375 -0.176389,0.1763889 -1.058333,0 -1.322916,0.088195 -0.352778,0.088194 -0.529167,-0.3527778 -0.79375,-0.4409722 -0.352778,-0.1763889 -0.705556,0 -0.79375,-0.3527778 -0.0882,-0.4409722 -0.176389,-0.7055556 0.176388,-1.0583334 0.176389,-0.1763888 0.529167,0.088195 0.881945,0 0.352778,-0.088194 0.705555,-0.5291666 0.970139,-0.3527777 z"
     id="path27"
     inkscape:connector-curvature="0" />
  <path
     style="fill:#36af4a;fill-opacity:1;fill-rule:nonzero;stroke:none"
     d="m 3.7041667,1.234722 c 0.3527777,0.1763889 0.088194,0.5291667 0.1763889,0.8819445 0.088194,0.1763889 0.5291666,0.2645833 0.4409722,0.4409722 0,0.2645833 0.4409722,0.6173611 0.2645833,0.79375 -0.1763889,0.1763889 -1.0583333,0 -1.3229167,0.088194 -0.3527777,0.088194 -0.5291666,-0.3527777 -0.79375,-0.4409722 -0.3527777,-0.1763889 -0.7055555,0 -0.79375,-0.3527778 C 1.5875,2.2048609 1.4993056,1.9402776 1.8520833,1.5874998 c 0.1763889,-0.1763889 0.5291667,0.088194 0.8819445,0 C 3.0868056,1.4993054 3.4395833,1.0583331 3.7041667,1.234722 Z"
     id="path29"
     inkscape:connector-curvature="0" />
  <path
     style="fill:#36af4a;fill-opacity:1;fill-rule:nonzero;stroke:none"
     d="m 12.082639,0.52916647 c 0.352778,0.17638889 0.08819,0.52916663 0.176389,0.88194443 0.08819,0.1763889 0.529166,0.2645834 0.440972,0.4409722 0,0.2645834 0.440972,0.6173612 0.264583,0.79375 -0.176389,0.1763889 -1.058333,0 -1.322916,0.088195 -0.352778,0.088194 -0.529167,-0.3527778 -0.79375,-0.4409722 -0.352778,-0.1763889 -0.705556,0 -0.79375,-0.3527778 -0.088195,-0.4409722 -0.1763892,-0.7055556 0.176389,-1.05833335 0.176388,-0.17638889 0.529166,0.0881945 0.881944,0 0.352778,-0.0881944 0.705556,-0.52916667 0.970139,-0.35277778 z"
     id="path31"
     inkscape:connector-curvature="0" />
  <path
     style="fill:#36af4a;fill-opacity:1;fill-rule:nonzero;stroke:none"
     d="m 13.758333,2.822222 c 0,0.3527778 -0.352777,0.2645834 -0.705555,0.4409723 -0.0882,0.088194 -0.0882,0.6173611 -0.264584,0.6173611 -0.264583,0.088194 -0.352777,0.6173611 -0.617361,0.5291666 -0.176389,-0.088194 -0.352777,-0.9701389 -0.529166,-1.2347222 -0.264584,-0.2645833 0,-0.5291667 0,-0.8819444 0,-0.3527778 -0.264584,-0.6173611 0.08819,-0.79375 C 11.994444,1.234722 12.347222,1.0583331 12.7,1.234722 c 0.264583,0.088194 0.176389,0.5291667 0.352778,0.79375 0.264583,0.2645834 0.79375,0.4409723 0.705555,0.79375 z"
     id="path33"
     inkscape:connector-curvature="0" />
</svg>
