<?xml version="1.0" encoding="UTF-8" standalone="no"?>
<svg
   xmlns:dc="http://purl.org/dc/elements/1.1/"
   xmlns:cc="http://creativecommons.org/ns#"
   xmlns:rdf="http://www.w3.org/1999/02/22-rdf-syntax-ns#"
   xmlns:svg="http://www.w3.org/2000/svg"
   xmlns="http://www.w3.org/2000/svg"
   xmlns:sodipodi="http://sodipodi.sourceforge.net/DTD/sodipodi-0.dtd"
   xmlns:inkscape="http://www.inkscape.org/namespaces/inkscape"
   version="1.0"
   width="100.01mm"
   height="72.690002mm"
   id="svg2"
   inkscape:version="0.91 r13725"
   viewBox="0 0 100.01 72.690002"
   sodipodi:docname="PistaPadel.svg">
  <metadata
     id="metadata305">
    <rdf:RDF>
      <cc:Work
         rdf:about="">
        <dc:format>image/svg+xml</dc:format>
        <dc:type
           rdf:resource="http://purl.org/dc/dcmitype/StillImage" />
        <dc:title></dc:title>
      </cc:Work>
    </rdf:RDF>
  </metadata>
  <sodipodi:namedview
     pagecolor="#ffffff"
     bordercolor="#666666"
     borderopacity="1"
     objecttolerance="10"
     gridtolerance="10"
     guidetolerance="10"
     inkscape:pageopacity="0"
     inkscape:pageshadow="2"
     inkscape:window-width="640"
     inkscape:window-height="480"
     id="namedview303"
     inkscape:document-units="mm"
     showgrid="false"
     inkscape:zoom="0.91628067"
     inkscape:cx="177.18307"
     inkscape:cy="128.7815"
     inkscape:window-x="0"
     inkscape:window-y="0"
     inkscape:window-maximized="0"
     inkscape:current-layer="svg2" />
  <defs
     id="defs4">
    <pattern
       id="EMFhbasepattern"
       patternUnits="userSpaceOnUse"
       width="6"
       height="6"
       x="0"
       y="0" />
  </defs>
  <path
     style="fill:#275346;fill-opacity:1;fill-rule:evenodd;stroke:none"
     d="m 66.329275,58.898931 -0.436316,0.168487 -0.198402,3.561644 -0.02992,2.976034 -1.498035,0.575451 0,0.506024 0.347415,0 -0.03979,0.267829 -6.438618,3.283656 0.198402,-14.583269 8.472312,-3.69062 0.02992,0.833402 -0.248073,0.0099 z m 8.670713,-7.956409 -0.575451,4.077265 -0.436316,4.722142 -0.02992,1.468402 -1.180536,0.575451 0.168769,0.634718 -5.525911,2.916767 -0.02963,-7.956409 0.337255,-4.741898 -0.0099,-1.378938 7.648787,-3.363242 -0.198402,1.021927 z m 7.648787,-0.158891 c -0.823243,0.3175 -0.605085,3.214511 -0.724183,4.206522 -0.0099,0.128976 -0.218157,2.053449 -0.248073,2.122876 -0.535658,1.061438 -1.061438,-0.466231 -0.952218,1.210451 l -4.801729,2.579229 -0.119097,-0.138853 0.228317,-4.404643 -0.198402,-0.0099 0.52578,-8.283787 0.03951,-0.754098 6.726203,-2.966155 0.09934,0.853157 z m -6.121118,-4.235873 -0.0099,-1.647049 0.853158,0.119098 c 0.09934,0.138853 0.337255,0.416842 0.337255,0.506024 0,0.694267 -0.704144,0.793609 -1.180535,1.021927 z m -2.876973,-3.045742 0.337537,0 c 0.198403,0 1.408571,0.724182 1.864925,0.84328 l 0.02992,0.853157 -0.228317,1.805376 -1.289756,0.635 0.04967,-0.237913 -4.31546,-2.21234 c 0.347133,-0.307623 3.144802,-1.68656 3.551485,-1.68656 z m 2.341315,-1.071598 -0.0099,1.666804 -1.716193,-0.892951 z m 14.017978,4.613204 -0.446476,0.178647 c -0.01976,0.902829 -0.386926,2.73812 -0.496146,3.740009 -0.218158,1.825413 0.386926,2.450535 -1.36906,2.857218 l 0,0.337255 0.337537,0 c -0.178646,0.664633 -3.730413,2.470291 -4.494106,2.549596 l 0.436315,-6.934483 -0.218157,-0.01976 0.555695,-5.406813 0.01976,-0.793609 6.31952,-2.747998 z M 62.480046,40.793529 c 0.208562,-0.297462 1.994182,-1.864925 2.371231,-1.864925 0.555413,0 5.664482,2.698327 5.922433,3.045743 -0.20828,0.30734 -1.934351,2.20218 -2.20218,2.20218 -0.714304,0 -5.764106,-2.886851 -6.091484,-3.382998 z m 2.708486,-2.539436 c 0.972256,-0.257951 1.329267,-1.696437 2.370949,-1.696437 0.635,0 4.573411,2.430497 5.753947,2.708204 l 0.119098,0.119098 -2.321278,2.251851 c -1.16078,-0.614962 -5.446607,-2.480169 -5.922716,-3.382716 z m 30.704367,12.023796 -1.636889,0.128975 0.03951,0.198403 0.506025,0 -0.02963,0.267829 -4.057508,1.934351 0.535657,-5.912556 -0.188524,-0.0099 0.714304,-6.73608 5.78358,-2.569633 z M 58.710404,35.654827 64.335375,38.42258 c -0.10922,0.416842 -2.133036,2.202462 -2.361071,2.202462 -0.367172,0 -5.069558,-2.519962 -5.813496,-2.9464 z m 30.505964,5.138702 -0.02992,-1.021645 0.347416,-3.273777 2.053449,-0.783731 c 0,2.559473 0.02963,4.811324 -2.370949,5.079153 z m 4.801447,-2.41046 -0.406683,0.485987 -1.68656,0.396804 0,-1.517791 0.307623,-0.0099 0.20828,-2.52984 c 0.20828,-0.119098 0.555413,-0.337255 0.84328,-0.337255 1.011766,0 3.313571,1.587217 4.573411,1.68656 l 0.06943,0.178364 z m -32.896669,-4.871156 5.724031,2.619023 0.02991,0.42672 -2.162668,1.726071 -5.58546,-2.817425 -0.02963,-0.257951 z m 8.124895,3.382998 -0.506024,0 -0.168487,-0.337255 -0.337538,0 -0.495864,-0.198403 -0.0099,-0.476391 0.20828,-4.573411 -0.03979,-0.674511 c 0.84328,0.06943 6.091484,2.400864 6.091484,2.876973 0,0.743938 -0.228317,5.247923 -0.674793,5.247923 -0.555413,0 -3.730131,-1.567463 -4.067387,-1.864925 z m -7.440506,-9.136973 5.545666,2.450282 c 0.03979,0.74422 0.05955,5.37718 -0.456353,5.456484 -0.456353,0.0793 -3.392876,-1.746108 -4.246033,-1.815535 l 0,-0.674511 -0.84328,-0.168769 z m 12.857197,4.404671 c 0,-1.3589 0.178647,-2.480169 0.178647,-3.551485 -0.02004,-1.984135 0.108938,-1.746052 1.587218,-0.92264 0.714304,0.406766 4.42468,1.924529 5.178495,2.103176 l -0.575451,6.081324 -6.349153,-2.728242 z M 48.263948,29.622891 c 0.714304,-0.198402 1.914596,-1.3589 2.370949,-1.3589 0.585329,0 3.631071,1.944229 4.732302,2.20218 l 0,0.337538 -2.361353,1.537547 -4.722142,-2.42062 z m 19.99996,-5.247894 6.051691,2.380968 -0.367171,5.902791 -5.8928,-2.510085 -0.02992,-0.535658 z m -25.079396,4.563505 c 0.119098,-0.496146 0.248074,-0.843252 0.84328,-0.843252 0.198403,0 2.787792,1.537801 3.382998,1.69641 -0.198402,0.277707 -2.142913,1.68656 -2.539718,1.68656 -0.625122,0 -1.855328,-1.001889 -2.52984,-1.180536 l 0.198403,-0.84328 -1.378938,-0.535657 c 0.08918,-0.357294 0.02992,-0.486269 0.496147,-0.486269 0.684388,0 0.84328,0.347415 1.527668,0.506024 z m 0.84328,-1.180564 c 0.257952,-1.091268 0.743938,-1.597236 1.864925,-1.865093 l 4.226278,2.033749 -2.341316,1.73609 z m 6.775874,-4.910723 c 0.565291,0.0099 4.73202,1.815479 4.73202,2.371034 l 0,4.910667 c -0.694549,-0.07931 -1.666522,-0.783732 -2.073487,-0.972256 -0.73406,-0.337256 -1.547424,-0.327378 -1.646767,-1.230066 -0.52578,-0.03968 -1.011766,-0.119041 -1.011766,-0.674624 z m -4.573411,-2.202377 4.027593,1.785704 0.02992,4.990084 c -0.892952,-0.01984 -1.547707,-0.52578 -2.192585,-0.843251 -0.783731,-0.386899 -1.418731,-1.081335 -1.864924,-1.19047 z M 31.50785,24.543653 c 0.138854,-0.515874 4.861278,-3.045629 5.248205,-3.045629 0.62484,0 3.601155,1.597208 3.88874,2.023815 -1.279596,0.307538 -4.563534,2.876974 -5.416691,2.876974 -0.347134,0 -2.83718,-1.646823 -3.720254,-1.85516 z m 19.295816,-7.61904 c 0.704144,0.337283 4.900789,1.77577 4.900789,2.371033 l 0,5.079351 -4.900789,-2.033721 z m -4.74218,-1.865094 c 0.486269,0.03968 4.226278,1.577396 4.226278,2.033721 l 0,4.910724 -4.226278,-1.865066 z m -10.158589,-4.057537 0.406682,5.753975 -0.06943,4.236099 -5.545666,1.636917 -0.238196,-1.636917 0.02992,-0.853158 -0.377049,-5.238101 0.03951,-2.549595 1.16078,-0.277792 z m 1.041682,10.15873 -0.277989,-9.990074 3.958449,1.567462 0.228036,7.569426 -0.03951,2.539689 -3.144803,-1.507941 0.09906,-0.178562 z m 8.610882,-6.944445 -0.168486,0.505968 0,3.214285 -1.190414,-0.337312 -0.357293,0.0992 1.507913,0.654755 0.03979,6.696428 -3.154963,-1.319445 -0.06943,-0.545621 -0.84328,-0.168656 -0.337256,-10.496042 0,-1.855159 -0.188524,-1.6964098 -0.148731,0 0,3.3829418 -0.337256,-0.168656 -3.740009,-1.488102 0.0099,-1.3889 -0.168769,-2.1924433 -0.505742,0 0,2.1924433 0,1.359126 -5.912838,1.40874 -0.0099,-0.734116 -0.178646,-2.7083458 -0.327378,0 0,1.1904698 c 0,2.212312 0.535658,2.529784 -1.527725,2.698411 l 1.696494,0.07939 0.357011,10.247997 c -0.664633,0.01984 -3.829304,1.101203 -4.622969,1.32938 -1.418647,0.396804 -1.339286,0.198402 -1.319418,-1.32938 0.0099,-1.180535 -0.168656,-1.696409 -0.168656,-2.708317 l 0,-1.34922 -0.138909,-1.19047 -0.228149,-0.486099 0.02975,-2.55953 -0.446419,-0.396833 -0.05952,0.565489 0.337283,7.787697 0.07936,2.202377 c -1.359125,0.109107 -4.553571,1.517848 -5.496023,1.517848 l -0.50594,0 -0.168656,-1.517848 -0.853186,-8.46232 -0.327378,-0.188468 -0.0099,0.52578 0.50594,8.125008 0.188496,1.686504 -0.932547,0.367058 -1.795639,0.486099 c 0.168656,0.446448 1.944455,1.517763 2.03375,1.517763 0.724182,0 2.212284,-0.982048 3.412688,-1.081249 l -0.535715,-0.267858 c 0.863092,-0.198402 3.283741,-1.646823 4.285714,-2.142856 0.843252,-0.416645 3.998017,-1.557528 5.049492,-1.537688 l -4.077265,2.519849 1.349192,-0.19843 c 0.128976,-1.230151 7.370911,-4.067443 9.305544,-4.226193 -0.506024,0.68453 -2.112998,1.180563 -2.876973,1.696437 -0.555414,0.376993 -3.244145,1.398807 -2.370949,1.686504 3.144802,-1.140855 3.412631,1.329379 5.753946,1.527782 l 0.506025,-0.168656 1.36906,-0.833318 0.495864,0.148788 -0.0099,-0.496006 c 0.932462,-0.218271 2.539717,-1.696438 3.224106,-1.696438 0.902829,0 3.343205,1.428581 4.236156,1.85516 -0.20828,0.317443 -0.495865,0.674596 -1.021645,0.674596 -0.07959,0 -3.035864,-1.83532 -4.057791,-1.85516 l -1.190413,2.371034 2.281767,1.398806 c -0.495865,0.357067 -0.03951,0.287641 -0.41656,0.287641 -0.694549,0 -0.803769,-0.317387 -1.696438,-0.337228 l 0,0.337228 0.188524,0.327378 1.180536,0.307622 -0.0099,0.555413 0.168487,5.416691 0.337255,10.823505 0,1.359182 0.337256,11.507893 0,0.337256 0.178646,0.84328 -0.515902,-0.168769 0,0.347415 0.377049,0.0099 -0.20828,0.664634 0.84328,0.674511 c 0.20828,-0.118816 0.188525,-0.168487 0.515902,-0.168487 0.763694,0 4.156569,3.2639 5.238045,3.551484 l -0.0099,0.307623 -0.496147,0.198402 c 0.158891,0.228035 1.755987,1.527669 1.865207,1.527669 0.664633,0 0.01976,-0.257951 0.922584,-0.20828 l 5.505874,3.928533 -0.0793,0.257951 -0.367171,0.515902 0.783731,0.585329 c 0.436598,-0.09906 0.367171,-0.178646 0.684671,-0.128975 l 1.359183,-0.04967 0.674511,0.357293 1.011766,-0.515902 0,-0.337256 -0.337255,0 0,-0.515902 c 1.150902,-0.08918 5.694398,-3.214229 6.42874,-3.214229 0.376767,0 0.366889,0.138853 0.674511,0.337256 l 2.262011,-1.05156 -0.406964,-0.654756 5.932593,-3.204351 0.674511,0.347133 2.033976,-1.021926 -0.337538,-0.674511 c 0.466513,-0.248074 5.218289,-2.708205 5.248204,-2.708205 2.321278,0 1.031805,-0.287867 2.708205,-0.674793 l 0,-0.337256 -0.337256,0 0,-0.337255 c 0.555696,-0.267829 4.761936,-2.539718 4.900789,-2.539718 0.456353,0 0.466231,0.0793 0.853158,0.168769 l 1.736231,-0.922585 -0.605367,-0.367171 4.960338,-2.609144 0.347416,0.0099 0.495864,-1.021927 2.202462,-17.093071 0,-1.012049 -0.496146,0.198402 -0.178365,1.319671 c -0.04967,0.575169 0.0099,2.370949 -0.684671,2.370949 -0.198402,0 -3.224107,-1.200573 -3.551484,-1.359182 l -0.188525,-0.327378 -0.992011,0.327378 -0.684671,0.178647 -3.214229,1.517791 -0.01976,0.912706 -1.002172,-0.41656 -0.476108,0.277707 1.359182,0.41656 -0.198402,1.855329 0,0.674511 -0.337256,0 c 0.108938,0.456353 0.168487,0.327378 0.168487,0.684389 0,0.53594 -1.517791,1.012049 -2.20218,1.012049 l 0.08918,0.178646 -1.825413,0.83312 0.238195,-4.186484 1.329267,-0.882791 -2.023816,0.84328 -0.347133,4.573411 c -0.297745,0.198402 -0.297745,0.337256 -0.674793,0.337256 -0.694267,0 -0.952218,-0.178647 -1.011767,-0.853158 l -0.84328,0 0,-1.855329 c 0,-0.456353 0.0793,-0.466231 0.158609,-0.872913 l -0.644596,0.198402 -0.198402,0.84328 -0.168769,1.180535 -0.506024,0 -1.517791,-0.84328 -0.684672,0 0,0.337256 2.539718,1.349304 c -0.138853,0.218158 -1.934351,2.202463 -2.033693,2.202463 -0.277707,0 -1.25984,-0.535658 -1.517791,-0.674794 l 0,-2.539435 -8.124896,3.551484 c 1.934351,-0.03979 1.309511,-0.148731 2.995789,0.73406 0.526062,0.277707 2.470291,1.180536 2.52984,1.507913 l -6.398824,2.837463 0.198402,-3.382998 -0.02963,-1.438487 -2.341316,0.763976 -3.720253,2.023533 5.426569,-2.192302 -0.158609,4.613204 -7.976165,3.68046 -0.853158,0.506025 0.0099,-5.129107 -1.190695,0.04967 0,4.741898 -0.168487,0.674793 -0.168769,14.553636 c -0.01975,0 -2.688449,-1.776025 -2.9464,-1.964549 -0.575451,-0.446193 -2.499924,-1.716193 -2.638778,-2.261729 l 0.337256,0 -0.07931,-0.406682 -1.408853,-0.9525 -0.20828,-7.619153 0,-5.753947 0.337256,0 -0.872914,-0.515902 0.198403,-0.495865 0,-4.573411 -0.506025,-0.506024 0,4.74218 -0.0099,14.752037 -0.327377,-0.198684 c -0.902829,-0.605084 -1.547707,-1.686278 -3.045743,-1.686278 -0.02963,-1.081475 -0.823242,-1.498035 -1.696437,-1.696438 l 0,-0.337255 0.337537,0 -0.01016,-0.486269 -0.972255,-0.426438 -0.168487,0.06943 0.138853,-7.956409 -1.190413,-0.853158 0,-5.248204 -0.337255,0 0,-0.505742 -0.168769,-3.889023 0,-0.674511 0,-1.527951 -0.168769,-2.370949 0,-6.597226 7.450666,3.889022 0.337256,-0.168769 -3.670582,-1.954389 c 0.09906,-0.456353 2.053449,-1.765864 2.490046,-1.765864 0.198403,0 4.652716,2.291644 4.563252,2.539717 0.783731,0.446476 2.837462,-1.864924 3.214511,-1.864924 0.505742,0 0.694266,0.436315 1.527669,0.505742 l 0,-0.337255 -0.168769,0 -1.001889,-0.377049 -0.01976,-0.466231 0.08918,-4.910667 5.148863,2.232152 0.0099,2.17249 -0.168486,3.889022 -0.337538,0 -0.337256,0.168769 c -0.138853,0.20828 -1.666522,1.527669 -1.696437,1.527669 -0.436316,0 -0.763694,-0.297744 -1.011767,-0.515902 -0.73406,-0.347133 -3.640949,-1.954389 -4.057509,-1.68656 l 3.214229,1.68656 1.349304,0.684671 c -0.09934,0.267829 -2.11328,2.023533 -2.371231,2.023533 -0.396804,0 -1.081193,-0.485986 -1.349022,-0.674511 l -0.84328,-0.506024 -2.986193,-1.477998 -0.168769,0.0099 1.121269,-1.071316 -2.033976,0.842998 3.214511,1.696438 1.190414,0.674793 14.722122,7.956409 0.52578,-0.01016 -0.188525,-0.327378 2.371232,-2.380826 1.527668,0.853157 0.506025,-0.168769 c -0.287867,-0.148731 -1.696438,-0.724182 -1.696438,-1.011766 0,-0.367171 1.845169,-2.033694 2.033693,-2.033694 0.833403,0 2.241974,1.130865 3.214229,1.359183 l 0.337256,-0.168769 -2.033693,-1.021927 -1.339145,-0.495864 0.158609,-0.515903 0.337256,-5.416691 c 0.664633,0.158609 6.448495,2.807547 6.468251,3.045743 l -0.20828,3.04546 0.684671,-0.168487 0.386926,-2.52984 -0.04967,-2.21234 5.079154,2.033693 0.337537,-0.168486 -5.039642,-2.291645 0.128694,-3.293815 0.337537,-2.708205 1.011767,-12.351286 1.527951,0.168656 -0.01016,-0.486128 -0.366889,-0.05952 0.882791,-0.982133 c -0.783731,-0.902772 -0.664633,-1.150789 -1.9939,-1.557556 -0.595206,-0.178562 -2.252133,-0.753957 -2.916766,-0.813477 -0.10922,0.218242 -0.337256,0.56546 -0.337256,0.853157 0,0.704371 1.249962,1.339286 2.043571,1.626983 l -0.684389,0.05955 0.0099,0.466259 1.319389,0.376993 -1.200291,13.9781 -13.670845,-5.67453 -0.674511,0.168628 -0.148731,5.753975 -5.555544,-2.490075 0.119098,-5.634905 0,-0.337312 -0.347416,0 -0.337256,5.585319 -5.079435,-2.192472 0.01016,-5.426569 -0.178647,-0.505968 -9.940431,-4.067443 -0.208562,-8.2936643 0,-3.3928474 0.84328,0.178562 0,-0.505951 -0.347133,0 0.515902,-0.8432546 C 46.04173,0.56547738 45.059597,0.3968242 43.353281,0 c -0.10922,0.45635051 -0.168769,0.31746049 -0.168769,0.67460424 0,0.40674436 0.962378,1.08134856 1.349305,1.19047546 l 0.0099,0.6349209 0.84328,0.2083337 -0.04967,1.5277648 z"
     id="path7"
     inkscape:connector-curvature="0" />
  <path
     style="fill:#69ab5f;fill-opacity:1;fill-rule:evenodd;stroke:none"
     d="m 41.488075,39.097091 0,1.527951 2.549595,-1.001889 0.813647,0.366889 0.01975,0.287867 -3.382997,1.021644 0.168769,3.889023 c 0.803486,0.188524 6.448213,3.948288 6.775591,4.573411 l 0.506024,0 0,-4.74218 c 0.476109,-0.575451 0.664633,0.168769 1.180536,0.168769 l 0.654755,0.0099 0.198402,0.664634 c 0.754098,0.06943 2.73812,1.468402 3.412632,1.835291 0.625122,0.347133 0.942622,0.694549 1.518073,1.021926 0.555413,0.30734 0.545535,0.04967 0.952218,0.406683 0.347415,0.307622 0.10922,0.635 0.714304,0.635 1.755987,0 5.8928,-3.045743 7.956409,-3.214229 L 68.740017,44.85132 54.017895,36.894911 c -1.507914,0.357011 -7.837311,3.04546 -8.462434,3.04546 -0.62484,0 -0.763693,-0.158609 -1.021644,-0.505742 l 8.293664,-3.214511 -3.214511,-1.696438 -8.09498,2.619304 z"
     id="path9"
     inkscape:connector-curvature="0" />
  <path
     style="fill:#69ab5f;fill-opacity:1;fill-rule:evenodd;stroke:none"
     d="m 30.654692,33.343144 c 0.347416,-0.0793 1.180536,-0.505742 1.190414,-0.505742 0.644878,0 1.884962,0.912707 2.023815,1.517791 l -0.842997,0.515903 -0.506025,0 c -0.466231,0 -0.406682,-0.138854 -0.506024,-0.515903 l -0.506025,0 c -0.585329,0 -0.773853,-0.456353 -0.853158,-1.012049 z m -1.011766,-8.124895 -0.168769,0.337312 c 0.456353,0.248017 3.561644,2.033721 3.720253,2.033721 0.446476,0 0.436598,-0.277763 1.240085,-0.198402 l -1.537547,0.624981 0.01976,-0.188468 -4.126936,-2.301607 -12.232245,3.730216 1.240085,0.366889 c 0.109135,1.051842 1.607142,1.021927 2.232152,1.656927 0.644849,0.635 1.537687,1.071315 2.301578,1.587218 1.478196,0.992011 3.621052,1.924755 4.900789,2.886851 1.597152,1.210451 2.708261,2.242255 4.612979,3.174717 1.002171,0.485987 4.295704,2.807547 5.079435,2.876974 l 0.02004,0.565573 3.700216,-1.408853 0,-5.922716 -0.168487,-5.416691 -0.496147,-0.20828 c -0.912706,0.515902 -5.396935,3.194473 -5.595337,3.928533 l 0.337255,0 0,0.337538 -1.934351,-1.071598 c 0.605084,-0.06943 0.674511,0.05955 1.25984,0.05955 0.3175,0 5.327509,-3.174717 5.58546,-3.561362 l -4.236156,-2.36124 c -2.341315,-0.198403 -2.609144,-2.668637 -5.753946,-1.527782 z"
     id="path11"
     inkscape:connector-curvature="0" />
  <path
     style="fill:#627d6b;fill-opacity:1;fill-rule:evenodd;stroke:none"
     d="m 66.488166,52.807447 0.248073,-0.0099 -0.02992,-0.833402 -8.472312,3.69062 -0.198402,14.583269 6.438618,-3.283656 0.03979,-0.267829 -0.347415,0 0,-0.506024 1.498035,-0.575451 0.02992,-2.976034 0.198402,-3.561644 0.436316,-0.168487 z"
     id="path13"
     inkscape:connector-curvature="0" />
  <path
     style="fill:#627d6b;fill-opacity:1;fill-rule:evenodd;stroke:none"
     d="m 56.894868,55.515933 -6.775873,-4.404924 -0.337256,0 0,5.753947 0.20828,7.619153 1.408853,0.9525 0.07931,0.406682 -0.337256,0 c 0.138854,0.545536 2.063327,1.815536 2.638778,2.261729 0.257951,0.188524 2.926645,1.964549 2.9464,1.964549 z"
     id="path15"
     inkscape:connector-curvature="0" />
  <path
     style="fill:#627d6b;fill-opacity:1;fill-rule:evenodd;stroke:none"
     d="m 83.224226,45.198453 -0.09934,-0.853157 -6.726203,2.966155 -0.03951,0.754098 -0.52578,8.283787 0.198402,0.0099 -0.228317,4.404643 0.119097,0.138853 4.801729,-2.579229 c -0.10922,-1.676682 0.41656,-0.149013 0.952218,-1.210451 0.02992,-0.06943 0.238196,-1.9939 0.248073,-2.122876 0.119098,-0.992011 -0.09906,-3.889022 0.724183,-4.206522 z"
     id="path17"
     inkscape:connector-curvature="0" />
  <path
     style="fill:#275346;fill-opacity:1;fill-rule:evenodd;stroke:none"
     d="m 5.9325338,28.09525 0.079361,-1.44842 2.5992102,1.627039 0.6547556,7.043702 -1.9642667,-1.468402 0.3372838,0 0.1190695,-0.138853 -1.1012029,-0.714305 z m 2.0436558,-4.910723 0.5059398,4.404755 -0.3372838,0 C 7.7976276,26.289677 5.0496016,27.460307 4.9305602,22.003964 l -0.337312,0 0,0.843251 1.1805638,9.821418 C 5.1488027,32.499864 3.8095171,31.537769 3.7499965,30.803709 L 2.9861056,30.793549 1.5476161,20.307526 1.398806,19.196417 4.057534,18.621022 4.4345265,21.676586 4.7619042,21.498024 4.3750058,18.452394 7.2817536,17.847225 Z m -1.6865036,-9.4742 0.3372838,0.168628 c 0.5853289,0.238111 0.674624,2.936522 0.674624,3.720253 l -3.0456576,0.535715 0,-0.535715 -0.3372837,0.168656 0,0.68453 -2.8769903,0.535715 -0.16865036,-2.569464 C 0.69444138,16.140882 0.47618764,14.871023 0.1884889,15.744049 l 2.0337314,15.238024 -0.5456371,0.3175 1.0714284,0.158891 2.3710449,1.726072 -0.15875,0.614962 0.9821615,0.555695 c 0.2083365,-0.10922 0.188468,-0.168769 0.515874,-0.168769 0.1289474,0 2.4999809,1.904718 2.7083174,2.202463 l -0.3372838,0 0,0.327377 0.6745958,0.347134 0.9920676,0.0099 -0.148816,-0.684389 -0.5059679,-4.910667 -0.357124,-0.922584 3.5714089,-0.932745 -0.01984,0.248073 -2.857133,0.763976 0,0.337256 0.337312,0 2.708317,-0.84328 0,0.506024 c 0,0.585329 0.128976,0.654756 0.168656,1.180536 l 0.168656,1.865206 0.337312,2.876974 0.337284,2.539435 -0.0099,0.53594 -0.525808,-0.188524 0.188496,0.476109 -0.327378,0.188524 0.168656,0.168769 1.21031,-0.06971 -0.357152,-0.09906 0,-1.68656 -0.347218,-3.8989 -0.168656,-1.011767 -0.337284,-3.045742 0.0099,-0.485987 2.023816,-0.694548 -3.214285,-2.370949 0.168656,0.843251 c -1.140884,0.02975 -0.982162,0.506053 -1.865094,0.506053 l -0.674596,0 c 0,-0.863205 -0.4960336,-2.440573 0.168656,-2.70843 l -0.9424528,-0.674596 0.01984,2.38094 -0.7738251,-3.055564 -0.3372838,-2.708317 -0.337312,-2.708346 0,-0.337284 -0.168656,-1.190498 -0.4067387,-3.541663 0.7440507,-0.0099 0.168656,3.551569 0.6745958,0.198431 0.00991,-0.367087 -0.4067387,-3.204351 0.059521,-0.515874 7.0932606,-1.448421 0.01984,0.595235 c 0,1.230179 0.585329,2.807547 -0.337312,3.055564 l 0.843252,0.188496 0,-1.041654 -0.168628,-2.877001 -0.337312,-0.168656 -8.4226118,1.686531 -0.1884962,-1.736118 0.68453,-0.13891 0.029746,-0.277763 -2.0535617,-0.962293 -0.1587218,0.228177 0.9325187,0.694436 0.2083364,2.539689 z"
     id="path19"
     inkscape:connector-curvature="0" />
  <path
     style="fill:#627d6b;fill-opacity:1;fill-rule:evenodd;stroke:none"
     d="m 90.654855,40.803689 -6.31952,2.747998 -0.01976,0.793609 -0.555695,5.406813 0.218157,0.01976 -0.436315,6.934483 c 0.763693,-0.0793 4.31546,-1.884963 4.494106,-2.549596 l -0.337537,0 0,-0.337255 c 1.755986,-0.406683 1.150902,-1.031805 1.36906,-2.857218 0.10922,-1.001889 0.476391,-2.83718 0.496146,-3.740009 l 0.446476,-0.178647 z"
     id="path21"
     inkscape:connector-curvature="0" />
  <path
     style="fill:#297954;fill-opacity:1;fill-rule:evenodd;stroke:none"
     d="m 31.50785,45.525831 c 0,-0.496147 2.658816,-1.388815 3.214229,-1.517791 l 0,3.551484 c -0.41656,-0.198402 -3.214229,-1.78562 -3.214229,-2.033693 z m 6.597227,-2.876973 2.708487,-0.84328 -0.02992,2.747998 -2.678571,-1.567463 z m -8.968176,-4.900789 5.416691,3.382998 0,2.033693 c -1.696437,0.446476 -3.601155,2.003778 -5.079435,1.011767 l -0.506025,0.168769 0.04967,-0.684672 -0.386927,-3.551484 0.02991,-2.767753 z M 14.067448,27.25197 12.043661,26.061501 C 11.507947,25.942459 11.428558,25.773803 10.763896,25.4762 9.8908698,25.079367 10.456358,24.990072 9.8412551,24.543653 l -0.6745957,-0.168656 -0.515874,-0.168656 0.7738251,3.055564 -0.01984,-2.38094 0.9424528,0.674596 1.755959,1.269831 0.446419,0.08929 3.214285,2.370949 1.85516,1.021926 0.347218,2.361071 -0.178562,-2.202462 0.515874,0.337538 4.573411,2.876973 0.198402,4.057509 -4.464276,-2.996071 -0.138881,-0.892951 0,0.84328 -0.337312,0 -0.168656,-0.674511 0.208336,2.20218 -4.107152,-2.708205 0.168656,1.011767 c 0.188496,-0.565291 1.378966,0.565573 1.91468,0.972256 0.714305,0.555695 1.339286,1.012048 2.152792,1.398975 l 0,-1.855329 0.317443,0 0.188496,1.68656 0,-1.180535 c 0.62501,0.138853 1.537716,0.754097 1.696438,1.349304 l -0.337312,0.168487 0.823412,-0.327378 0.188496,0.327378 2.033721,1.359182 -0.168627,-4.573411 0.307537,0 0.198402,0.674511 c 0.158722,-0.476109 0.535715,-0.02963 1.15079,0.377049 0.436513,0.287867 0.803571,0.535658 1.220244,0.813647 0.734116,0.495864 1.746024,1.101231 2.539774,1.517791 l 0.168487,2.876973 0,1.190413 -4.910639,-3.04546 -0.0992,0.237914 0.773797,0.773853 0.674596,0.506024 0.357152,-0.178646 1.001974,0.863035 c 0.386926,0.257951 2.37109,1.607256 2.37109,2.023816 l -0.01976,2.837462 -1.845366,0.724182 0,0.674511 2.013853,-0.506024 0.188524,1.180536 0,-2.876974 0.3175,0 0.188525,1.865207 0.01975,-0.466231 0.853158,-0.42672 4.355253,2.916766 0.188525,2.539718 -0.257951,-9.732151 0.426438,0.595207 c 0.654755,0.148731 0.84328,0.20828 1.002171,0.813364 l -0.833403,0.198402 0,0.853158 1.864925,-0.684389 c 0.74422,0.396805 1.220329,0.813365 1.974427,1.240085 1.309511,0.754098 1.021644,0.496146 1.745826,1.636889 l -0.337255,-10.823505 0,5.922716 -3.700216,1.408853 -0.02004,-0.565573 c -0.783731,-0.06943 -4.077264,-2.390987 -5.079435,-2.876974 -1.904718,-0.932462 -3.015827,-1.964266 -4.612979,-3.174717 -1.279737,-0.962096 -3.422593,-1.89484 -4.900789,-2.886851 -0.763891,-0.515903 -1.656729,-0.952218 -2.301578,-1.587218 -0.62501,-0.635 -2.123017,-0.605085 -2.232152,-1.656927 l -1.240085,-0.366889 12.232245,-3.730216 4.126936,2.301607 -0.01976,0.188468 1.537547,-0.624981 c -0.803487,-0.07936 -0.793609,0.198402 -1.240085,0.198402 -0.158609,0 -3.2639,-1.785704 -3.720253,-2.033721 l 0.168769,-0.337312 c -0.873196,-0.287697 1.815535,-1.309511 2.370949,-1.686504 0.763975,-0.515874 2.370949,-1.011907 2.876973,-1.696437 -1.934633,0.15875 -9.176568,2.996042 -9.305544,4.226193 l -1.349192,0.19843 4.077265,-2.519849 c -1.051475,-0.01984 -4.20624,1.121043 -5.049492,1.537688 -1.001973,0.496033 -3.422622,1.944454 -4.285714,2.142856 l 0.535715,0.267858 c -1.200404,0.0992 -2.688506,1.081249 -3.412688,1.081249 -0.08929,0 -1.865094,-1.071315 -2.03375,-1.517763 z"
     id="path23"
     inkscape:connector-curvature="0" />
  <path
     style="fill:#4c655c;fill-opacity:1;fill-rule:evenodd;stroke:none"
     d="m 25.406742,13.373015 3.025733,-0.505939 0.198402,4.057537 C 27.569439,16.676596 25.833321,15.27779 25.406742,15.228175 Z m -1.85516,1.180564 0,-0.674624 c 0.376993,-0.08927 0.386899,-0.168628 0.843252,-0.168628 l 0.505968,0 0,1.349192 z m -7.787696,-2.877001 0.337312,0.168656 6.567452,-1.349192 0.208337,3.234126 -6.408731,1.498007 -0.19843,-0.50594 0,1.041654 -0.843252,-0.188496 -6.4285706,1.517847 -0.00991,0.367087 -0.6745958,-0.198431 -0.505968,0 0.168656,1.190498 0,-0.853186 0.4265789,0.02975 0.4166729,0.982161 -0.168656,0.515874 -0.4761936,-0.0099 -0.1984022,-0.327378 0.337312,2.708346 0.01984,-1.3889 0.4960338,0.198402 0,-1.180536 0.3372838,0 0,-1.696438 C 10.178567,17.19247 13.70039,16.081361 14.583322,16.081361 l 0.337312,0 c 0.615075,0 0.813478,0.257923 1.180564,0.50594 l 0.0099,-0.52578 0.327378,0.188468 0,-0.674596 c 1.815479,-0.03968 3.740093,-1.19047 5.585319,-1.19047 l 0.823411,0.0099 0.198431,0.327406 0.05952,-0.565489 0.446419,0.396833 -0.02975,2.55953 0.228149,0.486099 0.138909,1.19047 0.277764,0.119042 1.418646,0.555554 -0.01984,0.277791 -1.67657,0.396833 c 0,1.011908 0.178562,1.527782 0.168656,2.708317 -0.01987,1.527782 -0.09923,1.726184 1.319418,1.32938 0.793665,-0.228177 3.958336,-1.309539 4.622969,-1.32938 l -0.357011,-10.247997 -1.696494,-0.07939 -4.543665,1.021842 -0.178562,-3.32342 6.061427,-1.2499908 0.188525,0.8531578 0,-1.1904698 0.327378,0 0.178646,2.7083458 0.0099,-2.6587311 5.724313,-1.2301785 0.188525,1.8551596 0,-2.1924433 z"
     id="path25"
     inkscape:connector-curvature="0" />
  <path
     style="fill:#627d6b;fill-opacity:1;fill-rule:evenodd;stroke:none"
     d="m 97.559421,37.5793 -5.78358,2.569633 -0.714304,6.73608 0.188524,0.0099 -0.535657,5.912556 4.057508,-1.934351 0.02963,-0.267829 -0.506025,0 -0.03951,-0.198403 1.636889,-0.128975 z"
     id="path27"
     inkscape:connector-curvature="0" />
  <path
     style="fill:#4c655c;fill-opacity:1;fill-rule:evenodd;stroke:none"
     d="m 31.309448,12.07341 -1.16078,0.277792 -0.03951,2.549595 0.377049,5.238101 -0.02992,0.853158 0.238196,1.636917 5.545666,-1.636917 0.06943,-4.236099 -0.406682,-5.753975 z"
     id="path29"
     inkscape:connector-curvature="0" />
  <path
     style="fill:#627d6b;fill-opacity:1;fill-rule:evenodd;stroke:none"
     d="m 9.1666594,19.12699 0.168656,0.168656 0.337312,0 0,-0.505968 c 0.7936366,0.01984 1.4781666,0.426579 1.6865036,1.011908 l -1.4980356,-0.565489 -0.01984,0.396833 0.7242109,0.228177 c -0.496034,0.327377 0.08929,0.277791 -0.555555,0.277791 l -0.5059396,0 0,0.853158 0.3372837,3.551597 c 0.6151029,0.446419 0.049615,0.535714 0.9226409,0.932547 0.664662,0.297603 0.744051,0.466259 1.279765,0.585301 l 4.563477,-1.349192 -0.50594,-8.125008 c -0.367086,-0.248017 -0.565489,-0.50594 -1.180564,-0.50594 l -0.337312,0 c -0.882932,0 -4.404755,1.111109 -5.4166626,1.349191 z"
     id="path31"
     inkscape:connector-curvature="0" />
  <path
     style="fill:#627d6b;fill-opacity:1;fill-rule:evenodd;stroke:none"
     d="m 67.390995,57.380858 0.02963,7.956409 5.525911,-2.916767 -0.168769,-0.634718 1.180536,-0.575451 0.02992,-1.468402 0.436316,-4.722142 0.575451,-4.077265 0,-1.180535 -3.918656,4.354971 -0.138853,-0.128976 0,0.684671 0.674511,0 0.42672,0.575451 -0.704426,0.535658 -0.05955,0.575451 -1.091354,1.130865 -0.773571,0.05955 c -0.397086,0 -0.496146,-0.347134 -1.180818,-0.506025 l 0,-0.684389 -0.684388,-0.138853 z"
     id="path33"
     inkscape:connector-curvature="0" />
  <path
     style="fill:#627d6b;fill-opacity:1;fill-rule:evenodd;stroke:none"
     d="m 16.438482,16.249989 0.853186,8.46232 c 0.615075,-0.148816 4.682546,-1.527782 4.732133,-1.527782 l 0.674595,0 0.0099,-0.198402 0.674595,0.02975 0,-0.505939 -0.337283,-7.787697 -0.198431,-0.327406 -0.823411,-0.0099 c -1.845226,0 -3.76984,1.150789 -5.585319,1.19047 z"
     id="path35"
     inkscape:connector-curvature="0" />
  <path
     style="fill:#627d6b;fill-opacity:1;fill-rule:evenodd;stroke:none"
     d="m 48.601204,64.31534 0.168768,-8.799407 -5.58546,-3.720253 -0.138853,7.956409 0.168487,-0.06943 0.972255,0.426438 0.01016,0.486269 -0.337537,0 0,0.337255 c 0.873195,0.198403 1.666804,0.614963 1.696437,1.696438 1.498036,0 2.142914,1.081194 3.045743,1.686278 z"
     id="path37"
     inkscape:connector-curvature="0" />
  <path
     style="fill:#69ab5f;fill-opacity:1;fill-rule:evenodd;stroke:none"
     d="m 61.805535,48.571291 -3.37312,1.557585 -0.01976,4.712264 0.684671,-0.168487 7.976165,-3.68046 0.158609,-4.613204 z"
     id="path39"
     inkscape:connector-curvature="0" />
  <path
     style="fill:#84989b;fill-opacity:1;fill-rule:evenodd;stroke:none"
     d="m 74.662732,32.162609 0.01976,0.982133 6.349153,2.728242 0.575451,-6.081324 c -0.753815,-0.178647 -4.464191,-1.69641 -5.178495,-2.103176 -1.47828,-0.823412 -1.607256,-1.061495 -1.587218,0.92264 0,1.071316 -0.178647,2.192585 -0.178647,3.551485 z"
     id="path41"
     inkscape:connector-curvature="0" />
  <path
     style="fill:#4c655c;fill-opacity:1;fill-rule:evenodd;stroke:none"
     d="m 36.944579,21.160712 0.823242,0 -0.09906,0.178562 3.144803,1.507941 0.03951,-2.539689 L 40.625039,12.7381 36.66659,11.170638 Z"
     id="path43"
     inkscape:connector-curvature="0" />
  <path
     style="fill:#84989b;fill-opacity:1;fill-rule:evenodd;stroke:none"
     d="m 68.025712,29.613013 0.02992,0.535658 5.8928,2.510085 0.367171,-5.902791 -6.051691,-2.380968 z"
     id="path45"
     inkscape:connector-curvature="0" />
  <path
     style="fill:#69ab5f;fill-opacity:1;fill-rule:evenodd;stroke:none"
     d="m 49.444484,50.099242 7.618871,4.741898 0,-4.741898 -7.618871,-4.573411 z"
     id="path47"
     inkscape:connector-curvature="0" />
  <path
     style="fill:#84989b;fill-opacity:1;fill-rule:evenodd;stroke:none"
     d="m 74.156708,38.928604 1.180536,0.506025 0,0.505742 2.033693,1.021927 c 0.783731,-0.01976 3.214511,-0.714305 3.382998,-1.359182 l 0.20828,-3.04546 c -0.01976,-0.238196 -5.803618,-2.887134 -6.468251,-3.045743 z"
     id="path49"
     inkscape:connector-curvature="0" />
  <path
     style="fill:#84989b;fill-opacity:1;fill-rule:evenodd;stroke:none"
     d="m 67.72825,35.882862 0.654756,0.0099 0.188524,0.327378 0.337256,0 0,0.337538 0.337255,0 0,0.337255 c 0.337256,0.297462 3.511974,1.864925 4.067387,1.864925 0.446476,0 0.674793,-4.503985 0.674793,-5.247923 0,-0.476109 -5.248204,-2.807546 -6.091484,-2.876973 l 0.03979,0.674511 z"
     id="path51"
     inkscape:connector-curvature="0" />
  <path
     style="fill:#69ab5f;fill-opacity:1;fill-rule:evenodd;stroke:none"
     d="m 35.396872,43.670502 0,3.551767 0.228036,1.101231 2.083364,1.448364 3.273778,2.192303 0,-4.741898 0,-1.359182 c -0.724182,-1.140743 -0.436315,-0.882791 -1.745826,-1.636889 -0.754098,-0.42672 -1.230207,-0.84328 -1.974427,-1.240085 z"
     id="path53"
     inkscape:connector-curvature="0" />
  <path
     style="fill:#627d6b;fill-opacity:1;fill-rule:evenodd;stroke:none"
     d="m 35.734128,51.279778 0.168769,4.067386 5.178495,3.750169 -0.08946,0.168487 0.327378,-0.198402 0,-0.337256 -0.178365,-5.922715 -5.317631,-3.68046 z"
     id="path55"
     inkscape:connector-curvature="0" />
  <path
     style="fill:#275346;fill-opacity:1;fill-rule:evenodd;stroke:none"
     d="m 20.843237,45.188576 -1.527754,0.337255 0,0.337256 -0.505968,0 c -0.664689,0 -0.01984,0.257951 -0.972227,0.337255 l -0.208336,-2.867095 0,-0.168487 -0.188468,-1.527951 -0.376993,-3.382716 1.408741,-0.178646 0.208308,2.202462 0.17859,2.539435 -0.555554,0 0,0.347416 0.337283,0 0,0.337256 -0.337283,0.168486 0.168656,0.168769 1.011879,0 c -0.188468,-0.84328 -0.327378,-2.876973 -0.327378,-3.8989 -0.0099,-1.656644 -0.912678,-2.480169 1.378966,-2.539718 l 0.803572,7.58952 z m 2.371033,-6.765996 0.505968,7.619153 0.168656,0.674511 C 23.21427,46.468171 22.559515,45.734111 21.855145,45.357062 l 0,-0.505742 -0.674596,-7.787922 -0.188496,-0.327378 -0.823412,0.327378 c -0.386898,0.08946 -0.396833,0.168769 -0.853158,0.168769 l -0.505968,0 0,-0.506025 -0.188496,-1.68656 -0.317443,0 0,1.855329 0,0.337256 0,0.515902 c -1.011908,0.0793 -1.676598,0 -1.498036,1.130864 0.08929,0.555696 0.109135,2.00406 0.307566,2.42062 l 0,0.84328 0.347218,4.404925 0.50594,0 c 0.327377,0 3.025789,-1.012049 3.402781,-1.210451 l 1.676598,1.210451 0.674595,0.674511 -0.337312,0 0,0.337255 0.515874,0.357012 0.68453,-0.218158 2.013882,1.388815 0.337312,-0.515902 0,-1.855047 0,-0.674511 -0.505968,-5.58546 -1.001974,-0.863035 -0.357152,0.178646 0.813506,0.515903 0.208336,4.900789 0.337284,3.214228 C 25.823415,48.243913 24.920642,47.718133 24.890868,46.904769 L 24.56349,46.716244 c 0,-1.240084 -1.130949,-7.063457 -0.168656,-7.450384 l -0.773797,-0.773853 0.0992,-0.237914 -0.168656,-3.730413 -0.198402,-0.674511 -0.307537,0 z"
     id="path57"
     inkscape:connector-curvature="0" />
  <path
     style="fill:#84989b;fill-opacity:1;fill-rule:evenodd;stroke:none"
     d="M 67.559481,24.037685 61.974304,21.66668 61.855206,27.301585 67.41075,29.79166 Z"
     id="path59"
     inkscape:connector-curvature="0" />
  <path
     style="fill:#4c655c;fill-opacity:1;fill-rule:evenodd;stroke:none"
     d="m 44.196561,17.599208 -3.025986,-1.398806 -0.01976,-3.164699 4.236156,1.686532 0.168486,-0.505968 -4.573411,-1.696438 0.337256,10.496042 0.84328,0.168656 0.06943,0.545621 3.154963,1.319445 -0.03979,-6.696428 -1.507913,-0.654755 z"
     id="path61"
     inkscape:connector-curvature="0" />
  <path
     style="fill:#84989b;fill-opacity:1;fill-rule:evenodd;stroke:none"
     d="m 61.805535,33.005889 0.84328,0.168769 0,0.674511 c 0.853157,0.06943 3.78968,1.89484 4.246033,1.815535 0.515902,-0.0793 0.496147,-4.712264 0.456353,-5.456484 l -5.545666,-2.450282 z"
     id="path63"
     inkscape:connector-curvature="0" />
  <path
     style="fill:#627d6b;fill-opacity:1;fill-rule:evenodd;stroke:none"
     d="m 29.642926,46.378989 0.168486,3.551484 0.168769,1.012049 5.079436,3.561362 0,-2.876973 0,-0.684389 -0.188525,-2.539718 -4.355253,-2.916766 -0.853158,0.42672 z"
     id="path65"
     inkscape:connector-curvature="0" />
  <path
     style="fill:#69ab5f;fill-opacity:1;fill-rule:evenodd;stroke:none"
     d="m 42.162586,50.099242 c 0,0.515902 0.208562,0.466231 0.684671,0.506025 l 0,0.505742 c 0.793609,0.06943 1.130864,0.386927 1.517791,0.853158 0.565573,0.664915 0.704427,0.446475 1.458242,0.912706 0.565574,0.347416 2.549596,1.68656 2.946682,1.79578 l 0,-3.730131 c 0,-1.061438 -2.301804,-2.033693 -3.045742,-2.539718 -0.664633,-0.436597 -2.757875,-1.964266 -3.561644,-2.023815 z"
     id="path67"
     inkscape:connector-curvature="0" />
  <path
     style="fill:#84989b;fill-opacity:1;fill-rule:evenodd;stroke:none"
     d="m 82.281604,30.972196 -0.128694,3.293815 5.039642,2.291645 c 0.446194,0.108937 0.3175,0.168486 0.674512,0.168486 0.0099,0 1.249962,-0.773853 1.309511,-0.84328 l 0.188524,-2.817424 -6.894971,-2.767754 z"
     id="path69"
     inkscape:connector-curvature="0" />
  <path
     style="fill:#84989b;fill-opacity:1;fill-rule:evenodd;stroke:none"
     d="m 61.289632,26.914687 0.148732,-5.585319 -5.218007,-2.033722 -0.01016,5.426569 z"
     id="path71"
     inkscape:connector-curvature="0" />
  <path
     style="fill:#627d6b;fill-opacity:1;fill-rule:evenodd;stroke:none"
     d="M 4.5932482,22.847215 4.404752,21.835308 1.8749967,20.148804 l -0.3273806,0.158722 1.4384895,10.486023 0.7638909,0.01016 c 0.059521,0.73406 1.3988062,1.696155 2.0238155,1.864924 z"
     id="path73"
     inkscape:connector-curvature="0" />
  <path
     style="fill:#4c655c;fill-opacity:1;fill-rule:evenodd;stroke:none"
     d="m 82.281604,30.972196 0.188524,-0.674512 6.894971,2.767754 -0.188524,2.817424 c -0.05955,0.06943 -1.299634,0.84328 -1.309511,0.84328 -0.357012,0 -0.228318,-0.05955 -0.674512,-0.168486 l -0.337537,0.168486 0.178646,0.327378 -0.52578,0.0099 -0.337255,0.684671 -1.329267,0.882791 -0.238195,4.186484 1.825413,-0.83312 -0.08918,-0.178646 c 0.684389,0 2.20218,-0.476109 2.20218,-1.012049 0,-0.357011 -0.05955,-0.228036 -0.168487,-0.684389 l 0.337256,0 0,-0.674511 0.198402,-1.855329 -1.359182,-0.41656 0.476108,-0.277707 1.002172,0.41656 0.01976,-0.912706 3.214229,-1.517791 -2.361071,0.684388 0,-1.537546 c 0,-0.277989 0.09934,-0.506025 0.337255,-0.506025 0.674794,0 1.57734,0.922585 2.708487,1.011767 l 0,-0.337256 -2.688449,-1.240084 -0.02004,-0.446476 0.168769,-2.876973 -0.168769,-1.190413 -0.545535,4.325338 -7.073336,-2.966156 0,-1.527669 z"
     id="path75"
     inkscape:connector-curvature="0" />
  <path
     style="fill:#84989b;fill-opacity:1;fill-rule:evenodd;stroke:none"
     d="m 50.803666,22.341276 4.900789,2.033721 0,-5.079351 c 0,-0.595263 -4.196645,-2.03375 -4.900789,-2.371033 z"
     id="path77"
     inkscape:connector-curvature="0" />
  <path
     style="fill:#84989b;fill-opacity:1;fill-rule:evenodd;stroke:none"
     d="m 8.9980034,17.09324 6.4285706,-1.517847 c 0.922641,-0.248017 0.337312,-1.825385 0.337312,-3.055564 l -0.01984,-0.595235 -7.0932606,1.448421 -0.059521,0.515874 z"
     id="path79"
     inkscape:connector-curvature="0" />
  <path
     style="fill:#627d6b;fill-opacity:1;fill-rule:evenodd;stroke:none"
     d="m 57.232124,30.972196 0,0.337255 c -0.833403,-0.06943 -1.021927,-0.505742 -1.527669,-0.505742 -0.377049,0 -2.43078,2.3114 -3.214511,1.864924 l -3.04546,1.359183 -0.337256,-0.178647 -0.337256,0.168769 -7.450666,2.708204 0.168769,2.370949 0.02991,-1.954107 8.09498,-2.619304 2.033976,-0.842998 2.033693,-0.674793 c 0.41656,-0.267829 3.323449,1.339427 4.057509,1.68656 l 2.708204,-1.011767 0.337256,-0.168769 c -0.267829,-0.992011 -2.916484,-1.081475 -3.214229,-2.202462 l 0.674793,0.168769 2.876974,-1.180536 0,-0.337255 z"
     id="path81"
     inkscape:connector-curvature="0" />
  <path
     style="fill:#84989b;fill-opacity:1;fill-rule:evenodd;stroke:none"
     d="m 50.803666,27.25197 c 0,0.555583 0.485986,0.634944 1.011766,0.674624 0.09934,0.902688 0.912707,0.89281 1.646767,1.230066 0.406965,0.188524 1.378938,0.892951 2.073487,0.972256 l 0,-4.910667 c 0,-0.555555 -4.166729,-2.361099 -4.73202,-2.371034 z"
     id="path83"
     inkscape:connector-curvature="0" />
  <path
     style="fill:#69ab5f;fill-opacity:1;fill-rule:evenodd;stroke:none"
     d="m 41.319306,36.726142 7.450666,-2.708204 -7.450666,-3.889022 z"
     id="path85"
     inkscape:connector-curvature="0" />
  <path
     style="fill:#84989b;fill-opacity:1;fill-rule:evenodd;stroke:none"
     d="m 90.406781,29.622891 -0.168769,2.876973 0.02004,0.446476 2.688449,1.240084 5.416691,-2.023815 0,-0.357011 -7.767884,-2.857218 z"
     id="path87"
     inkscape:connector-curvature="0" />
  <path
     style="fill:#627d6b;fill-opacity:1;fill-rule:evenodd;stroke:none"
     d="m 29.474157,44.176527 c 1.47828,0.992011 3.382998,-0.565291 5.079435,-1.011767 l 0,-2.033693 -5.416691,-3.382998 z"
     id="path89"
     inkscape:connector-curvature="0" />
  <path
     style="fill:#297954;fill-opacity:1;fill-rule:evenodd;stroke:none"
     d="m 31.50785,24.543653 c 0.883074,0.208337 3.37312,1.85516 3.720254,1.85516 0.853157,0 4.137095,-2.569436 5.416691,-2.876974 -0.287585,-0.426607 -3.2639,-2.023815 -3.88874,-2.023815 -0.386927,0 -5.109351,2.529755 -5.248205,3.045629 z"
     id="path91"
     inkscape:connector-curvature="0" />
  <path
     style="fill:#69ab5f;fill-opacity:1;fill-rule:evenodd;stroke:none"
     d="m 62.480046,40.793529 c 0.327378,0.496147 5.37718,3.382998 6.091484,3.382998 0.267829,0 1.9939,-1.89484 2.20218,-2.20218 -0.257951,-0.347416 -5.36702,-3.045743 -5.922433,-3.045743 -0.377049,0 -2.162669,1.567463 -2.371231,1.864925 z"
     id="path93"
     inkscape:connector-curvature="0" />
  <path
     style="fill:#84989b;fill-opacity:1;fill-rule:evenodd;stroke:none"
     d="m 16.101198,11.845234 0.168628,2.877001 0.19843,0.50594 6.408731,-1.498007 -0.208337,-3.234126 z"
     id="path95"
     inkscape:connector-curvature="0" />
  <path
     style="fill:#84989b;fill-opacity:1;fill-rule:evenodd;stroke:none"
     d="m 46.061486,20.138898 4.226278,1.865066 0,-4.910724 c 0,-0.456325 -3.740009,-1.994041 -4.226278,-2.033721 z"
     id="path97"
     inkscape:connector-curvature="0" />
  <path
     style="fill:#84989b;fill-opacity:1;fill-rule:evenodd;stroke:none"
     d="m 56.04171,30.128916 1.021645,0.337255 0,0.506025 0.168769,0 3.889022,-1.011767 0.168486,-0.337538 -0.0099,-2.17249 -5.148863,-2.232152 z"
     id="path99"
     inkscape:connector-curvature="0" />
  <path
     style="fill:#69ab5f;fill-opacity:1;fill-rule:evenodd;stroke:none"
     d="m 65.188532,38.254093 c 0.476109,0.902547 4.761936,2.767754 5.922716,3.382716 l 2.321278,-2.251851 -0.119098,-0.119098 c -1.180536,-0.277707 -5.118947,-2.708204 -5.753947,-2.708204 -1.041682,0 -1.398693,1.438486 -2.370949,1.696437 z"
     id="path101"
     inkscape:connector-curvature="0" />
  <path
     style="fill:#84989b;fill-opacity:1;fill-rule:evenodd;stroke:none"
     d="m 27.946432,12.519829 c 2.063383,-0.168627 1.527725,-0.486099 1.527725,-2.698411 l -0.188525,-0.8531578 -6.061427,1.2499908 0.178562,3.32342 z"
     id="path103"
     inkscape:connector-curvature="0" />
  <path
     style="fill:#84989b;fill-opacity:1;fill-rule:evenodd;stroke:none"
     d="m 46.230255,25.386905 c 0.446193,0.109135 1.081193,0.803571 1.864924,1.19047 0.644878,0.317471 1.299633,0.823411 2.192585,0.843251 l -0.02992,-4.990084 -4.027593,-1.785704 z"
     id="path105"
     inkscape:connector-curvature="0" />
  <path
     style="fill:#627d6b;fill-opacity:1;fill-rule:evenodd;stroke:none"
     d="m 14.067448,33.511913 4.107152,2.708205 -0.208336,-2.20218 0,-1.349305 -0.347218,-2.361071 -1.85516,-1.021926 -2.023816,0.694548 -0.0099,0.485987 z"
     id="path107"
     inkscape:connector-curvature="0" />
  <path
     style="fill:#69ab5f;fill-opacity:1;fill-rule:evenodd;stroke:none"
     d="m 56.160808,37.678642 c 0.743938,0.426438 5.446324,2.9464 5.813496,2.9464 0.228035,0 2.251851,-1.78562 2.361071,-2.202462 l -5.624971,-2.767753 z"
     id="path109"
     inkscape:connector-curvature="0" />
  <path
     style="fill:#627d6b;fill-opacity:1;fill-rule:evenodd;stroke:none"
     d="m 67.72825,52.63896 0.06943,1.716193 0.108938,-0.396804 0.664915,0.198402 0,-0.674511 1.011767,0 c 0.476109,0 0.406682,0.128976 0.515902,0.505742 l 0.506025,0 -0.128976,-0.108938 4.354971,-4.642837 -0.158609,-0.119098 0.496147,-0.198402 0.198402,-1.021927 -7.648787,3.363242 z"
     id="path111"
     inkscape:connector-curvature="0" />
  <path
     style="fill:#84989b;fill-opacity:1;fill-rule:evenodd;stroke:none"
     d="m 29.980181,11.339294 0.0099,0.734116 5.912838,-1.40874 0,-1.359126 -0.188525,-1.8551596 -5.724313,1.2301785 z"
     id="path113"
     inkscape:connector-curvature="0" />
  <path
     style="fill:#627d6b;fill-opacity:1;fill-rule:evenodd;stroke:none"
     d="m 23.551582,34.52368 0.168656,3.730413 4.910639,3.04546 0,-1.190413 -0.168487,-2.876973 c -0.79375,-0.41656 -1.805658,-1.021927 -2.539774,-1.517791 -0.416673,-0.277989 -0.783731,-0.52578 -1.220244,-0.813647 -0.615075,-0.406682 -0.992068,-0.853158 -1.15079,-0.377049 z"
     id="path115"
     inkscape:connector-curvature="0" />
  <path
     style="fill:#627d6b;fill-opacity:1;fill-rule:evenodd;stroke:none"
     d="m 9.8412551,31.47822 0.5059679,4.910667 3.740065,2.708204 -0.188468,-2.539435 -0.337312,-2.876974 C 12.906753,33.244084 12.212289,32.787731 11.557533,32.301462 11.041659,31.904658 10.000005,30.991951 9.8412551,31.47822 Z"
     id="path117"
     inkscape:connector-curvature="0" />
  <path
     style="fill:#4c655c;fill-opacity:1;fill-rule:evenodd;stroke:none"
     d="m 81.438606,39.434629 -0.684671,0.168487 c -0.168487,0.644877 -2.599267,1.339426 -3.382998,1.359182 l -0.337256,0.168769 0.188525,0.327377 -3.740009,1.3589 -0.506025,0.168769 c -0.684388,0.595207 -2.619022,1.527669 -3.8989,1.527669 l 0.188525,0.327378 -0.52578,0.01016 -3.214229,1.696438 2.341316,-0.763976 0.02963,1.438487 0.20828,-1.299633 0.466513,-0.396805 8.124896,-3.551484 1.011766,-0.337538 0,-0.337256 0.684672,0 1.517791,0.84328 -1.309511,-0.773853 1.954388,-0.972256 0.02992,0.565574 0.198402,-0.84328 0.644596,-0.198402 c -0.0793,0.406682 -0.158609,0.41656 -0.158609,0.872913 l 0,1.855329 0.84328,0 c 0.05955,0.674511 0.3175,0.853158 1.011767,0.853158 0.377048,0 0.377048,-0.138854 0.674793,-0.337256 l 0.347133,-4.573411 z"
     id="path119"
     inkscape:connector-curvature="0" />
  <path
     style="fill:#69ab5f;fill-opacity:1;fill-rule:evenodd;stroke:none"
     d="m 68.57153,45.525831 -0.466513,0.396805 -0.20828,1.299633 -0.198402,3.382998 6.398824,-2.837463 C 74.03761,47.440427 72.093381,46.537598 71.567319,46.259891 69.881041,45.3771 70.505881,45.486038 68.57153,45.525831 Z"
     id="path121"
     inkscape:connector-curvature="0" />
  <path
     style="fill:#69ab5f;fill-opacity:1;fill-rule:evenodd;stroke:none"
     d="m 61.121146,33.511913 -2.023816,1.696438 0.02963,0.257951 5.58546,2.817425 2.162668,-1.726071 -0.02991,-0.42672 z"
     id="path123"
     inkscape:connector-curvature="0" />
  <path
     style="fill:#627d6b;fill-opacity:1;fill-rule:evenodd;stroke:none"
     d="m 18.472232,33.849169 0.138881,0.892951 4.464276,2.996071 -0.198402,-4.057509 -4.573411,-2.876973 z"
     id="path125"
     inkscape:connector-curvature="0" />
  <path
     style="fill:#627d6b;fill-opacity:1;fill-rule:evenodd;stroke:none"
     d="m 6.6567442,32.996011 1.1012029,0.714305 -0.1190695,0.138853 -0.3372838,0 1.9642667,1.468402 -0.6547556,-7.043702 -2.5992102,-1.627039 -0.079361,1.44842 z"
     id="path127"
     inkscape:connector-curvature="0" />
  <path
     style="fill:#84989b;fill-opacity:1;fill-rule:evenodd;stroke:none"
     d="m 4.2559362,17.599208 0,0.535715 3.0456576,-0.535715 c 0,-0.783731 -0.089295,-3.482142 -0.674624,-3.720253 l -5.75395796,1.359154 0,0.337284 z"
     id="path129"
     inkscape:connector-curvature="0" />
  <path
     style="fill:#4c655c;fill-opacity:1;fill-rule:evenodd;stroke:none"
     d="m 1.5476161,20.307526 0.3273806,-0.158722 2.5297553,1.686504 0.1884962,1.011907 0,-0.843251 0.337312,0 c 0.1190414,5.456343 2.8670674,4.285713 3.2142854,5.585318 l 0.3372838,0 -0.5059398,-4.404755 C 7.0734171,23.720242 5.267844,22.073418 4.7619042,21.498024 L 4.4345265,21.676586 4.057534,18.621022 1.398806,19.196417 Z"
     id="path131"
     inkscape:connector-curvature="0" />
  <path
     style="fill:#4c655c;fill-opacity:1;fill-rule:evenodd;stroke:none"
     d="m 67.72825,52.63896 -0.337255,4.741898 0.158609,-1.160498 0.684388,0.138853 0,0.684389 c 0.684672,0.158891 0.783732,0.506025 1.180818,0.506025 l 0.773571,-0.05955 1.091354,-1.130865 0.05955,-0.575451 0.704426,-0.535658 -0.42672,-0.575451 -0.674511,0 0,-0.684671 0.138853,0.128976 3.918656,-4.354971 0,1.180535 0.168769,-2.023815 -0.496147,0.198402 0.158609,0.119098 -4.354971,4.642837 0.128976,0.108938 -0.506025,0 c -0.10922,-0.376766 -0.03979,-0.505742 -0.515902,-0.505742 l -1.011767,0 0,0.674511 -0.664915,-0.198402 -0.108938,0.396804 z"
     id="path133"
     inkscape:connector-curvature="0" />
  <path
     style="fill:#69ab5f;fill-opacity:1;fill-rule:evenodd;stroke:none"
     d="m 48.263948,29.622891 0.01976,0.297745 4.722142,2.42062 2.361353,-1.537547 0,-0.337538 c -1.101231,-0.257951 -4.146973,-2.20218 -4.732302,-2.20218 -0.456353,0 -1.656645,1.160498 -2.370949,1.3589 z"
     id="path135"
     inkscape:connector-curvature="0" />
  <path
     style="fill:#69ab5f;fill-opacity:1;fill-rule:evenodd;stroke:none"
     d="m 21.855145,44.85132 c 0.585329,0.426438 0.972227,0.872913 1.726212,1.378938 L 23.720238,46.041733 23.21427,38.42258 21.180549,37.063398 Z"
     id="path137"
     inkscape:connector-curvature="0" />
  <path
     style="fill:#627d6b;fill-opacity:1;fill-rule:evenodd;stroke:none"
     d="m 14.236104,34.52368 0.347218,3.8989 0.248017,1.408853 2.281767,1.46812 c -0.198431,-0.41656 -0.218271,-1.864924 -0.307566,-2.42062 -0.178562,-1.130864 0.486128,-1.05156 1.498036,-1.130864 l 0,-0.515902 0,-0.337256 C 17.49007,36.507984 16.865089,36.051631 16.150784,35.495936 15.61507,35.089253 14.4246,33.958389 14.236104,34.52368 Z"
     id="path139"
     inkscape:connector-curvature="0" />
  <path
     style="fill:#69ab5f;fill-opacity:1;fill-rule:evenodd;stroke:none"
     d="m 49.107228,33.849169 0.337256,0.178647 3.04546,-1.359183 c 0.08946,-0.248073 -4.364849,-2.539717 -4.563252,-2.539717 -0.436597,0 -2.390986,1.309511 -2.490046,1.765864 z"
     id="path141"
     inkscape:connector-curvature="0" />
  <path
     style="fill:#627d6b;fill-opacity:1;fill-rule:evenodd;stroke:none"
     d="m 81.438606,39.434629 2.708204,-0.84328 2.023816,-0.84328 0.337255,-0.684671 0.52578,-0.0099 -0.178646,-0.327378 -5.079154,-2.033693 0.04967,2.21234 z"
     id="path143"
     inkscape:connector-curvature="0" />
  <path
     style="fill:#627d6b;fill-opacity:1;fill-rule:evenodd;stroke:none"
     d="m 73.650684,43.502016 c -0.406683,0 -3.204352,1.378937 -3.551485,1.68656 l 4.31546,2.21234 -0.04967,0.237913 1.289756,-0.635 0.228317,-1.805376 -0.02992,-0.853157 c -0.456354,-0.119098 -1.666522,-0.84328 -1.864925,-0.84328 z"
     id="path145"
     inkscape:connector-curvature="0" />
  <path
     style="fill:#4c655c;fill-opacity:1;fill-rule:evenodd;stroke:none"
     d="m 97.926592,36.73602 -0.06943,-0.178364 c -1.25984,-0.09934 -3.561645,-1.68656 -4.573411,-1.68656 -0.287867,0 -0.635,0.218157 -0.84328,0.337255 l -0.20828,2.52984 -0.307623,0.0099 0,1.517791 1.68656,-0.396804 0.406683,-0.485987 z"
     id="path147"
     inkscape:connector-curvature="0" />
  <path
     style="fill:#84989b;fill-opacity:1;fill-rule:evenodd;stroke:none"
     d="m 44.196561,17.599208 1.190414,0.337312 0,-3.214285 -4.236156,-1.686532 0.01976,3.164699 z"
     id="path149"
     inkscape:connector-curvature="0" />
  <path
     style="fill:#627d6b;fill-opacity:1;fill-rule:evenodd;stroke:none"
     d="m 4.7619042,21.498024 c 0.5059398,0.575394 2.3115129,2.222218 3.2142854,1.686503 l -0.694436,-5.337302 -2.9067478,0.605169 z"
     id="path151"
     inkscape:connector-curvature="0" />
  <path
     style="fill:#297954;fill-opacity:1;fill-rule:evenodd;stroke:none"
     d="m 42.162586,46.378989 c 0.803769,0.05955 2.897011,1.587218 3.561644,2.023815 0.743938,0.506025 3.045742,1.47828 3.045742,2.539718 l 0,3.730131 c -0.397086,-0.10922 -2.381108,-1.448364 -2.946682,-1.79578 -0.753815,-0.466231 -0.892669,-0.247791 -1.458242,-0.912706 -0.386927,-0.466231 -0.724182,-0.783731 -1.517791,-0.853158 l 0,-0.505742 c -0.476109,-0.03979 -0.684671,0.0099 -0.684671,-0.506025 z m 1.021926,5.416691 5.58546,3.720253 -0.168768,8.799407 0.327377,0.198684 0.0099,-14.752037 -0.506024,0 C 48.105057,49.136864 42.46033,45.3771 41.656844,45.188576 l 0,0.505742 0.337255,0 0,5.248204 z"
     id="path153"
     inkscape:connector-curvature="0" />
  <path
     style="fill:#84989b;fill-opacity:1;fill-rule:evenodd;stroke:none"
     d="m 36.577408,9.305544 -0.0099,1.3889 3.740009,1.488102 0.178647,-3.2142858 -3.879145,-1.4186464 z"
     id="path155"
     inkscape:connector-curvature="0" />
  <path
     style="fill:#297954;fill-opacity:1;fill-rule:evenodd;stroke:none"
     d="m 18.472232,43.839271 1.220216,0.128976 1.150789,1.220329 0.496034,-0.198403 -0.803572,-7.58952 c -2.291644,0.05955 -1.388872,0.883074 -1.378966,2.539718 0,1.021927 0.13891,3.05562 0.327378,3.8989 z"
     id="path157"
     inkscape:connector-curvature="0" />
  <path
     style="fill:#627d6b;fill-opacity:1;fill-rule:evenodd;stroke:none"
     d="m 24.56349,46.716244 1.527782,-0.337255 0,-1.190413 -0.208336,-4.900789 -0.813506,-0.515903 -0.674596,-0.506024 c -0.962293,0.386927 0.168656,6.2103 0.168656,7.450384 z"
     id="path159"
     inkscape:connector-curvature="0" />
  <path
     style="fill:#69ab5f;fill-opacity:1;fill-rule:evenodd;stroke:none"
     d="m 44.027792,27.757938 3.749887,1.904746 2.341316,-1.73609 -4.226278,-2.033749 c -1.120987,0.267857 -1.606973,0.773825 -1.864925,1.865093 z"
     id="path161"
     inkscape:connector-curvature="0" />
  <path
     style="fill:#69ab5f;fill-opacity:1;fill-rule:evenodd;stroke:none"
     d="m 43.184512,28.938502 c -0.684388,-0.158609 -0.84328,-0.506024 -1.527668,-0.506024 -0.466232,0 -0.406965,0.128975 -0.496147,0.486269 l 1.378938,0.535657 -0.198403,0.84328 c 0.674512,0.178647 1.904718,1.180536 2.52984,1.180536 0.396805,0 2.341316,-1.408853 2.539718,-1.68656 -0.595206,-0.158609 -3.184595,-1.69641 -3.382998,-1.69641 -0.595206,0 -0.724182,0.347106 -0.84328,0.843252 z"
     id="path163"
     inkscape:connector-curvature="0" />
  <path
     style="fill:#4c655c;fill-opacity:1;fill-rule:evenodd;stroke:none"
     d="m 17.291668,24.712309 0.168656,1.517848 0.50594,0 c 0.942452,0 4.136898,-1.408741 5.496023,-1.517848 l -0.07936,-2.202377 0,0.505939 -0.674595,-0.02975 -0.0099,0.198402 -0.674595,0 c -0.04959,0 -4.117058,1.378966 -4.732133,1.527782 z"
     id="path165"
     inkscape:connector-curvature="0" />
  <path
     style="fill:#69ab5f;fill-opacity:1;fill-rule:evenodd;stroke:none"
     d="m 51.646946,33.680682 -1.121269,1.071316 0.168769,-0.0099 2.986193,1.477998 3.214229,-1.527669 -3.214229,-1.68656 z"
     id="path167"
     inkscape:connector-curvature="0" />
  <path
     style="fill:#297954;fill-opacity:1;fill-rule:evenodd;stroke:none"
     d="m 49.444484,45.525831 7.618871,4.573411 1.190695,-0.04967 -0.0099,5.129107 0.853158,-0.506025 -0.684671,0.168487 0.01976,-4.712264 3.37312,-1.557585 3.720253,-2.023533 c -2.063609,0.168486 -6.200422,3.214229 -7.956409,3.214229 -0.605084,0 -0.366889,-0.327378 -0.714304,-0.635 -0.406683,-0.357011 -0.396805,-0.09934 -0.952218,-0.406683 -0.575451,-0.327377 -0.892951,-0.674793 -1.518073,-1.021926 -0.674512,-0.366889 -2.658534,-1.765865 -3.412632,-1.835291 l -0.198402,-0.664634 -0.654755,-0.0099 c -0.515903,0 -0.704427,-0.74422 -1.180536,-0.168769 z"
     id="path169"
     inkscape:connector-curvature="0" />
  <path
     style="fill:#627d6b;fill-opacity:1;fill-rule:evenodd;stroke:none"
     d="m 25.406742,15.228175 c 0.426579,0.04961 2.162697,1.448421 3.224135,1.696438 l -0.198402,-4.057537 -3.025733,0.505939 z"
     id="path171"
     inkscape:connector-curvature="0" />
  <path
     style="fill:#69ab5f;fill-opacity:1;fill-rule:evenodd;stroke:none"
     d="m 73.482197,42.817344 3.740009,-1.3589 -0.188525,-0.327377 c -0.972255,-0.228318 -2.380826,-1.359183 -3.214229,-1.359183 -0.188524,0 -2.033693,1.666523 -2.033693,2.033694 0,0.287584 1.408571,0.863035 1.696438,1.011766 z"
     id="path173"
     inkscape:connector-curvature="0" />
  <path
     style="fill:#297954;fill-opacity:1;fill-rule:evenodd;stroke:none"
     d="m 90.406781,29.622891 0.188525,-0.674511 7.767884,2.857218 0,0.357011 -5.416691,2.023815 0,0.337256 0,0.168769 0.992011,-0.327378 0.188525,0.327378 4.20624,-2.083365 0.02992,1.071598 0.178365,-1.319671 0.496146,-0.198402 0,1.012049 0.168769,-1.527951 c -1.448646,-0.337256 -8.313702,-3.620911 -8.968458,-3.214229 z"
     id="path175"
     inkscape:connector-curvature="0" />
  <path
     style="fill:#627d6b;fill-opacity:1;fill-rule:evenodd;stroke:none"
     d="m 26.934524,46.041733 1.845366,-0.724182 0.01976,-2.837462 c 0,-0.41656 -1.984164,-1.765865 -2.37109,-2.023816 z"
     id="path177"
     inkscape:connector-curvature="0" />
  <path
     style="fill:#4c655c;fill-opacity:1;fill-rule:evenodd;stroke:none"
     d="m 89.216368,40.793529 c 2.400582,-0.267829 2.370949,-2.51968 2.370949,-5.079153 l -2.053449,0.783731 -0.347416,3.273777 z"
     id="path179"
     inkscape:connector-curvature="0" />
  <path
     style="fill:#297954;fill-opacity:1;fill-rule:evenodd;stroke:none"
     d="m 54.017895,36.894911 -1.190414,-0.674793 -8.293664,3.214511 c 0.257951,0.347133 0.396804,0.505742 1.021644,0.505742 0.625123,0 6.95452,-2.688449 8.462434,-3.04546 z"
     id="path181"
     inkscape:connector-curvature="0" />
  <path
     style="fill:#275346;fill-opacity:1;fill-rule:evenodd;stroke:none"
     d="m 35.059617,50.942522 0,0.684389 0.158609,3.561645 -0.743938,-0.287867 0.605084,0.635 -0.357293,0.486269 0.337538,0.168486 0.327378,-0.307622 0.902546,0.238196 -0.575169,-0.267829 0.188525,-0.506025 -0.168769,-4.067386 -0.337256,-4.057509 0,-3.551767 0,-0.853158 -0.168768,-1.011766 -0.426438,-0.595207 z"
     id="path183"
     inkscape:connector-curvature="0" />
  <path
     style="fill:#627d6b;fill-opacity:1;fill-rule:evenodd;stroke:none"
     d="m 76.696426,41.974347 0,2.539435 c 0.257951,0.139136 1.240084,0.674794 1.517791,0.674794 0.09934,0 1.89484,-1.984305 2.033693,-2.202463 l -2.539718,-1.349304 z"
     id="path185"
     inkscape:connector-curvature="0" />
  <path
     style="fill:#297954;fill-opacity:1;fill-rule:evenodd;stroke:none"
     d="m 37.767821,25.892845 1.180536,0.853186 1.190413,-2.371034 c 1.021927,0.01984 3.978205,1.85516 4.057791,1.85516 0.52578,0 0.813365,-0.357153 1.021645,-0.674596 -0.892951,-0.426579 -3.333327,-1.85516 -4.236156,-1.85516 -0.684389,0 -2.291644,1.478167 -3.224106,1.696438 z"
     id="path187"
     inkscape:connector-curvature="0" />
  <path
     style="fill:#84989b;fill-opacity:1;fill-rule:evenodd;stroke:none"
     d="m 94.127035,34.692449 c 0.327377,0.158609 3.353082,1.359182 3.551484,1.359182 0.694549,0 0.635,-1.79578 0.684671,-2.370949 l -0.02992,-1.071598 z"
     id="path189"
     inkscape:connector-curvature="0" />
  <path
     style="fill:#275346;fill-opacity:1;fill-rule:evenodd;stroke:none"
     d="m 5.4365,9.1369162 c 0.2777914,0.3769642 2.1428569,1.5277538 2.7083456,1.5277538 0.2281766,0 1.1408551,-1.3293516 1.1904698,-1.8650658 l -2.8075467,-1.4881013 0,0.1785902 z"
     id="path191"
     inkscape:connector-curvature="0" />
  <path
     style="fill:#297954;fill-opacity:1;fill-rule:evenodd;stroke:none"
     d="m 17.628952,43.16476 0.05955,-0.734342 0.44642,0.734342 z m 0,0 0,0.168487 0.297631,0.02992 0.376993,0.30734 0.337283,-0.168486 0,-0.337256 -0.337283,0 0,-0.347416 0.555554,0 -0.17859,-2.539435 -0.208308,-2.202462 -1.408741,0.178646 0.376993,3.382716 z"
     id="path193"
     inkscape:connector-curvature="0" />
  <path
     style="fill:#627d6b;fill-opacity:1;fill-rule:evenodd;stroke:none"
     d="m 31.50785,45.525831 c 0,0.248073 2.797669,1.835291 3.214229,2.033693 l 0,-3.551484 c -0.555413,0.128976 -3.214229,1.021644 -3.214229,1.517791 z"
     id="path195"
     inkscape:connector-curvature="0" />
  <path
     style="fill:#4c655c;fill-opacity:1;fill-rule:evenodd;stroke:none"
     d="m 12.043661,26.061501 2.023787,1.190469 1.795639,-0.486099 0.932547,-0.367058 -0.188496,-1.686504 z"
     id="path197"
     inkscape:connector-curvature="0" />
  <path
     style="fill:#627d6b;fill-opacity:1;fill-rule:evenodd;stroke:none"
     d="m 26.934524,46.716244 0,1.855047 2.093157,1.666805 0.10922,-0.138854 0,-2.708486 -0.188524,-1.180536 z"
     id="path199"
     inkscape:connector-curvature="0" />
  <path
     style="fill:#297954;fill-opacity:1;fill-rule:evenodd;stroke:none"
     d="m 28.968132,51.626911 c 0.07959,0.149013 0.10922,0.337256 0.337538,0.337256 0.436316,0 0.406682,-0.03951 0.714305,-0.218158 l 4.325337,3.254022 -0.128975,0.178647 -0.337256,0 0.0099,0.30734 0.83312,0.53594 0.357293,-0.486269 -0.605084,-0.635 0.743938,0.287867 -0.158609,-3.561645 0,2.876973 -5.079436,-3.561362 -0.168769,-1.012049 -0.08918,1.359183 0.476109,0.257951 z"
     id="path201"
     inkscape:connector-curvature="0" />
  <path
     style="fill:#69ab5f;fill-opacity:1;fill-rule:evenodd;stroke:none"
     d="m 35.902897,26.577375 3.214229,1.855103 0,-0.337228 c 0.892669,0.01984 1.001889,0.337228 1.696438,0.337228 0.377048,0 -0.0793,0.06943 0.41656,-0.287641 l -2.281767,-1.398806 -1.180536,-0.853186 -0.495864,-0.148788 z"
     id="path203"
     inkscape:connector-curvature="0" />
  <path
     style="fill:#627d6b;fill-opacity:1;fill-rule:evenodd;stroke:none"
     d="m 0.87301184,16.418645 0.16865036,2.569464 2.8769903,-0.535715 0,-0.68453 -3.04564066,-1.865093 z"
     id="path205"
     inkscape:connector-curvature="0" />
  <path
     style="fill:#297954;fill-opacity:1;fill-rule:evenodd;stroke:none"
     d="m 35.059617,56.190444 0.178364,0.377049 0.873196,-0.257951 4.533618,3.2639 0,0.347134 -0.436598,0.09934 0.942622,0.743938 0.20828,-0.664634 -0.377049,-0.0099 0,-0.347415 0.515902,0.168769 -0.178646,-0.84328 -0.327378,0.198402 0.08946,-0.168487 -5.178495,-3.750169 -0.188525,0.506025 0.575169,0.267829 -0.902546,-0.238196 z"
     id="path207"
     inkscape:connector-curvature="0" />
  <path
     style="fill:#297954;fill-opacity:1;fill-rule:evenodd;stroke:none"
     d="m 50.118995,51.111009 6.775873,4.404924 0.168487,-0.674793 -7.618871,-4.741898 -0.198403,0.495865 z"
     id="path209"
     inkscape:connector-curvature="0" />
  <path
     style="fill:#297954;fill-opacity:1;fill-rule:evenodd;stroke:none"
     d="m 56.220357,19.295646 5.218007,2.033722 -0.148732,5.585319 0.337256,-5.585319 0.347416,0 0,0.337312 5.585177,2.371005 0.674511,-0.168628 -12.192282,-5.079379 z"
     id="path211"
     inkscape:connector-curvature="0" />
  <path
     style="fill:#84989b;fill-opacity:1;fill-rule:evenodd;stroke:none"
     d="m 20.843237,45.188576 -1.150789,-1.220329 -1.220216,-0.128976 -0.168656,-0.168769 -0.376993,-0.30734 -0.297631,-0.02992 0.208336,2.867095 c 0.952387,-0.0793 0.307538,-0.337255 0.972227,-0.337255 l 0.505968,0 0,-0.337256 z"
     id="path213"
     inkscape:connector-curvature="0" />
  <path
     style="fill:#297954;fill-opacity:1;fill-rule:evenodd;stroke:none"
     d="m 40.476308,29.622891 0.0099,-0.555413 -1.180536,-0.307622 -0.188524,-0.327378 -3.214229,-1.855103 -0.506025,0.168656 4.236156,2.36124 c -0.257951,0.386645 -5.26796,3.561362 -5.58546,3.561362 -0.585329,0 -0.654756,-0.128975 -1.25984,-0.05955 l 1.934351,1.071598 0,-0.337538 -0.337255,0 c 0.198402,-0.73406 4.682631,-3.412631 5.595337,-3.928533 z"
     id="path215"
     inkscape:connector-curvature="0" />
  <path
     style="fill:#4c655c;fill-opacity:1;fill-rule:evenodd;stroke:none"
     d="m 12.549601,26.914687 -0.446419,-0.08929 -1.755959,-1.269831 c -0.6646896,0.267857 -0.168656,1.845225 -0.168656,2.70843 l 0.674596,0 c 0.882932,0 0.72421,-0.476306 1.865094,-0.506053 z"
     id="path217"
     inkscape:connector-curvature="0" />
  <path
     style="fill:#297954;fill-opacity:1;fill-rule:evenodd;stroke:none"
     d="m 35.734128,51.279778 0.08918,-2.152791 5.317631,3.68046 0.178365,5.922715 -0.337256,-11.507893 0,4.741898 -3.273778,-2.192303 -2.083364,-1.448364 -0.228036,-1.101231 z"
     id="path219"
     inkscape:connector-curvature="0" />
  <path
     style="fill:#69ab5f;fill-opacity:1;fill-rule:evenodd;stroke:none"
     d="m 38.105077,42.986113 2.678571,1.567463 0.02992,-2.747998 -2.708487,0.84328 z"
     id="path221"
     inkscape:connector-curvature="0" />
  <path
     style="fill:#275346;fill-opacity:1;fill-rule:evenodd;stroke:none"
     d="m 32.013875,34.355193 c 0.09934,0.377049 0.03979,0.515903 0.506024,0.515903 l 0.506025,0 0.842997,-0.515903 c -0.138853,-0.605084 -1.378937,-1.517791 -2.023815,-1.517791 -0.0099,0 -0.842998,0.426438 -1.190414,0.505742 0.0793,0.555696 0.267829,1.012049 0.853158,1.012049 z"
     id="path223"
     inkscape:connector-curvature="0" />
  <path
     style="fill:#275346;fill-opacity:1;fill-rule:evenodd;stroke:none"
     d="m 29.136901,47.390756 0.128976,3.432668 -0.714305,-0.327377 0.585329,0.783731 -0.337255,0 0,0.347133 0.168486,0 1.230207,-0.0793 -0.476109,-0.257951 0.08918,-1.359183 -0.168486,-3.551484 -0.188525,-1.865207 -0.3175,0 z"
     id="path225"
     inkscape:connector-curvature="0" />
  <path
     style="fill:#627d6b;fill-opacity:1;fill-rule:evenodd;stroke:none"
     d="m 10.515879,30.972196 2.876973,2.033693 0,-1.190413 c -0.03968,-0.52578 -0.168656,-0.595207 -0.168656,-1.180536 l 0,-0.506024 z"
     id="path227"
     inkscape:connector-curvature="0" />
  <path
     style="fill:#69ab5f;fill-opacity:1;fill-rule:evenodd;stroke:none"
     d="m 69.077272,44.513782 c 1.279878,0 3.214512,-0.932462 3.8989,-1.527669 l -1.527668,-0.853157 z"
     id="path229"
     inkscape:connector-curvature="0" />
  <path
     style="fill:#84989b;fill-opacity:1;fill-rule:evenodd;stroke:none"
     d="m 58.244172,31.47822 2.876974,1.359182 0,-2.539718 z"
     id="path231"
     inkscape:connector-curvature="0" />
  <path
     style="fill:#275346;fill-opacity:1;fill-rule:evenodd;stroke:none"
     d="m 28.630877,40.10914 0.386927,3.551484 -0.04967,0.684672 0.506025,-0.168769 -0.337256,-6.428458 -0.476109,-0.406682 z"
     id="path233"
     inkscape:connector-curvature="0" />
  <path
     style="fill:#4c655c;fill-opacity:1;fill-rule:evenodd;stroke:none"
     d="m 0.1884889,15.744049 c 0.28769874,-0.873026 0.50595248,0.396833 0.68452294,0.674596 l 0,-0.515874 3.04564066,1.865093 0.3372837,-0.168656 -3.38292436,-2.023815 0,-0.337284 L 6.6269698,13.878955 6.289686,13.710327 -3.0910165e-6,15.069453 Z"
     id="path235"
     inkscape:connector-curvature="0" />
  <path
     style="fill:#627d6b;fill-opacity:1;fill-rule:evenodd;stroke:none"
     d="m 92.261828,34.871096 0.684671,-0.178647 0,-0.168769 c -1.131147,-0.08918 -2.033693,-1.011767 -2.708487,-1.011767 -0.237913,0 -0.337255,0.228036 -0.337255,0.506025 l 0,1.537546 z"
     id="path237"
     inkscape:connector-curvature="0" />
  <path
     style="fill:#297954;fill-opacity:1;fill-rule:evenodd;stroke:none"
     d="m 9.5039714,37.063398 0.178562,0.377049 0.8333456,-0.20828 2.876973,2.033693 0,0.337256 -0.337312,0 0.0099,0.307622 0.496033,0.198402 0.327378,-0.188524 -0.188496,-0.476109 0.525808,0.188524 0.0099,-0.53594 -0.337284,-2.539435 0.188468,2.539435 -3.740065,-2.708204 0.148816,0.684389 z"
     id="path239"
     inkscape:connector-curvature="0" />
  <path
     style="fill:#297954;fill-opacity:1;fill-rule:evenodd;stroke:none"
     d="m 53.680639,36.220118 0.84328,0.506024 0.20828,-0.228035 3.511973,-1.120987 -1.349304,-0.684671 z"
     id="path241"
     inkscape:connector-curvature="0" />
  <path
     style="fill:#275346;fill-opacity:1;fill-rule:evenodd;stroke:none"
     d="m 8.8293756,20.307526 0.3372838,4.067471 0.6745957,0.168656 -0.3372837,-3.551597 -0.168656,-1.69641 -0.168656,-0.168656 -0.3372838,0 z"
     id="path243"
     inkscape:connector-curvature="0" />
  <path
     style="fill:#297954;fill-opacity:1;fill-rule:evenodd;stroke:none"
     d="m 9.8412551,31.47822 c 0.1587499,-0.486269 1.2004039,0.426438 1.7162779,0.823242 0.654756,0.486269 1.34922,0.942622 2.003975,1.37922 l -0.168656,-1.865206 0,1.190413 -2.876973,-2.033693 -0.337312,0 0,-0.337256 2.857133,-0.763976 0.01984,-0.248073 -3.5714089,0.932745 z"
     id="path245"
     inkscape:connector-curvature="0" />
  <path
     style="fill:#69ab5f;fill-opacity:1;fill-rule:evenodd;stroke:none"
     d="m 54.523919,36.726142 c 0.267829,0.188525 0.952218,0.674511 1.349022,0.674511 0.257951,0 2.271889,-1.755704 2.371231,-2.023533 l -3.511973,1.120987 z"
     id="path247"
     inkscape:connector-curvature="0" />
  <path
     style="fill:#297954;fill-opacity:1;fill-rule:evenodd;stroke:none"
     d="m 26.934524,48.571291 -0.337312,0.515902 1.805629,1.547707 -0.10922,0.138853 -0.347189,0 0.05952,0.267829 0.793694,0.585329 0,-0.347133 0.337255,0 -0.585329,-0.783731 0.714305,0.327377 -0.128976,-3.432668 0,2.708486 -0.10922,0.138854 z"
     id="path249"
     inkscape:connector-curvature="0" />
  <path
     style="fill:#297954;fill-opacity:1;fill-rule:evenodd;stroke:none"
     d="m 41.488075,40.625042 0,0.674511 3.382997,-1.021644 -0.01975,-0.287867 -0.813647,-0.366889 z"
     id="path251"
     inkscape:connector-curvature="0" />
  <path
     style="fill:#4c655c;fill-opacity:1;fill-rule:evenodd;stroke:none"
     d="m 36.577408,9.305544 0.02963,-1.7559302 3.879145,1.4186464 -0.178647,3.2142858 0.337256,0.168656 0,-3.3829418 0.148731,0 0.188524,1.6964098 -0.02963,-1.7757707 -4.543778,-1.7757986 z"
     id="path253"
     inkscape:connector-curvature="0" />
  <path
     style="fill:#297954;fill-opacity:1;fill-rule:evenodd;stroke:none"
     d="m 13.730164,40.277909 c 0.119042,0.108938 0.307538,0.347133 0.50594,0.347133 0.654756,0 0.06946,0.04967 0.525808,-0.198402 l 2.351194,1.716193 0,-0.84328 -2.281767,-1.46812 -0.248017,-1.408853 0,1.68656 0.357152,0.09906 z"
     id="path255"
     inkscape:connector-curvature="0" />
  <path
     style="fill:#627d6b;fill-opacity:1;fill-rule:evenodd;stroke:none"
     d="m 8.3135016,21.498024 0.3372838,2.708317 0.515874,0.168656 -0.3372838,-4.067471 -0.4960338,-0.198402 z"
     id="path257"
     inkscape:connector-curvature="0" />
  <path
     style="fill:#84989b;fill-opacity:1;fill-rule:evenodd;stroke:none"
     d="m 7.8075336,17.261896 0.505968,0 -0.168656,-3.551569 -0.7440507,0.0099 z"
     id="path259"
     inkscape:connector-curvature="0" />
  <path
     style="fill:#297954;fill-opacity:1;fill-rule:evenodd;stroke:none"
     d="m 24.56349,46.716244 0.327378,0.188525 c 0.02977,0.813364 0.932547,1.339144 1.537688,1.498035 l -0.337284,-3.214228 0,1.190413 z"
     id="path261"
     inkscape:connector-curvature="0" />
  <path
     style="fill:#4c655c;fill-opacity:1;fill-rule:evenodd;stroke:none"
     d="m 61.121146,29.960429 0,0.337255 0,2.539718 -2.876974,-1.359182 -0.674793,-0.168769 c 0.297745,1.120987 2.9464,1.210451 3.214229,2.202462 l 0.337538,0 0.168486,-3.889022 z"
     id="path263"
     inkscape:connector-curvature="0" />
  <path
     style="fill:#627d6b;fill-opacity:1;fill-rule:evenodd;stroke:none"
     d="m 18.809515,36.726142 0,0.506025 0.505968,0 c 0.456325,0 0.46626,-0.0793 0.853158,-0.168769 l 0.337312,-0.168487 C 20.347231,36.299704 19.434525,35.68446 18.809515,35.545607 Z"
     id="path265"
     inkscape:connector-curvature="0" />
  <path
     style="fill:#627d6b;fill-opacity:1;fill-rule:evenodd;stroke:none"
     d="m 79.910655,42.142833 0.506024,0 0.168769,-1.180535 -0.02992,-0.565574 -1.954388,0.972256 z"
     id="path267"
     inkscape:connector-curvature="0" />
  <path
     style="fill:#275346;fill-opacity:1;fill-rule:evenodd;stroke:none"
     d="m 17.966264,32.668633 0,1.349305 0.168656,0.674511 0.337312,0 0,-0.84328 -0.168656,-3.04546 -0.515874,-0.337538 z"
     id="path269"
     inkscape:connector-curvature="0" />
  <path
     style="fill:#627d6b;fill-opacity:1;fill-rule:evenodd;stroke:none"
     d="m 76.527657,46.547758 c 0.476391,-0.228318 1.180535,-0.32766 1.180535,-1.021927 0,-0.08918 -0.237913,-0.367171 -0.337255,-0.506024 l -0.853158,-0.119098 z"
     id="path271"
     inkscape:connector-curvature="0" />
  <path
     style="fill:#627d6b;fill-opacity:1;fill-rule:evenodd;stroke:none"
     d="m 23.551582,14.553579 1.34922,0.50594 0,-1.349192 -0.505968,0 c -0.456353,0 -0.466259,0.07936 -0.843252,0.168628 z"
     id="path273"
     inkscape:connector-curvature="0" />
  <path
     style="fill:#627d6b;fill-opacity:1;fill-rule:evenodd;stroke:none"
     d="m 74.265928,43.204271 1.716193,0.892951 0.0099,-1.666804 z"
     id="path275"
     inkscape:connector-curvature="0" />
  <path
     style="fill:#4c655c;fill-opacity:1;fill-rule:evenodd;stroke:none"
     d="m 9.3353154,19.295646 0.168656,1.69641 0,-0.853158 0.5059396,0 c 0.64485,0 0.05952,0.04959 0.555555,-0.277791 l -0.7242109,-0.228177 0.01984,-0.396833 1.4980356,0.565489 C 11.150794,19.216257 10.466264,18.809518 9.6726274,18.789678 l 0,0.505968 z"
     id="path277"
     inkscape:connector-curvature="0" />
  <path
     style="fill:#627d6b;fill-opacity:1;fill-rule:evenodd;stroke:none"
     d="m 23.888894,20.138898 1.67657,-0.396833 0.01984,-0.277791 -1.418646,-0.555554 -0.277764,-0.119042 z"
     id="path279"
     inkscape:connector-curvature="0" />
  <path
     style="fill:#297954;fill-opacity:1;fill-rule:evenodd;stroke:none"
     d="m 57.738148,34.692449 c 0.248073,0.218158 0.575451,0.515902 1.011767,0.515902 0.02991,0 1.557584,-1.319389 1.696437,-1.527669 z"
     id="path281"
     inkscape:connector-curvature="0" />
  <path
     style="fill:#627d6b;fill-opacity:1;fill-rule:evenodd;stroke:none"
     d="m 7.9761896,18.452394 0,0.337284 0.1984022,0.327378 0.4761936,0.0099 0.168656,-0.515874 -0.4166729,-0.982161 -0.4265789,-0.02975 z"
     id="path283"
     inkscape:connector-curvature="0" />
  <path
     style="fill:#297954;fill-opacity:1;fill-rule:evenodd;stroke:none"
     d="m 23.720238,46.041733 -0.138881,0.188525 c -0.753985,-0.506025 -1.140883,-0.9525 -1.726212,-1.378938 l 0,0.505742 c 0.70437,0.377049 1.359125,1.111109 2.033749,1.359182 z"
     id="path285"
     inkscape:connector-curvature="0" />
  <path
     style="fill:#297954;fill-opacity:1;fill-rule:evenodd;stroke:none"
     d="m 75.337244,39.940371 0,-0.505742 -1.180536,-0.506025 -0.158609,0.515903 z"
     id="path287"
     inkscape:connector-curvature="0" />
  <path
     style="fill:#627d6b;fill-opacity:1;fill-rule:evenodd;stroke:none"
     d="m 95.991959,51.279778 c 0.168769,0.148731 0.297745,0.347133 0.674793,0.347133 0.228036,0 0.09906,-0.188524 0.674512,-0.347133 l 0,-0.337256 -0.506025,0 0,-0.674793 -0.495864,1.021927 z"
     id="path289"
     inkscape:connector-curvature="0" />
  <path
     style="fill:#627d6b;fill-opacity:1;fill-rule:evenodd;stroke:none"
     d="m 35.396872,42.817344 0.833403,-0.198402 c -0.158891,-0.605084 -0.347416,-0.664633 -1.002171,-0.813364 z"
     id="path291"
     inkscape:connector-curvature="0" />
  <path
     style="fill:#297954;fill-opacity:1;fill-rule:evenodd;stroke:none"
     d="m 57.063355,30.972196 0,-0.506025 -1.021645,-0.337255 0.01976,0.466231 z"
     id="path293"
     inkscape:connector-curvature="0" />
  <path
     style="fill:#297954;fill-opacity:1;fill-rule:evenodd;stroke:none"
     d="m 68.57153,36.557656 0,-0.337538 -0.188524,-0.327378 -0.654756,-0.0099 0.0099,0.476391 0.495864,0.198403 z"
     id="path295"
     inkscape:connector-curvature="0" />
  <path
     style="fill:#297954;fill-opacity:1;fill-rule:evenodd;stroke:none"
     d="m 23.382926,47.559524 0,-0.337255 0.337312,0 -0.674595,-0.674511 -0.426607,0.237913 z"
     id="path297"
     inkscape:connector-curvature="0" />
  <path
     style="fill:#627d6b;fill-opacity:1;fill-rule:evenodd;stroke:none"
     d="m 68.57153,36.557656 0.168487,0.337255 0.506024,0 0,-0.337255 -0.337255,0 0,-0.337538 -0.337256,0 z"
     id="path299"
     inkscape:connector-curvature="0" />
  <path
     style="fill:#627d6b;fill-opacity:1;fill-rule:evenodd;stroke:none"
     d="m 17.628952,43.16476 0.505968,0 -0.44642,-0.734342 z"
     id="path301"
     inkscape:connector-curvature="0" />
</svg>
